<svg xmlns="http://www.w3.org/2000/svg" viewBox="0 0 64 64"><defs><style>.cls-1{fill:#fff;}</style></defs><title>prev_radius_icon</title><g id="圖層_2" data-name="圖層 2"><g id="圖層_1-2" data-name="圖層 1"><path class="cls-1" d="M64,32A32,32,0,1,0,32,64,32,32,0,0,0,64,32Zm-2.59,0A29.41,29.41,0,1,1,32,2.59,29.44,29.44,0,0,1,61.41,32Z"/><path class="cls-1" d="M36.55,42.63a1.29,1.29,0,0,1-1.83,0L25,32.91a1.28,1.28,0,0,1,0-1.82l9.71-9.72a1.29,1.29,0,0,1,1.83,1.83L27.75,32l8.8,8.8A1.3,1.3,0,0,1,36.55,42.63Z"/></g></g></svg>