<svg xmlns="http://www.w3.org/2000/svg" viewBox="0 0 126 27.17"><defs><style>.cls-1{fill:#fff;}</style></defs><title>資產 12</title><g id="圖層_2" data-name="圖層 2"><g id="圖層_1-2" data-name="圖層 1"><path class="cls-1" d="M30.34,23.51c.23-.37.63-.61.55-1.36a3.27,3.27,0,0,1,.79.49,1.25,1.25,0,0,0,.94.44,10.58,10.58,0,0,0,2.85-.33c1.22-.27,2.44-.47,3.66-.72a7.67,7.67,0,0,0,1-.35c.17-.05.34-.09.5-.15a.24.24,0,0,0,.16-.15.31.31,0,0,0-.11-.22,3.83,3.83,0,0,1-1.21-2.73,12.33,12.33,0,0,1-.13-1.35c0-.45,0-.91.06-1.36s0-.9,0-1.35c0-.67-.14-1.34-.2-2a1.72,1.72,0,0,1,.07-.37c.07-.56.16-1.11.2-1.67a1.21,1.21,0,0,0-.16-.67A2.62,2.62,0,0,1,39,7.9c0-.54-.15-1.09-.09-1.61.11-.85-.55-1.38-.5-2.19,0-.14-.14-.32-.24-.45-.36-.46-.39-1.2-.93-1.52-.14-.07-.17-.43-.24-.66l.09-.1c.45.13.9.29,1.35.4A9.4,9.4,0,0,1,41,2.94,3.21,3.21,0,0,1,42.3,4.3a5.91,5.91,0,0,1,.49,1.82c.08.71,0,1.44,0,2.16a1.55,1.55,0,0,0,.25.88.74.74,0,0,0,1.09.15,8.51,8.51,0,0,1,3-1.45A3.88,3.88,0,0,1,50,8.22a9.14,9.14,0,0,1,1.48.63,1.29,1.29,0,0,1,.53.76,1.15,1.15,0,0,1-.31,1.18c-.14.11-.4,0-.54,0-.24.29-.46.58-.7.85a.5.5,0,0,1-.25.09s-.13,0-.15,0c-.44.6-1.13.54-1.64.94a4.25,4.25,0,0,1-.7.43,1.92,1.92,0,0,1-.46.11c-.06,0-.13,0-.17,0-.43.34-.48.34-.86-.07,0,0,0,0,0,0l-.67.09a3,3,0,0,1,1-1.45,2.35,2.35,0,0,0,.81-1.18c.08-.36,0-.53-.29-.54a6.12,6.12,0,0,0-2.33.46,4.32,4.32,0,0,1-1.08.22c-.66.06-1,.63-.67,1.37a1,1,0,0,1,0,.68,9,9,0,0,0-.16,1.38,18.87,18.87,0,0,0,0,2c0,.29-.12.58-.11.87,0,.7.13,1.39.11,2.08a4.08,4.08,0,0,0,0,1.35c.08.28.17.41.47.35.75-.18,1.52-.25,2.28-.39,1-.16,1.93-.32,2.89-.54,1.14-.27,2.26-.68,3.41-.89a3.82,3.82,0,0,1,2.61.41,7.17,7.17,0,0,1,.8.35,5.5,5.5,0,0,1,.7.74l.62.63a1.5,1.5,0,0,1,.29.33c.46,1,.21,1.1-.65,1.84-.52.44-1.09.24-1.63.4-.06,0-.19-.12-.22-.22a1.83,1.83,0,0,1,0-.47l-.09,0a1.32,1.32,0,0,0-.12.35c0,.38-.13.46-.39.38-.76-.24-1.51-.51-2.28-.71a2.44,2.44,0,0,0-1,0,1,1,0,0,1-.92-.18c-.06-.05-.16,0-.24,0l-.71-.14a3.65,3.65,0,0,1-.49.13l-1.53.25c-.14,0-.33.09-.43,0-.31-.27-.55,0-.84.07a18.23,18.23,0,0,1-1.8.29,3.56,3.56,0,0,0-.56.15c-.06,0-.14.09-.16.07-.36-.38-.58,0-.84.21-.06,0-.13.09-.19.07-.84-.16-1.47.44-2.2.84l-.33-.59-.23.35,0-.12-.62.28c-.2.09-.39.19-.58.29s-.15,0-.2.07a1.9,1.9,0,0,1-1.11.37,3.22,3.22,0,0,0-.62.25H35l-.91-.09c-.18,0-.36,0-.47-.23,0-.08-.29,0-.44,0s-.19.15-.26.12a4.74,4.74,0,0,1-.83-.38l-1.72-1Z"/><path class="cls-1" d="M94.81,12.55c.76-.69,1.55-1.34,2.26-2.08,1.75-1.8,3.47-3.63,5.19-5.47.51-.54,1-1.11,1.46-1.68a.67.67,0,0,0,.09-.46,6.24,6.24,0,0,1-.1-2.58c0-.12.23-.3.31-.28a4,4,0,0,1,1.44.48,22.44,22.44,0,0,1,2.24,2.13,1.62,1.62,0,0,1-.22,2,17.64,17.64,0,0,1-1.85,1.48c-1.87,1.35-3.73,2.7-5.63,4a21.25,21.25,0,0,1-4.61,2.39l-.58.19Z"/><path class="cls-1" d="M102.06,27.09A2.2,2.2,0,0,1,101,24.64a39.42,39.42,0,0,0,.17-5.43,27.36,27.36,0,0,1,.11-4c.08-1,.11-1.92.17-2.88a5.07,5.07,0,0,1,.09-.54l.14,0c.14.31.27.63.42.94A12.07,12.07,0,0,1,103,17c.07.77.1,1.53.17,2.3a11.11,11.11,0,0,1,.15,1.12c0,.87-.12,1.72-.16,2.59a10.76,10.76,0,0,0,0,1.39,4.8,4.8,0,0,1,0,2.26l-.17.45Z"/><path class="cls-1" d="M108.57,7.79a5.27,5.27,0,0,1,1-.34c.57-.1,1.16-.1,1.73-.2.35-.07.67-.27,1-.37s.61-.09.91-.17A.84.84,0,0,0,113.9,6a8,8,0,0,0-.19-3A5,5,0,0,0,112.2.49a.39.39,0,0,1-.11-.27c0-.1.17-.22.25-.22a7.42,7.42,0,0,1,1,.08,5.24,5.24,0,0,1,2.15.53,3.8,3.8,0,0,1,1.81,4.29c0,.14-.2.26-.31.38s-.17.16-.25.24c.09.07.17.18.26.21a4.65,4.65,0,0,0,2.37-.13,5.25,5.25,0,0,1,3.21,0,5.18,5.18,0,0,1,.91.46.54.54,0,0,1,.07.85,1.78,1.78,0,0,1-1.45.59c-1.32,0-2.65,0-4,.08s-2.36.13-3.53.27-2.61.42-3.92.59a3.46,3.46,0,0,1-1-.19l-1.09-.27S108.59,7.83,108.57,7.79Z"/><path class="cls-1" d="M106.45,22.7c1-.1,1.94-.15,2.9-.29,1.65-.23,3.3-.53,5-.78.59-.09,1.18-.11,1.77-.2s1.35-.27,2-.39a1.33,1.33,0,0,1,.65,0,2.69,2.69,0,0,0,1.61-.21c.39-.1.76-.3,1.15-.39a1.4,1.4,0,0,1,.67.07,1.25,1.25,0,0,0,1.19-.19c.18-.14.54,0,.81,0a1.8,1.8,0,0,1,1.75,1.3,2,2,0,0,1,.06.87c0,.28-.47.41-.88.33a8.77,8.77,0,0,0-1.24-.16c-1.5-.05-3-.13-4.51-.08s-2.78.21-4.17.34c-.92.08-1.83.16-2.75.27s-1.89.28-2.84.42a3.68,3.68,0,0,1-2.51-.17,5.13,5.13,0,0,1-.69-.56Z"/><path class="cls-1" d="M115.72,19.18c1.47-2.44,3.35-4.6,4.15-7.51a1.3,1.3,0,0,1-.15-1.43c0-.1.28-.18.41-.16a2.3,2.3,0,0,1,1.51,1.21c.28.43.55.86.82,1.3a.48.48,0,0,1,.08.28,1.59,1.59,0,0,1-.62,1.45c-1.38,1-2.66,2.2-4,3.3-.7.58-1.43,1.11-2.15,1.67Z"/><path class="cls-1" d="M113.29,13.5c-.09.45-.17.83-.25,1.2-.15.72-.3,1.43-.46,2.14s-.5,1.08-1.29.9a2.31,2.31,0,0,1-1-.3,1.91,1.91,0,0,1-.67-1,7.47,7.47,0,0,1,0-1.83c0-.38.24-.75.27-1.12a2.84,2.84,0,0,0-.17-1.08.42.42,0,0,1,.23-.59s.12,0,.16,0,.29-.34.34-.31a2.54,2.54,0,0,1,.83.58,13.89,13.89,0,0,1,.79,1.16A.83.83,0,0,0,113.29,13.5Z"/><path class="cls-1" d="M14.77.37a8.53,8.53,0,0,1,1.82,1.26c.69.81.33,1-.53,1.5a14.43,14.43,0,0,0-3.7,2.92c-.37.41.14,1.6.27,2.55.88-.43,1.55-.74,2.2-1.09,1.43-.75,1.58-.73,3,.73L13.13,9.76l.59,1.4c1.41-.5,2.72-.95,4-1.44a.86.86,0,0,0,.43-.56c.34-1.36.64-2.74,1-4.22a9.7,9.7,0,0,0-4.55,1.49c-.71.44-.85-.16-1.1-.44a.94.94,0,0,1,.32-.81c1.42-.54,2.86-1,4.3-1.48.13,0,.29,0,.4-.09,1.33-.85,2.24-.07,3.13.81.27.26.56.51.89.8-1.25,2.88-1.34,6.38-4.93,7.85L17,11.76l-1.4.3a5.89,5.89,0,0,1,1.3,1.53,7.6,7.6,0,0,1,.24,2.08c1.06-.95,2.15-1.91,3.22-2.9.1-.09,0-.39.05-.53s.43-.61.58-.58a2.67,2.67,0,0,1,1.33.6,4,4,0,0,1,.55,1.42l-4.76,2.56a17.62,17.62,0,0,0,7,3.47c1.33.37,2.7.57,4.06.85v.21c-1.45.63-2.91,1.25-4.36,1.89-.15.07-.35.16-.41.29-.46,1.09-1.21.73-1.93.38-2-1-3.34-2.66-4.76-4.27l-.47-.51c.1,1.68.22,3.06.27,4.44a4.89,4.89,0,0,1-1.72,4,1.24,1.24,0,0,1-.83.22c-.13,0-.36-.38-.33-.55.27-1.47-.62-2.17-1.74-2.74l-.83-.4.29-.35,1.52.13c1.09.1,1.39-.16,1.33-1.23-.07-1.4-.18-2.8-.28-4.33a19.37,19.37,0,0,1-7.81,7.05l5.73-7.07-.27-.28c-.43.36-.85.73-1.3,1.07-.21.17-.55.42-.71.35a1.3,1.3,0,0,1-.71-.73c-.27-1.27-.21-1.28,1.06-1.5A20.05,20.05,0,0,0,13.52,16c.28-.09.47-.46.7-.71l1,.32-1.28-2.84-2.17,1.13c-1.31-1.16-1.28-1.41.2-1.9A24.54,24.54,0,0,1,10.88,8.3c-.16-1.15-1.2-2.34-.16-3.63l1.12.67c.52-.88,1.08-1.76,1.55-2.7.11-.21-.15-.6-.28-1.07l1-1.2Z"/><path class="cls-1" d="M0,20.15c.33-1,.43-2.22,1.61-2.84a6.1,6.1,0,0,1,1.16,3.93c0,.25-.61.69-1,.72a1.77,1.77,0,0,1-1.19-.49A3.66,3.66,0,0,1,0,20.35Z"/><path class="cls-1" d="M5.88,2.89,7.93,4.23C7.1,6.45,5.23,7.54,3.35,8.62c1.59.41,2,.41,2.46-.11.55-.68,1.05-1.41,1.58-2.13,1.07.49,2.21.84,2,2.25l-2.79,2C7.65,11,9,11,8.91,12.41a2.48,2.48,0,0,1-1.76,2.16l-.48-1.65L2.34,16.19a2.68,2.68,0,0,1-1.06-2.74c.06-.2.26-.55.36-.54,1.21.12,1-1.16,1.79-1.59-.25-.05-.35-.1-.43-.08-.44.11-1.12.49-1.27.33A3.33,3.33,0,0,1,.87,10a5.09,5.09,0,0,1,.19-1.62l.24.24A4,4,0,0,0,2.49,7.8C3.62,6.25,4.68,4.65,5.88,2.89Zm.19,8.18-1.89,1.4.13.25,2.24-.6Z"/><path class="cls-1" d="M3.85,15.79c1.66.49,2.52,1.53,2.32,2.87,0,.39-.6.71-.92,1.07-.29-.3-.75-.56-.85-.92C4.14,17.85,4,16.85,3.85,15.79Z"/><path class="cls-1" d="M9.13,17.18a3.31,3.31,0,0,1-.94.65c-.64.16-1-.16-.92-.85,0-.22-.17-.46-.15-.68,0-.42.15-.84.23-1.26a6.83,6.83,0,0,1,1.36.82c.22.22.2.7.29,1.05Z"/><path class="cls-1" d="M77.67,22.41c1,.08,1.9.14,2.8.23a.84.84,0,0,0,1-.79,37.87,37.87,0,0,0,.44-4c.06-2.29,0-4.57-.06-6.85a7.51,7.51,0,0,0-.62-2.18c0-.13-.44-.23-.65-.19a25.17,25.17,0,0,1-2.54.58c-.37,0-.8-.32-1.18-.54a4.19,4.19,0,0,1-.76-.57,3.61,3.61,0,0,1-.47-.62c.23-.15.44-.4.68-.44,1.37-.18,2.74-.32,4.12-.46,1.91-.2,3.83-.36,5.74-.57a8.29,8.29,0,0,1,1.72-.3,4.66,4.66,0,0,1,1.72.74c.51.32.45.81-.1,1.07a2.9,2.9,0,0,1-.94.17c-1.92.16-3.84.3-5.76.47-.11,0-.21.1-.35.18.06.09.1.21.17.23C83.89,9,84.36,10.05,85,11a.8.8,0,0,1,.1.63,5.92,5.92,0,0,0,0,2.68c0,.94-.06,1.88-.1,2.81-.05,1.27-.08,2.53-.16,3.79a11.31,11.31,0,0,1-.33,2.61,2.84,2.84,0,0,1-1.12,1.4A15.49,15.49,0,0,1,81,26c-.5.23-.68,0-.66-.49a1.46,1.46,0,0,1,0-.22c.22-1.16,0-1.52-1.06-2.08Z"/><path class="cls-1" d="M65.77,19a2.56,2.56,0,0,1,0-.92c.07-.18.5-.4.61-.33,1.46.93,2.87-.11,4.3-.09a.75.75,0,0,0,.47-.32,1.13,1.13,0,0,1,1.61-.41,5.76,5.76,0,0,1,1.36,1.57c.07.11-.2.46-.32.69-.33.64-.69,1.27-1,1.93a1.47,1.47,0,0,1-1.13.94c-.94.17-1.87.41-2.8.62-.57.14-.71.49-.62,1,0,.23-.19.7-.33.71a1,1,0,0,1-.86-.3,6.5,6.5,0,0,1-.55-1.57c-.28-1.07-.52-2.14-.78-3.21,0-.12-.07-.23-.11-.35Zm2.46,2.18c1.64-.16,2-1.24,2.44-2.81a18.49,18.49,0,0,1-1.73.66c-.85.24-.93.33-.8,1.22C68.18,20.55,68.2,20.84,68.23,21.19Z"/><path class="cls-1" d="M63.79,6.66c2.35-.09,4.73-.5,7.36-.52.31-.33,0-.87-.28-1.34-.47-.69-1.05-1.31-1.5-2a2.82,2.82,0,0,1-.21-1.18.7.7,0,0,1,.5-.18,11.49,11.49,0,0,1,1.85.51,3.48,3.48,0,0,1,1.91,2.87c.1.47.26.63.68.64a4.9,4.9,0,0,1,1.33,0c.31.09.74.43.77.69,0,.5-.46.34-.78.39-1.18.17-2.36.33-3.53.55s-2.45.51-3.66.8a3.33,3.33,0,0,0-1,.41,2.06,2.06,0,0,1-2.72-.15C64.08,7.82,63.42,7.57,63.79,6.66Z"/><path class="cls-1" d="M65.44,15.16c1.36-.95,7.44-1.81,8.41-1.1-.49.28-.91.73-1.33.74a14.58,14.58,0,0,0-4.81,1C66.78,16.19,66.17,15.71,65.44,15.16Z"/><path class="cls-1" d="M73.26,10.54c-.18.68-.79.63-1.3.76a11.86,11.86,0,0,0-1.56.39,3.89,3.89,0,0,1-3.65-.49C67.69,10.28,72.37,9.8,73.26,10.54Z"/></g></g></svg>