<svg xmlns="http://www.w3.org/2000/svg" viewBox="0 0 154.43 154.78"><defs><style>.cls-1{fill:#f7931e;}</style></defs><title>資產 9</title><g id="圖層_2" data-name="圖層 2"><g id="圖層_1-2" data-name="圖層 1"><path class="cls-1" d="M0,132.41c1.86-.12,3.73-.34,5.59-.34q27.75,0,55.5,0c9.57,0,7.74.26,8-8.12.08-2.81,0-5.63,0-9.51H41.6c0-.55,0-1.11,0-1.66h29.8v18.6h20c0-5.13.12-10.25,0-15.35-.1-3.05,1.1-4.2,4.09-4.09,4,.14,8,0,12,.07,3,.08,4.21-1,4.11-4.1-.17-5.12,0-10.26,0-16,5.4,0,10.36-.14,15.3.05,3.3.13,5-.78,4.77-4.44-.23-3.82-.15-7.67,0-11.5.11-3-1-4.17-4.1-4.06-5.11.19-10.23,0-15.44,0V44.6l1.43-.08V69.46c5.91,0,10.84.24,15.7-.21,1-.08,2.33-2.85,2.34-4.39.18-15.83.12-31.67.12-47.5V0l1.93,0V91.55h18.5V29.48l1.62,0V94.14H134.12c0,5.44-.17,10.39.16,15.31.06.89,2.12,2.28,3.32,2.36,4.31.28,8.66.16,13,.08,2.7,0,3.86,1,3.84,3.81-.12,11.84,0,23.67-.17,35.5,0,1.2-1.47,3.4-2.29,3.41-13.28.22-26.57.16-40.42.16,0-5.76-.13-10.89,0-16,.12-3.28-1.19-4.26-4.38-4.35-13.49-.37-13.49-.46-13.54,13.14,0,2.15,0,4.3,0,6.58H21.12c0-.48-.05-1-.07-1.42,1.87-.11,3.74-.3,5.61-.3,19.67,0,39.33-.12,59,.06,4.14,0,5.91-.79,5.85-5.45-.18-12.53,0-12.52-12.66-12.54q-36.51,0-73-.12H.07C.05,133.7,0,133.06,0,132.41Zm151.89.75c0-5.16.15-10.32-.12-15.45-.06-1.17-1.46-3-2.52-3.25-13.06-2.6-15.19-.84-15.2,12.06v.5c-.08,7.37,1.85,7.45-7.45,7.46-13.44,0-13.37,0-12.88,13.72.11,2.9.88,4.23,4,4.2q15.19-.17,30.4,0c3.2,0,3.92-1.46,3.84-4.29C151.79,143.13,151.9,138.14,151.89,133.16Zm-29.16-39c-10.28.19-8.87-1.38-8.93,9.07,0,9.69-1.11,8.73,8.85,8.65,10.19-.08,8.91,1.35,8.93-9C131.59,93,132.65,94.3,122.73,94.2Zm8.84,37.67c0-5.4.19-10-.14-14.61-.07-1.05-1.82-2.69-3-2.86-13.9-2-14.86-1.14-14.7,12.62,0,.5-.2,1.16,0,1.47.94,1.19,2,3.14,3.07,3.23C121.46,132.08,126.08,131.87,131.57,131.87Zm-29-.09c.83,0,1.66,0,2.48,0,6.45.11,6.45.11,6.46-6.4,0-11.12,0-11.12-11.36-11.13-6.5,0-6.5,0-6.52,6.54,0,.66,0,1.33,0,2C93.81,133,92.27,131.66,102.61,131.78Z"/></g></g></svg>