<svg xmlns="http://www.w3.org/2000/svg" viewBox="0 0 154.43 154.78"><defs><style>.cls-1{fill:#f7931e;}</style></defs><title>資產 8</title><g id="圖層_2" data-name="圖層 2"><g id="圖層_1-2" data-name="圖層 1"><path class="cls-1" d="M154.36,134.35h-5.77l-73,.12c-12.71,0-12.49,0-12.66,12.54-.07,4.66,1.71,5.48,5.84,5.45,19.66-.18,39.33-.09,59-.06,1.87,0,3.74.19,5.61.3,0,.47,0,.94-.08,1.42H60.75c0-2.28,0-4.43,0-6.58,0-13.6,0-13.51-13.53-13.14-3.19.09-4.5,1.07-4.38,4.35.18,5.13.05,10.26.05,16-13.85,0-27.14.06-40.43-.16-.81,0-2.27-2.21-2.28-3.41C0,139.37.11,127.54,0,115.7c0-2.86,1.14-3.86,3.83-3.81,4.34.08,8.68.2,13-.08,1.2-.08,3.26-1.47,3.32-2.36.32-4.92.15-9.87.15-15.31H.71V29.5l1.63,0V91.55h18.5V0l1.93,0V17.36c0,15.83-.06,31.67.11,47.5,0,1.54,1.4,4.31,2.34,4.39,4.87.45,9.8.21,15.71.21V44.52l1.43.08V72c-5.21,0-10.34.14-15.45,0-3.06-.11-4.2,1.07-4.1,4.06.14,3.83.22,7.68,0,11.5-.23,3.66,1.46,4.57,4.77,4.44,4.94-.19,9.89-.05,15.3-.05,0,5.78.12,10.92,0,16-.1,3.06,1.15,4.18,4.1,4.1,4-.12,8,.07,12-.07,3-.11,4.19,1,4.09,4.09-.17,5.1-.05,10.22-.05,15.35H83v-18.6h29.8c0,.55,0,1.11,0,1.66H85.35c0,3.88-.06,6.7,0,9.51.22,8.38-1.6,8.13,8,8.12q27.75,0,55.49,0c1.87,0,3.73.22,5.6.34C154.4,133.06,154.38,133.7,154.36,134.35ZM2.49,148.11c-.09,2.83.64,4.32,3.83,4.29q15.21-.18,30.41,0c3.1,0,3.87-1.3,4-4.2.48-13.68.56-13.69-12.88-13.72-9.31,0-7.37-.09-7.45-7.46,0-.17,0-.33,0-.5,0-12.9-2.13-14.66-15.2-12.06-1,.21-2.45,2.08-2.51,3.25-.28,5.13-.12,10.29-.12,15.45C2.53,138.14,2.64,143.13,2.49,148.11Zm20.36-45.24c0,10.4-1.27,9,8.92,9,10,.08,8.91,1,8.85-8.65C40.56,92.82,42,94.39,31.7,94.2,21.78,94.3,22.84,93,22.85,102.87Zm14.7,28.85c1.11-.09,2.13-2,3.07-3.23.24-.31,0-1,0-1.47.17-13.76-.8-14.65-14.69-12.62-1.16.17-2.9,1.81-3,2.86-.33,4.59-.15,9.21-.15,14.61C28.34,131.87,33,132.08,37.55,131.72Zm23.2-8.93c0-.66,0-1.33,0-2,0-6.54,0-6.54-6.51-6.54-11.4,0-11.4,0-11.37,11.13,0,6.51,0,6.51,6.46,6.4.83,0,1.66,0,2.49,0C62.16,131.66,60.62,133,60.75,122.79Z"/></g></g></svg>