<svg xmlns="http://www.w3.org/2000/svg" viewBox="0 0 128 6.47"><defs><style>.cls-1{fill:#f8a13b;}</style></defs><title>資產 14</title><g id="圖層_2" data-name="圖層 2"><g id="圖層_1-2" data-name="圖層 1"><path class="cls-1" d="M128,4.57c.07-.18,0-.57-.15-.49l-.14.66Z"/><path class="cls-1" d="M126.72,3.34a2,2,0,0,0-.33,1.49c.22-.63.27-.37.51-1.12.18-.08.32.21.29.45.06-.17.29.15.39-.27-.24-.51-.55-.53-.87-.11C126.64,3.64,126.71,3.46,126.72,3.34Z"/><path class="cls-1" d="M108.58,2.31l.11.08A.17.17,0,0,0,108.58,2.31Z"/><path class="cls-1" d="M97.33,1.94a.14.14,0,0,0,.13-.14C97.38,1.85,97.32,1.89,97.33,1.94Z"/><path class="cls-1" d="M95.42,1.22l.11,0C95.49,1.2,95.44,1.17,95.42,1.22Z"/><path class="cls-1" d="M108.58,2.31l-.3-.21C108.26,2.32,108.43,2.26,108.58,2.31Z"/><path class="cls-1" d="M124.22,4.94a.47.47,0,0,0,.16-.18.51.51,0,0,1-.15.07A.41.41,0,0,1,124.22,4.94Z"/><path class="cls-1" d="M113.53,1.77h.09a1.46,1.46,0,0,0,.08-.27Z"/><path class="cls-1" d="M117.34,1.67c-.09,0-.12.54-.15.78,0-.23.11-.34.19-.38A2.15,2.15,0,0,0,117.34,1.67Z"/><path class="cls-1" d="M123.37,2.66l.11-.08Z"/><path class="cls-1" d="M110.81,1.65c0-.08,0-.16,0-.2A.64.64,0,0,0,110.81,1.65Z"/><path class="cls-1" d="M4.43,5.87v-.1C4.4,5.83,4.4,5.87,4.43,5.87Z"/><path class="cls-1" d="M0,3.09l.06,0c0-.11,0-.21,0-.31Z"/><path class="cls-1" d="M91.9.5h0C92,.44,92,.45,91.9.5Z"/><path class="cls-1" d="M59.65.91c.37.5-.59.65,0,1.2C59.56,1.89,60.11,1.24,59.65.91Z"/><path class="cls-1" d="M124.12,4.86H124A.18.18,0,0,0,124.12,4.86Z"/><path class="cls-1" d="M59.61,2.11h0l0,0Z"/><path class="cls-1" d="M83.81.83a.82.82,0,0,0,.08.25A.57.57,0,0,0,83.81.83Z"/><path class="cls-1" d="M89.84,1.63l-.15-.07A.25.25,0,0,0,89.84,1.63Z"/><path class="cls-1" d="M80.68,1.63c-.08,0-.11-.12-.22,0l0,.07C80.53,1.57,80.58,1.54,80.68,1.63Z"/><path class="cls-1" d="M77.42,1.63l.06.11.1,0Z"/><path class="cls-1" d="M14.33,5.6a2.64,2.64,0,0,1-.15-.5C14.23,5.5,13.75,5.64,14.33,5.6Z"/><path class="cls-1" d="M124.22,4.62c0,.14,0,.21-.1.24a.2.2,0,0,0,.11,0A.47.47,0,0,0,124.22,4.62Z"/><path class="cls-1" d="M80.54,6.06,80,6A1.6,1.6,0,0,0,80.54,6.06Z"/><path class="cls-1" d="M37.71,5.52l-.12.07S37.68,5.59,37.71,5.52Z"/><path class="cls-1" d="M78.49,6.06a1,1,0,0,0-.29-.39.52.52,0,0,0-.06.15Z"/><path class="cls-1" d="M14.18,5.09h0Z"/><path class="cls-1" d="M10.77,6.43c.49,0,.23-.72.34-1.15.58-.21.27.55.47.92.37-.19.65-.87.92-.84,0,.12.08.16,0,.32.39-.59,1.16,0,1.61-.77a.94.94,0,0,1,.06.18,4.11,4.11,0,0,1-.07-1c.22,0,.41-.47.49,0-.13,0-.14.18-.21.33l.23-.21c.21.69-.31.24-.31.75.45-.22,1-.8,1.32-.6.08.68-.81.23-.34.83l-.54-.26c.41,1.07-.33-.08.05,1.07.71.2.79-.34,1.49-.15.16-.37-.05-.56.11-.93,1-.68.79,1.71,1.52.8.19-.45.26-1.31.79-.86l-.18.77c.68.08.39-1.1,1.1-.59-.12.31-.53.26-.43.35.46.61.33-.44.68-.44l.08.68c.72-.1,1.53-.59,2.33-.72,0,.2-.18.42,0,.62A4.77,4.77,0,0,1,25.44,6l.38-.59c.08,0,.16.27.06.38.39.23,0-.37.21-.6.21,0,.28.34.15.51.67-.49,1.91-1.07,2.62-.44l-.13.17c.55.24.62-1.2,1.13-.65l-.1.1c1.2.26,2.53-.28,3.44.61.18-.85,1.19.37,1.27-.81.68.59.49.8,1.45,1.19.26.06.38-.73.7-.86v.62L37.06,5l.23.74.3-.16a.48.48,0,0,1-.23-.45c.46-.28,1.13.43,1.14.74l1.11-.52c0,.25-.21.33-.36.49.59-.63.11.65.65.07-.07-.13,0-.36.05-.49a1.19,1.19,0,0,0,1.34.22l-.09.43a25.35,25.35,0,0,0,2.64-.2c-.33-.2-.25-.93,0-1l.11.65c.17-.41-.28-.25.07-.74.35.07.23.74,0,1l.41-.23c0,.2-.07.3-.1.55.18-.4.72.65,1,0l0,.2c.91,0,1.33-.22,2.08-.26,0-.56.31-.43.53-.89a5,5,0,0,0,1.82.58c.47-.28.14-.48.35-.81,0,.51.69.46.35.83a5.47,5.47,0,0,0,2-.52c-.11-.21-.23-.3-.17-.48s.42.22.39.46l0,.06c1.13-.77,2.61,1.49,3.51.42l0,.06.93-.56c.43.09-.26.38.06.7,1-.85,1.59.12,2.41-.44.65,1.51,2.28-.11,3.14.85l-.05-.35c.23-.35.27.2.44.28,0-.27-.24-.32-.1-.51,1.89-.43,3.91.52,5.85.84.71.1.4-1.84,1.3-1l-.26.66c1.43-.79,2.93,0,4.33-.64-.08.15-.08.35-.22.34.3.48,1.1,0,1.1-.37.22,0,.05.36.19.56.3.28.74-.61.9-.14,0,.08-.08.16-.14.2.2-.24.91.06.72-.5.53.27,1-.25,1.43.08.27-.62.9.3,1-.57,0,.9.92.73,1.25.3-.11.27.29.28.16.66.38,0,.73-.18.66-.64.7,1.08,1.41-.88,1.81.51a17.46,17.46,0,0,1,3.18-1c0,.91-1.12.09-1.07,1,1-.37,1.51-1.14,2.47-.93.25.13-.14.39-.22.55,1-.37,1.86.08,2.71-.41,0,.08-.09.18-.18.24.17,0,.39.14.37-.27l-.16.11c-.27-.6.67-1.25.7-1.56-.29,1.18.85.3.39,1.78a.62.62,0,0,0,.23-.55c.16.08.21.25,0,.56.61-.23.39-.66.94-.65,0,.2-.11.27-.17.51.28-.39.56-.78,1-.61,0,.12,0,.27-.11.27.79-.06,1.35-1,2.23-.65-.26.86.29.28.34,1l.47-.23-.19-.36c.41,0,.77-.53,1.13-.29l-.31.31.77-.14-.43-.28c.41-.39,0-1,.5-.74-.11.08.41,0,.62.45h0c.2-.24.41-.49.72-.3.08.24-.07.82,0,1,.21-.62,1-.17,1.22-.84a1.31,1.31,0,0,0-.06.63l.17-.5c.19.16.22.24.18.55.58.09-.18-.95.5-.54,0,0,0,.12-.14.19.69.22,1.32-.32,2-.07.18.75-.55.19-.34.82.91-.14,1.87-.9,2.75-.72l-.16-.09c.12-1.06.65.53,1.09,0-.11.08-.14.59-.11.47.6.17,1.22-.26,2.13-.6l-.11.28c.35.24.93.14,1.31.26.11-.27.33-.23.2-.62,1.17,1.55,2.24-.84,3.28.46-.12,0-.3.24-.2.24l.89-.25c-.07-.47-.12-.28-.3-.64a.72.72,0,0,1,.58-.49c-.4.31,0,.74.18,1,0-.14,0-.3,0-.44.47.82.08-.93.72-.38l0,.24c.24-.12.46-.44.71-.37.11.53-.25.25-.27.69.36,0,.71-1,1-.48-.15.15-.37.15-.53.3.36.62.4.47.66.57l0,0,.6.29-.15-.17c.45-1.4.91-.26,1.52-1.17-.59.86-.1.5-.14,1.1.15.17.39.36.32.53.29-.49.48.38.88-.33,0,.19.31,0,.24.51.38-.15-.08-.34,0-.58.57-.67,1.35.8,2.17-.11.71-.38.84-1,1.5-1.36.23.31-.18.71-.18.71a.71.71,0,0,0,1,0c-.07.17,0,.31.1.53.28-.05.19-.71.55-.42a4.06,4.06,0,0,1-.28.78c.32-.18.64-.54,1-.72.09.34-.2.52-.32.74.38-.15,1-.31,1.09-.84l-.24-.2c.13,0,.07.47,0,.56-.32.43-.46-.18-.48-.38l.23-.12c-.24-1.15-.94.18-1.42.11l.2-.83-.49.69c-.1-.21-.17-.68.06-.8-.34-.41-.3.29-.59-.17a.1.1,0,0,1,0-.14l-.33.25c.06-.18-.06-.59.14-.47-.59-.48-1,.62-1.18,0l0-.05c-.83.28-.08.61-.71,1.33l-.42-1.51-.08.61a.25.25,0,0,1-.22-.31c-.32.42,0,.27-.13.66-.41-.55-1.14.26-1.23-.71-.15.46.39.36-.05.68-.12-1-.5.18-.88-.3.12-.54.47-.25.1-.74-.23.92-.74-.2-1.05,0,0,.72-.69.3-1.23.54,0-.24-1-.4-1.49-.66V1.83c-.1.73-.61.59-1,.75a1,1,0,0,1,.28-.81h-.35a.61.61,0,0,1-.41.44l.08-.54c-.46,0-.93.64-1.53.27,0,.52.47,1.43-.16,1.77,0-.27,0-.75.12-.86,0,0-.19.23-.3.11l.25-.46c-.27-.21-.14.38-.36.34,0-.39-.16-.28-.13-.59,0,0,.19.16.27,0a1,1,0,0,1-.64-.6c0,.22,0,.53-.18.58-.46,0-.16-.47-.43-.67-.11.27-.41,0-.42.58-.13,0-.16-.28-.21-.44-.24.26-1.13.07-.86.7l.07,0s0,0,0,0h0c-.79.58-1.64-.34-2.43-.09V2.19c-.46.22-1,.13-1.37.56-.14,0-.33-.37-.27-.6-.36.15-.4.37-.91,0,.36-.34-.13-.3.37-.25-.47-.17-.57-.48-1.07.05a.39.39,0,0,0-.57-.48l.32.36a1.42,1.42,0,0,1-.68,0l.12-.67c-1-.81-1.72,1.38-2.44,0-.25.47.51.33.29.88-.44-.09-.89-1-1-1-.6-.37-.56,1-1.19.72.08.24.16.87-.31,1.09-.44-.08-.54-1-.26-1.18a.12.12,0,0,1,.15.13c.14-.08.33-.18.15-.44l0,.24c-.22-.25-.82-.22-.68-.61-.33.23-.14.39.1.51-.56-.34-.87,0-1.45-.24.09.13.17.41.08.41-.84-.3-.37.45-.94.55-.33-.36.11-.86-.47-.56-.35-.24-.07-.63.07-.82-.53.46-1-.3-1.28-.39l.27-.19a.63.63,0,0,1-.44.11L93,.85c-.16-.09-.3-.09-.3-.29-.16.31.13.79-.2,1.22-.22-.24-.66.26-.74-.37.69.21-.07-.64.51-.74a.38.38,0,0,1-.42,0A.16.16,0,0,1,91.9.5c-.65-.57-.3.71-1,.69C91,.84,90.77.52,90.66.6c.27,0,.13.59-.12.86-.44-.28-.47.21-.7.17l.26.13c-.09.36-.31.31-.61.42,0-.27.27-.19.17-.31-.34.63-.76-.64-1.23-.22-.22-.25,0-.67-.21-.83-.53.46-.57-.49-1.12-.11.16.48.18.36-.21.83l.91-.34-.58.69c.27,0,.58-.3.74-.22-.28.39-.25.27-.12.67-.37-.71-.74.42-1.17-.07V1.09c-.65-.52-1.16.61-2,.31l.27.21c-.11.47-.52.06-.8.25,0-.39-.14-.53-.26-.78,0,.29-.62,0-.7.76l-.37-.52c-.69-.21-.78,1.13-1.44,1,.2-.43-.1-.71.34-1-.22,0-.42-.08-.42.19-.13-.24-.61.53-.81.16-.09.17-.12.59-.37.55a.55.55,0,0,1,0-.19c0,.19-.38.26-.17.7-.67-1.23-1.88.09-2.47-1A7.81,7.81,0,0,1,76,2c0-.12,0-.2.08-.15-.6-.37-.37,1.13-1,.72-.34-.64.36-.35.15-.59-.1-1.3-.82.18-1.28-.58L74,1.35c-.35-.44-.86.5-1.43.4a.37.37,0,0,0,0-.19,2.76,2.76,0,0,1-1.68,1.06c.17-.5.25-.27.14-.78-.24.07.08.83-.42,1-.16-.28-.51-.52-.56-1.07l.46,0c-.23-.71-.6,0-.84-.1l0-.31c-.71.1-.72.89-1.49.83l.08.23c-.42.78-.35-.43-.77.15l-.13-.79a6.33,6.33,0,0,1-1.46.91c.28-.59.86-.89,1.22-1.23-.27,0-.93.05-1.07.44.11-.07.25-.27.36-.14a1.47,1.47,0,0,1-1.33.91c.1-1.53-1.42-.39-1.82-1.58-1,.57-1.91-.24-3-.15.4,1.19-.32,0-.26,1.26-.26.08-.36.06-.38,0l-.79-.73c-.19-.36.24-.27.22-.55C58.47.75,58.8.33,58.42,0c.08.44-.2.63-.53.46l.46.56c-.8.65-.69-1-1.5-.38l.26-.38c-.42.22-1.53,0-1.94,1-.07-.14-.17-.47,0-.56-1-.15-2.21,1-3,.44l.07-.3c-.18.09-.32.56-.55.26,0-.12.08-.3,0-.32s-.49.53-.74.35l.21-.33c-1-.39-1.48.82-2.29,1A1.44,1.44,0,0,0,47.76.48l0-.12c-1.13-.11-1.92.73-3,1.07C44.18.48,42.63,1,41.59.5c.16.16,0,.68-.21.77-.24-.18-.67.61-.64-.19h.09c-.18-.79-.68-.58-1.07-.6l-.07,1.05C38.67,0,37,2.11,36.45.73c-.25.27-.56.26-.8.53V.69A4.11,4.11,0,0,0,33.79.61L34,.21c-.47,0-.6,1.63-1,1.66L32.79,1c-.84,0-1.68-.73-2.5,0,0-.12,0-.36.17-.4-.39,0-1.51-.57-1.37.59,0-.76-.86-.07-1.31.26L27.85,1c-.38.71-.39.91-.92,1.11-.13-.08-.11-.45.05-.31-.42-.29-.32.53-.83.23l.19-.35c-.43,0-.4.14-.64.56-.27.22-.81-.14-.88-.65-.05.31-.29.72-.54.58a.41.41,0,0,1,.1-.37c-.72-.38-1.07.65-1.57.1a.64.64,0,0,0-.08-.33,3.31,3.31,0,0,1,1,.08c0-.51-.46-.6-.09-1.31-.37.39-1,1.23-1.46,1a1.25,1.25,0,0,1-.06-.18L22.16,1c-.11-.05-.2,0-.29.09A.75.75,0,0,0,21.5,1C21.45.55,21,.74,20.74.72c0,.56-.28.47,0,.94,0,0,0-.07.2-.09s.07,0,.09-.06a.43.43,0,0,0,0,.05l.57,0c-.18.29-.37.53-.63.21a8,8,0,0,1-.32.91c-.31-.78-.92-1.21-1-1.69-.7.32-1.65.21-2.1,1.26-.2.14-.23-.3-.3-.46.11-.11.25-.09.32-.25-.4.27-1.19.11-1.29.85-.5-.34.29-.68-.41-.56l.1-.23c-1.36-1.18-2.22,1.89-3.73.37a.38.38,0,0,1,.18.26c-1.72-.67-3.55.63-5.25-.43-.48-.21-.54.26-.83.62l-.1-.61-.51.7C5,3,4.47,1,3.57,2l.11.41c-.32-.08-1,.24-1-.23,0,.07-.11.42-.24.21V2l-.8.55c-.62-.23.09-1.26-.81-1.32-.34.12-1,.92-.83,1.13a.52.52,0,0,1,.36.52l-.31.16C0,4-.21,4.94.54,5.6L1.07,5l.17.45-.45,0c.25.42.41,0,.59-.21a.8.8,0,0,0,.22.49l.52-.89c.06.37-.23.73.11.93C2.47,5.42,2,5,2.4,4.74c.25.42.18.77.47.41a.53.53,0,0,1-.13.5c.26-.29.69-.13.83-.62.26.52.88-.14.86.74.08-.21.46-.69.7-.72-.44,1,.9.06.79,1.19.32-1,1.17-.42,1.75-1,0,.08-.09.23-.14.18.32.08.42.37.62.55,0-.79.55-1,.82-1.45.4.76-.24.92-.11,1.65,0-.64.69-.64.55-1.17.31.47.27.23.42.88.06-1,.29-.17.54-.77.44.48.11.92.6.62C11.2,6.08,10.77,6.43,10.77,6.43Zm11.52-1.7v0l-.24,0Zm1,0a1.8,1.8,0,0,0-.42,0c0-.19,0-.39.1-.38C22.89,4.45,23.12,4.56,23.26,4.73ZM21.21.83c.15-.08.21,0,.23.15a.78.78,0,0,0-.27.06s0,.05,0,.07A1.49,1.49,0,0,1,21.21.83Z"/><path class="cls-1" d="M20.94,1.57l-.07,0a.62.62,0,0,0,.09.12L21,1.56Z"/><path class="cls-1" d="M108.71,2.4h0a.16.16,0,0,1,0,.08A.36.36,0,0,1,108.71,2.4Z"/><polygon class="cls-1" points="36.63 5.8 36.63 5.66 36.55 5.78 36.63 5.8"/><path class="cls-1" d="M114.05,4.33a.27.27,0,0,0,.07.14Z"/><path class="cls-1" d="M116.35,4.46l.33.2A1.05,1.05,0,0,0,116.35,4.46Z"/><path class="cls-1" d="M118.12,4.73a1.2,1.2,0,0,0,0-.24h0Z"/><path class="cls-1" d="M90,5.39s0,0-.07,0S89.84,5.49,90,5.39Z"/><path class="cls-1" d="M98.34,4.08a2.29,2.29,0,0,1-.27.27C98.22,4.39,98.34,4.4,98.34,4.08Z"/><path class="cls-1" d="M80.6,6.07h0Z"/><path class="cls-1" d="M97.68,4.34a.32.32,0,0,0,.39,0A.41.41,0,0,0,97.68,4.34Z"/><path class="cls-1" d="M125.8,5l.09,0a.13.13,0,0,1,0-.09Z"/><path class="cls-1" d="M125.9,4.92l.09-.06S125.91,4.86,125.9,4.92Z"/><path class="cls-1" d="M126.19,4.71l-.2.15C126.06,4.86,126.14,4.87,126.19,4.71Z"/><path class="cls-1" d="M123.46,4.73l0,.2A1.46,1.46,0,0,0,123.46,4.73Z"/><path class="cls-1" d="M122.74,4.79c.17,0,.43.43.67.31l0-.17C123.32,5.24,122.9,4.44,122.74,4.79Z"/><path class="cls-1" d="M119.77,2.27l.6.16c-.11-.22-.25-.51,0-.56C119.64,1.22,120.55,2.36,119.77,2.27Z"/><path class="cls-1" d="M117.92,2c.32-.1,0-.31,0-.44C117.73,1.71,117.68,1.76,117.92,2Z"/><path class="cls-1" d="M104.54,2l0-.51C104.32,1.51,104.57,1.64,104.54,2Z"/><polygon class="cls-1" points="101.98 4.59 102.22 4.91 102.33 4.44 101.98 4.59"/><polygon class="cls-1" points="100.47 0.95 100.58 0.88 100.16 1.06 100.47 0.95"/><path class="cls-1" d="M78,1.13l.07.63C78.24,1.65,78.27.94,78,1.13Z"/><path class="cls-1" d="M68.3,1.77c-.11-.31-.38-.51-.55-.2C68,1.61,68.19,1.86,68.3,1.77Z"/><polygon class="cls-1" points="39.2 0.75 39.4 0.54 39.03 0.71 39.2 0.75"/></g></g></svg>