<svg xmlns="http://www.w3.org/2000/svg" viewBox="0 0 46.58 3.24"><defs><style>.cls-1{fill:#f8a13b;}</style></defs><title>資產 15</title><g id="圖層_2" data-name="圖層 2"><g id="圖層_1-2" data-name="圖層 1"><path class="cls-1" d="M46.57,2.28c0-.08,0-.28-.06-.24l0,.33Z"/><path class="cls-1" d="M46.12,1.67a1.2,1.2,0,0,0-.12.75c.07-.32.09-.19.18-.57.07,0,.12.11.1.23,0-.08.11.07.15-.13s-.2-.27-.32-.06A.54.54,0,0,1,46.12,1.67Z"/><path class="cls-1" d="M39.51,1.15l0,0A.08.08,0,0,0,39.51,1.15Z"/><path class="cls-1" d="M35.42,1a.08.08,0,0,0,0-.07S35.41.94,35.42,1Z"/><path class="cls-1" d="M34.72.61l0,0S34.73.58,34.72.61Z"/><path class="cls-1" d="M39.51,1.15l-.11-.1C39.4,1.16,39.46,1.13,39.51,1.15Z"/><path class="cls-1" d="M45.2,2.47a.15.15,0,0,0,.06-.09.1.1,0,0,1,0,0A.11.11,0,0,1,45.2,2.47Z"/><path class="cls-1" d="M41.32.89h0l0-.14Z"/><path class="cls-1" d="M42.7.83s0,.27-.05.4a.38.38,0,0,1,.06-.2A1.64,1.64,0,0,0,42.7.83Z"/><path class="cls-1" d="M44.89,1.33l0,0Z"/><path class="cls-1" d="M40.33.83s0-.08,0-.11A.43.43,0,0,0,40.33.83Z"/><path class="cls-1" d="M1.61,2.94v0S1.6,2.94,1.61,2.94Z"/><path class="cls-1" d="M0,1.55l0,0V1.37Z"/><path class="cls-1" d="M33.44.25h0S33.46.23,33.44.25Z"/><path class="cls-1" d="M21.71.46c.13.25-.22.32,0,.6C21.67,1,21.87.62,21.71.46Z"/><path class="cls-1" d="M45.17,2.43h0Z"/><path class="cls-1" d="M21.69,1.06h0l0,0Z"/><path class="cls-1" d="M30.5.42a.42.42,0,0,0,0,.12A.41.41,0,0,0,30.5.42Z"/><path class="cls-1" d="M32.69.82l0,0Z"/><path class="cls-1" d="M29.36.81s0-.06-.08,0,0,0,0,0S29.33.77,29.36.81Z"/><path class="cls-1" d="M28.17.81s0,0,0,.06h0Z"/><path class="cls-1" d="M5.22,2.8a1,1,0,0,1-.06-.25C5.18,2.75,5,2.82,5.22,2.8Z"/><path class="cls-1" d="M45.2,2.31q0,.1,0,.12h0A.37.37,0,0,0,45.2,2.31Z"/><path class="cls-1" d="M29.31,3l-.19,0A.41.41,0,0,0,29.31,3Z"/><path class="cls-1" d="M13.72,2.76l0,0S13.71,2.79,13.72,2.76Z"/><path class="cls-1" d="M28.56,3a.46.46,0,0,0-.1-.19.14.14,0,0,0,0,.07Z"/><path class="cls-1" d="M5.16,2.55Z"/><path class="cls-1" d="M3.92,3.21c.18,0,.08-.36.12-.57.22-.1.1.27.17.46.14-.1.24-.44.34-.42a.22.22,0,0,1,0,.16c.14-.3.42,0,.59-.38a.29.29,0,0,1,0,.09,3.27,3.27,0,0,1,0-.51c.09,0,.15-.23.18,0,0,0,0,.09-.07.16l.08-.1c.08.35-.11.12-.11.38.16-.12.35-.4.48-.31,0,.34-.3.12-.13.42l-.19-.13c.15.54-.12,0,0,.54.25.09.28-.18.54-.08.06-.19,0-.28,0-.47.36-.34.28.86.55.41.07-.23.1-.66.29-.43l-.07.38c.25,0,.14-.55.4-.29,0,.15-.19.12-.15.17.17.3.12-.22.25-.22l0,.34c.27,0,.56-.3.85-.36,0,.1-.06.21,0,.31A1.3,1.3,0,0,1,9.26,3l.13-.3s.06.13,0,.19c.14.11,0-.18.07-.3s.11.17.06.26c.24-.25.7-.54.95-.22l-.05.08c.2.12.23-.6.42-.33l0,.06c.44.12.92-.15,1.25.3.07-.42.43.19.46-.4.25.29.18.39.53.59.1,0,.14-.37.26-.43v.31l.16-.32.08.37.11-.08a.33.33,0,0,1-.09-.23c.17-.14.42.21.42.37l.4-.26a.43.43,0,0,1-.13.25c.22-.32,0,.32.24,0a.48.48,0,0,1,0-.24.36.36,0,0,0,.48.11L15,3a6.66,6.66,0,0,0,1-.1c-.11-.1-.09-.47,0-.5l0,.32c.06-.2-.1-.12,0-.37.12,0,.08.37,0,.48l.15-.11c0,.09,0,.15,0,.27.06-.2.26.33.35,0V3.1A6.56,6.56,0,0,0,17.27,3c0-.28.12-.22.2-.45.2.09.42.31.66.29s.05-.24.13-.41c0,.26.25.23.12.42a1.53,1.53,0,0,0,.74-.26c0-.11-.08-.15-.06-.24s.15.11.14.23l0,0c.41-.39.95.75,1.28.21l0,0,.34-.28c.15,0-.1.19,0,.35.37-.43.58.06.88-.22.23.75.83-.06,1.14.43l0-.18c.09-.18.1.1.16.14,0-.14-.09-.16,0-.26.69-.21,1.43.27,2.13.43.26,0,.15-.93.48-.5l-.1.33c.53-.4,1.07,0,1.58-.32,0,.07,0,.17-.08.17.11.24.4,0,.4-.18.08,0,0,.17.07.27s.27-.3.33-.06c0,0,0,.07-.05.09s.33,0,.26-.24c.19.13.36-.13.52,0,.1-.31.33.15.36-.29,0,.45.33.36.45.15,0,.14.11.14.06.33.14,0,.27-.09.24-.32.26.54.51-.44.66.26a4.84,4.84,0,0,1,1.16-.52c0,.45-.41,0-.39.52.35-.18.55-.57.9-.46.09.06,0,.19-.09.27.35-.19.68,0,1-.2a.23.23,0,0,1-.06.12c.06,0,.14.06.13-.14l-.06,0c-.09-.29.25-.62.26-.77-.11.58.31.14.14.89a.37.37,0,0,0,.08-.28c.06,0,.08.12,0,.28.22-.11.14-.33.34-.33a1.58,1.58,0,0,1-.06.26c.1-.2.2-.39.37-.31,0,.06,0,.14,0,.14.29,0,.49-.51.81-.33-.09.43.11.14.12.52L35,2.57,35,2.39c.15,0,.28-.27.41-.15l-.11.16.28-.07-.16-.15c.15-.19,0-.47.18-.37,0,0,.15,0,.23.23h0c.07-.12.15-.24.26-.15s0,.41,0,.49c.08-.31.35-.09.45-.42a.75.75,0,0,0,0,.32L36.52,2c.07.08.08.12.07.28.21.05-.06-.47.18-.27,0,0,0,.06-.05.1.25.1.48-.16.71,0,.07.38-.2.09-.12.41.33-.07.68-.45,1-.36l-.06,0c0-.53.24.26.4,0a.51.51,0,0,0,0,.23c.21.09.44-.13.77-.29l0,.13c.13.12.34.07.48.13,0-.13.12-.11.07-.31.43.78.82-.41,1.2.23-.05,0-.11.12-.08.12l.33-.12c0-.23-.05-.14-.11-.32s.13-.25.21-.25c-.15.16,0,.38.06.5a1.7,1.7,0,0,1,0-.22c.17.41,0-.46.26-.18v.12c.08-.07.16-.23.25-.19,0,.27-.09.12-.09.34.13,0,.25-.5.37-.24,0,.08-.13.08-.19.15.13.32.15.24.24.29h0l.22.14,0-.08c.16-.7.33-.13.55-.59-.21.44,0,.25,0,.56,0,.08.14.17.12.26.1-.24.17.19.32-.16,0,.09.11,0,.08.25.14-.08,0-.17,0-.29.21-.34.49.4.8-.06.25-.18.3-.51.54-.68a.41.41,0,0,1-.06.36c.13.14.23.12.35,0a.38.38,0,0,0,0,.27c.1,0,.06-.35.19-.21a1.86,1.86,0,0,1-.1.39c.12-.09.24-.27.36-.36,0,.17-.08.26-.12.37.14-.08.35-.15.39-.42l-.08-.1s0,.23,0,.28c-.12.21-.17-.09-.18-.19l.09-.06c-.09-.57-.35.09-.52.06l.07-.42-.18.35c0-.11-.06-.34,0-.41-.13-.2-.11.15-.22-.08a.08.08,0,0,1,0-.07l-.12.12c0-.08,0-.29.06-.23-.22-.24-.35.31-.43,0v0c-.3.14,0,.31-.25.66L44,1.1l0,.31s-.1,0-.09-.16c-.11.21,0,.13,0,.33-.15-.28-.42.13-.45-.36,0,.24.14.18,0,.34,0-.52-.18.09-.32-.15,0-.27.17-.12,0-.36-.09.45-.27-.1-.39,0,0,.37-.25.16-.44.28,0-.13-.37-.2-.55-.33V.91c0,.37-.22.3-.36.38a.61.61,0,0,1,.11-.41h-.13a.33.33,0,0,1-.15.22l0-.28c-.17,0-.34.33-.56.14,0,.26.17.72-.06.89a.83.83,0,0,1,0-.44s-.07.12-.11.06l.09-.23c-.1-.1,0,.19-.13.17,0-.2-.06-.14,0-.3s.07.08.1,0a.46.46,0,0,1-.23-.3c0,.11,0,.26-.07.29S40.2.88,40.1.78c0,.13-.15,0-.15.29-.05,0-.06-.14-.08-.22-.08.13-.41,0-.31.35l0,0s0,0,0,0h0c-.29.3-.6-.16-.88,0v-.1c-.17.12-.38.07-.5.28,0,0-.12-.18-.1-.29-.13.07-.14.18-.33,0,.13-.18,0-.16.13-.13-.17-.08-.2-.24-.39,0,.07-.26-.12-.32-.2-.25l.11.19a.43.43,0,0,1-.25,0L37.21.6c-.35-.41-.63.68-.89,0-.09.23.19.16.11.43-.16,0-.33-.52-.38-.52-.22-.18-.2.49-.43.36,0,.12.06.43-.11.55-.16-.05-.2-.5-.1-.6s.06,0,.06.07a.15.15,0,0,0,.05-.22l0,.12c-.08-.12-.3-.11-.24-.31-.13.12-.06.2,0,.26-.2-.17-.32,0-.53-.12,0,.07.07.2,0,.2-.3-.14-.13.23-.34.28-.12-.18,0-.43-.17-.28-.13-.12,0-.31,0-.41-.2.23-.36-.15-.47-.19l.1-.1a.19.19,0,0,1-.16.06l.06.23c-.06,0-.11,0-.11-.14-.06.16.05.4-.08.61-.08-.12-.24.13-.26-.19.24.11,0-.31.18-.36a.12.12,0,0,1-.15,0,.11.11,0,0,1,0-.08c-.23-.28-.11.35-.35.35,0-.18-.06-.34-.1-.3s0,.29,0,.43c-.16-.14-.17.1-.26.09l.1.06c0,.18-.11.16-.22.21,0-.14.1-.09.06-.15-.13.31-.28-.33-.45-.12-.08-.12,0-.33-.08-.41-.19.23-.2-.25-.41-.06.06.24.07.19-.07.42L32,.6,31.74,1c.1,0,.21-.15.27-.11-.1.19-.09.13,0,.33-.14-.36-.27.21-.43,0V.55c-.23-.27-.42.3-.73.15l.1.1c0,.24-.19,0-.29.13a.8.8,0,0,0-.09-.39c0,.15-.23,0-.25.38L30.14.66c-.25-.11-.29.56-.52.5.07-.22,0-.36.12-.51-.08,0-.15,0-.15.1-.05-.13-.23.26-.3.08,0,.08,0,.29-.13.27a.31.31,0,0,1,0-.1c0,.1-.14.14-.06.36-.25-.62-.69,0-.91-.49a2.31,2.31,0,0,1-.54.15c0-.06,0-.1,0-.08-.21-.19-.13.56-.38.36s.13-.17.05-.29c0-.65-.3.08-.46-.29l0,0c-.13-.22-.31.24-.52.2a.31.31,0,0,0,0-.1,1,1,0,0,1-.61.53c.06-.25.09-.13.05-.39-.09,0,0,.41-.15.49a1.26,1.26,0,0,1-.21-.54l.17,0c-.09-.35-.22,0-.31,0V.65c-.26,0-.26.44-.54.41l0,.12c-.15.39-.13-.22-.28.07l0-.39a2.74,2.74,0,0,1-.54.45A2.19,2.19,0,0,1,24.44.7c-.1,0-.34,0-.39.22,0,0,.09-.13.13-.07-.13.31-.29.46-.49.45,0-.76-.51-.19-.66-.78-.35.28-.69-.12-1.1-.08.14.6-.12,0-.1.63-.09,0-.13,0-.14,0L21.4.69c-.07-.17.09-.13.09-.27-.21,0-.09-.26-.23-.42,0,.22-.07.31-.19.23l.17.28C20.94.84,21,0,20.69.32l.09-.19c-.15.11-.55,0-.7.49,0-.07-.06-.24,0-.29-.36-.07-.8.53-1.08.22L19,.4c-.07,0-.12.29-.2.14s0-.15,0-.16-.18.26-.27.17l.08-.17c-.35-.19-.54.41-.83.52a.68.68,0,0,0-.42-.66V.18c-.41-.06-.7.36-1.08.54-.23-.48-.8-.2-1.17-.47a.45.45,0,0,1-.08.39c-.09-.09-.25.3-.23-.1h0c-.07-.4-.25-.3-.39-.31l0,.53c-.37-.77-1,.28-1.18-.4-.09.13-.2.13-.29.26V.35a1,1,0,0,0-.68,0L12.36.1c-.17,0-.22.82-.38.84L11.93.51c-.3,0-.61-.36-.91,0,0-.06,0-.18.07-.2-.15,0-.56-.29-.5.29,0-.37-.32,0-.48.13l0-.27C10,.83,10,.93,9.8,1s0-.23,0-.15c-.15-.15-.12.26-.3.11L9.58.81c-.15,0-.14.08-.23.28S9.06,1,9,.77c0,.16-.1.36-.2.29a.29.29,0,0,1,0-.18c-.26-.19-.39.32-.57.05a.29.29,0,0,0,0-.17c.21,0,.38,0,.36,0,0-.25-.17-.3,0-.65-.14.19-.37.61-.53.49a.24.24,0,0,1,0-.09v0S8,.52,8,.56A.23.23,0,0,0,7.82.49c0-.22-.19-.12-.27-.13,0,.28-.11.24,0,.47,0,0,0,0,.07,0s0,0,0,0v0l.21,0C7.79.9,7.72,1,7.63.87c0,.18-.09.36-.12.45C7.4.93,7.18.72,7.15.48c-.26.15-.61.1-.77.63C6.31,1.17,6.3,1,6.27.87s.09,0,.11-.12c-.14.14-.43.05-.46.42C5.74,1,6,.83,5.77.89l0-.11C5.31.19,5,1.72,4.45,1a.18.18,0,0,1,.06.13C3.89.76,3.22,1.41,2.6.88c-.17-.11-.19.13-.3.31l0-.3-.18.34C1.82,1.49,1.63.49,1.3,1l0,.2c-.12,0-.37.12-.35-.12,0,0,0,.22-.09.11V1l-.29.27C.38,1.17.64.66.31.63a.87.87,0,0,0-.3.56s.13.1.13.26L0,1.53C0,2-.08,2.47.2,2.8l.19-.29.06.23H.29c.09.22.15,0,.21-.1a.56.56,0,0,0,.08.25l.19-.45c0,.18-.08.36,0,.46.09-.2-.08-.4.06-.54.1.21.07.38.18.2A.35.35,0,0,1,1,2.82c.09-.14.25-.06.3-.31.09.27.32-.06.31.38,0-.11.17-.35.26-.37-.16.53.33,0,.28.6.12-.47.43-.21.64-.47,0,0,0,.11,0,.09s.15.18.23.27c0-.39.2-.48.3-.73.14.38-.09.46,0,.83,0-.32.26-.32.21-.58A.9.9,0,0,1,3.58,3c0-.49.1-.08.19-.38.16.24,0,.46.22.31C4.08,3,3.92,3.21,3.92,3.21Zm4.19-.84h0L8,2.39Zm.35,0H8.31c0-.1,0-.2,0-.19S8.41,2.28,8.46,2.36ZM7.72.41s.07,0,.08.08l-.1,0v0A.61.61,0,0,1,7.72.41Z"/><path class="cls-1" d="M7.62.78s0,0,0,0l0,.07s0-.06,0-.09Z"/><path class="cls-1" d="M39.56,1.2h0a.08.08,0,0,1,0,0A0,0,0,0,0,39.56,1.2Z"/><polygon class="cls-1" points="13.33 2.9 13.33 2.83 13.3 2.89 13.33 2.9"/><path class="cls-1" d="M41.5,2.16a.26.26,0,0,0,0,.08A.16.16,0,0,0,41.5,2.16Z"/><path class="cls-1" d="M42.34,2.23l.12.1A.31.31,0,0,0,42.34,2.23Z"/><path class="cls-1" d="M43,2.37c0-.05,0-.09,0-.12h0Z"/><path class="cls-1" d="M32.74,2.7h0C32.65,2.76,32.69,2.74,32.74,2.7Z"/><path class="cls-1" d="M35.79,2l-.1.13C35.74,2.19,35.79,2.2,35.79,2Z"/><path class="cls-1" d="M29.33,3h0Z"/><path class="cls-1" d="M35.55,2.17a.09.09,0,0,0,.14,0S35.59,2.13,35.55,2.17Z"/><path class="cls-1" d="M45.78,2.49l0,0v0Z"/><path class="cls-1" d="M45.81,2.46l0,0S45.82,2.43,45.81,2.46Z"/><path class="cls-1" d="M45.92,2.36l-.07.07S45.91,2.44,45.92,2.36Z"/><path class="cls-1" d="M44.93,2.36v.11S44.93,2.41,44.93,2.36Z"/><path class="cls-1" d="M44.67,2.39c.06,0,.15.22.24.16V2.47C44.88,2.62,44.73,2.22,44.67,2.39Z"/><path class="cls-1" d="M43.58,1.13l.22.09c0-.11-.09-.26,0-.28C43.54.61,43.87,1.18,43.58,1.13Z"/><path class="cls-1" d="M42.91,1c.12,0,0-.16,0-.22C42.84.86,42.82.88,42.91,1Z"/><path class="cls-1" d="M38,1V.72C38,.76,38.05.82,38,1Z"/><polygon class="cls-1" points="37.11 2.3 37.2 2.46 37.24 2.22 37.11 2.3"/><polygon class="cls-1" points="36.56 0.48 36.6 0.44 36.45 0.53 36.56 0.48"/><path class="cls-1" d="M28.38.57l0,.31C28.47.83,28.48.47,28.38.57Z"/><path class="cls-1" d="M24.85.89c0-.16-.13-.26-.2-.11C24.73.81,24.81.93,24.85.89Z"/><polygon class="cls-1" points="14.27 0.37 14.34 0.27 14.2 0.36 14.27 0.37"/></g></g></svg>