<svg xmlns="http://www.w3.org/2000/svg" viewBox="0 0 116.24 29.1"><defs><style>.cls-1{fill:#fff;}</style></defs><title>資產 13</title><g id="圖層_2" data-name="圖層 2"><g id="圖層_1-2" data-name="圖層 1"><path class="cls-1" d="M0,14.26c.12-.14.24-.28.39-.48.16.12.32.23.47.36a.32.32,0,0,0,.52,0,1,1,0,0,1,.3-.14c1.05-.42,2.11-.82,3.15-1.28.8-.36,1.58-.79,2.36-1.22a1,1,0,0,0,.52-.92c0-.41.19-.81.21-1.22,0-.71,0-1.44,0-2.15,0-.2,0-.4,0-.6,0-.78-.2-.9-.8-1.06a1.29,1.29,0,0,1-.36-.23c.1-.14.17-.33.3-.41a1.59,1.59,0,0,1,1.8.39,4.38,4.38,0,0,1,.74,1.5,11.07,11.07,0,0,1,0,2.3c0,.31.11.48.43.44a4.79,4.79,0,0,1,3.47.73.39.39,0,0,1,0,.66,5.5,5.5,0,0,1-.57.36c-1,.48-1.91,1-2.89,1.44A1.85,1.85,0,0,0,9.16,14c-.14.36-.25.73-.36,1.11-.18.63-.35,1.27-.51,1.91,0,.08,0,.25.1.27a.74.74,0,0,0,.46.05,1.82,1.82,0,0,0,.45-.29,2.24,2.24,0,0,1,1.44-.35,2,2,0,0,1,1.1.49.46.46,0,0,0,.73-.07c.27-.39.53-.79.79-1.18a.49.49,0,0,1,.2-.17,11.37,11.37,0,0,1-1.51,5.3s-.14,0-.23,0a.85.85,0,0,1-1.07-.67,5.36,5.36,0,0,0-.3-.79A4.52,4.52,0,0,0,9.9,19L8,21.31a.44.44,0,0,0-.1.22c-.09.62-.57.87-1,1.12-.21.11-.66-.15-.77-.4a6.52,6.52,0,0,0-.43-.83,1.25,1.25,0,0,1-.31-1.18c0-.06-.08-.15-.15-.28a3.54,3.54,0,0,1,.24-.38,7.18,7.18,0,0,0,1.21-3.07,2.22,2.22,0,0,1,.29-1c.21-.29,0-.62-.08-.91,0-.08-.24-.17-.34-.14-1.21.31-2.42.63-3.62,1a2.75,2.75,0,0,1-2.46-.3A4.57,4.57,0,0,1,0,14.7Z"/><path class="cls-1" d="M26.44,28.05a11.76,11.76,0,0,1-1.35-.76,8.06,8.06,0,0,1-1.31-1.16,7.72,7.72,0,0,1-.73-1.22,1.25,1.25,0,0,1,1.1,0c.25.1.54.11.8.19a3.67,3.67,0,0,1,.47.26c.16.09.23.07.3-.13a3.09,3.09,0,0,0-.1-1.51,8.36,8.36,0,0,1-.12-1c0-.73,0-1.47-.09-2.2-.05-.54-.2-1.06-.28-1.6s-.19-1.36-.29-2c0-.26-.12-.51-.14-.77-.06-.62-.09-1.25-.15-1.87-.11-1.12-.27-2.23-.35-3.34-.06-.83,0-1.66,0-2.48V8.37c0-.63,0-1.26,0-1.89,0-.29-.19-.43-.46-.33a7,7,0,0,0-.71.39,3.38,3.38,0,0,1-2.47.51A1,1,0,0,1,20,6.64c-.14-.2,0-.32.21-.35a4.7,4.7,0,0,0,2.13-1c.22-.17.45-.32.66-.49a1.39,1.39,0,0,1,1.13-.13c.56.07.93.5,1.4.73.32.16.45,1,.35,1.44-.16.65-.29,1.31-.4,2a13.93,13.93,0,0,0-.21,1.69,8.09,8.09,0,0,0,.12.84c0,.53,0,1.07,0,1.6s.11,1.26.13,1.89.12,1.49.1,2.24a9.71,9.71,0,0,0,.14,1.78c.07.44.26.86.36,1.3s.12.91.22,1.36c.17.82.38,1.63.57,2.44.1.41.19.81.29,1.21a1.31,1.31,0,0,0,.12.33,2,2,0,0,1-.62,2.61Z"/><path class="cls-1" d="M22,18.6a3.07,3.07,0,0,0-.57-.27,4.7,4.7,0,0,1-1.41-1l-.75-.6a.26.26,0,0,0-.44.17c-.08.47-.14.94-.22,1.4-.1.64-.21,1.29-.32,1.93-.06.33-.12.67-.19,1a.14.14,0,0,1,0,.07c-.57,1.1-1.13,2.19-1.72,3.28a1.75,1.75,0,0,1-1,.76l-.09-.08c.16-.24.34-.48.49-.73a7.06,7.06,0,0,0,.53-.92c.3-.67.57-1.35.84-2a6.46,6.46,0,0,0,.39-1.09,14.32,14.32,0,0,0,.1-1.47c0-.16.05-.31.08-.46,0-.31.1-.63.13-1a19.51,19.51,0,0,1,.35-3.4c.07-.25-.06-.55-.05-.82,0-1.77.14-3.54.12-5.3C18.21,7.07,18,6,17.94,5c0-.27,0-.55,0-.83l.14,0c.21.38.43.75.6,1.14a6.8,6.8,0,0,1,.54,2.71c0,.85.08,1.7.14,2.54,0,.34.33.37.57.45a.77.77,0,0,0,.4,0,2.27,2.27,0,0,1,2,.56,2,2,0,0,1,1,1.13.6.6,0,0,1-.19.69,17.83,17.83,0,0,1-1.86,1.41,6.16,6.16,0,0,0-1.36,1,.53.53,0,0,0,.14.91,2,2,0,0,0,1.25.27,1.82,1.82,0,0,1,1.74.53,1.06,1.06,0,0,1,.08,1.07c0,.08-.24.08-.37.09S22.31,18.6,22,18.6Zm-.92-5.78c0-.59-1-1.14-1.48-1.16a.3.3,0,0,0-.22.2c0,.39,0,.78-.08,1.16s-.11,1-.17,1.44a1,1,0,0,0,1-.66,1.32,1.32,0,0,1,.29-.5A5.2,5.2,0,0,1,21.06,12.82Z"/><path class="cls-1" d="M55.84,22.14c0-.78-.11-1.56-.15-2.34,0-.22.09-.45.09-.68,0-.41,0-.83,0-1.25,0-.64-.08-1.28-.11-1.92,0-.14.06-.29,0-.42,0-.5-.09-1-.14-1.48,0-.14,0-.28,0-.41,0-.37,0-.73-.07-1.1,0-.14-.07-.27-.09-.41-.06-.43-.14-.87-.16-1.31A5.24,5.24,0,0,0,55,9.72a7.67,7.67,0,0,1-.26-1.58,4.58,4.58,0,0,0-1-2.44,1,1,0,0,0-.33-.29c-.21-.13-.36-.36-.57-.49a5.24,5.24,0,0,0-1-.44.37.37,0,0,1-.28-.23H50.46l-1.25.46a2.7,2.7,0,0,0-.86.54c-.28.26-.59.51-.88.76a14,14,0,0,0-1.67,1.5c-.43.53-.94,1-1.4,1.48s-.63.78-.95,1.18l-.24.28a12.38,12.38,0,0,0-.9,1c-.52.74-1,1.51-1.5,2.26-.25.38-.52.76-.73,1.16-.51.94-1,1.91-1.54,2.82-.08.12-.11.26-.18.38s-.27.17-.35,0a.84.84,0,0,1-.08-.38A14.49,14.49,0,0,1,38,15.94a3.2,3.2,0,0,0-.11-1.27,1.79,1.79,0,0,1,.06-.5A.41.41,0,0,0,38,14a5.93,5.93,0,0,1-.23-1.62,1.65,1.65,0,0,0-.18-.81c-.07-.11,0-.3-.05-.44s-.09-.34-.2-.4-.27.05-.27.23,0,.6,0,.9c0,.7,0,1.41-.11,2.11s-.07,1.28-.11,1.91c0,.85-.14,1.7-.2,2.55,0,.2,0,.41,0,.61,0,.56,0,1.12-.11,1.68,0,.28-.16.56-.19.85a5.08,5.08,0,0,0,0,.78,3.16,3.16,0,0,1-.67,2c-.07.1-.13.22-.2.33v.43l.54.74a8,8,0,0,0,.5.74c.11.12.32.16.47.25a1.59,1.59,0,0,1,.33.25.46.46,0,0,0,.75-.17c.15-.49.26-1,.37-1.5.18-.75.35-1.5.52-2.25s.37-1.64.57-2.46c0-.19.15-.37.21-.57A20.75,20.75,0,0,1,41,17c.25-.51.53-1,.8-1.49.05-.09.13-.15.18-.23a.88.88,0,0,0,.26-.64c-.05-.38.21-.62.41-.88s.28-.31.39-.48.21-.28.42-.17a2.7,2.7,0,0,0,1.4.23H46.2a2.09,2.09,0,0,1-.05.32l-.6,1.65c-.18.49-.36,1-.53,1.48a1.55,1.55,0,0,0,.22,1.66s0,0,0,0c0,.16,0,.3.14.33a.92.92,0,0,0,.39-.07c.14,0,.28-.09.42-.13s.42-.13.63,0a1,1,0,0,0,.43.1c.21,0,.26.14.19.36a8.44,8.44,0,0,1-1.14,2.11,24.29,24.29,0,0,1-2.38,3,11,11,0,0,1-.79.88c-.06.06-.06.18-.09.27-.2,0-.69.36-.79.76l.66-.49.41-.29s.08,0,.09-.05c.28-.55,1-.58,1.32-1.08.2-.28.47-.23.78.06s.48.58.78.81.56.73,1,.94a6.11,6.11,0,0,1,.84.7,8.57,8.57,0,0,0,1.26.91,3.69,3.69,0,0,0,1.46.64c.3,0,.59.11.89.14a.51.51,0,0,0,.35-.07,10.6,10.6,0,0,1,1.59-1.08,6.7,6.7,0,0,0,.84-.61,4.38,4.38,0,0,0,.75-1.15,17.69,17.69,0,0,0,.54-1.75.81.81,0,0,0,0-.22C55.85,23,55.86,22.58,55.84,22.14Zm-2.54-1.5c0,.81-.19,1.61-.31,2.41a13.73,13.73,0,0,1-.28,1.58,1.28,1.28,0,0,1-.83,1,4.78,4.78,0,0,1-1.51,0A6.14,6.14,0,0,1,48.62,25a8.82,8.82,0,0,0-.86-.31l-.14-.06-.87-.58-.12.13,1.56,1.22s0,.07,0,.1-.22,0-.31,0a4.88,4.88,0,0,1-1.53-1c-.31-.29-.6-.62-.89-.92a2.88,2.88,0,0,1,.86-1c.21-.19.41-.4.63-.6a3.07,3.07,0,0,1,.34-.29,6.43,6.43,0,0,0,1.51-1.34c.24-.31.47-.63.7-1a1.31,1.31,0,0,0-.05-1.61,5.19,5.19,0,0,0-.85-.84,2.91,2.91,0,0,0-.61-.31.62.62,0,0,0-.55,0c-.08,0-.2,0-.29,0a1.55,1.55,0,0,1,.07-.23l.36-.67c.24-.48.51-1,.73-1.44a5.79,5.79,0,0,0,.37-1.06,1,1,0,0,0-.53-1.11,11.6,11.6,0,0,0-1.27-.64.85.85,0,0,0-.86.15,2,2,0,0,0-.34.23,2.08,2.08,0,0,1-1.38.52l-.19,0-.26,0a.83.83,0,0,1,.06-.29c.25-.32.52-.62.76-.93.36-.48.69-1,1.05-1.45s.88-1.06,1.3-1.61A5.14,5.14,0,0,1,48.76,6.7a2.59,2.59,0,0,1,1.89-.28,1.31,1.31,0,0,1,.56.47c.2.27.32.58.51.85a4.38,4.38,0,0,1,.56,1.55c.16.62.33,1.24.47,1.87.09.44.11.91.19,1.36A4.21,4.21,0,0,0,53.19,14a.17.17,0,0,1,0,.1c.06,1.19.14,2.37.16,3.56C53.38,18.63,53.37,19.64,53.3,20.64Z"/><path class="cls-1" d="M64.33,24.19c.07-.31.16-.61.2-.92.09-.65.17-1.31.25-2v-.19c0-.51,0-1,0-1.52q-.06-1.68-.15-3.36c0-.15-.09-.3-.1-.45a3,3,0,0,1,.07-.37,2,2,0,0,1,1.05.56c.09.07.16.17.25.24a1.51,1.51,0,0,1,.56,1.13.69.69,0,0,1-.09.49,2.07,2.07,0,0,0-.29,1c-.1.68-.18,1.37-.25,2.06,0,.43-.07.85-.1,1.28a.82.82,0,0,0,.06.19c.06,0,.15,0,.18-.08a7.91,7.91,0,0,0,.54-.75c.23-.36.45-.74.66-1.12.13-.23.22-.48.34-.72l1.14-2.13c.1-.21.17-.44.27-.65.24-.59.48-1.18.74-1.76s.53-1.11.79-1.67c.16-.34.32-.69.45-1.05a9,9,0,0,0,.25-.89.15.15,0,0,0,0-.11,1.12,1.12,0,0,1,.06-1.26,2.9,2.9,0,0,1,.41-.58s.12-.1.16-.08c.28.11.32-.12.4-.27a5.26,5.26,0,0,1,.34-.67c.06.23.11.44-.06.63a.44.44,0,0,0-.08.2l-.15,1c0,.14,0,.27,0,.41s0,.4.3.28c.06,0,.15,0,.19.06a8.59,8.59,0,0,1,1-.48,10.9,10.9,0,0,0,2.07-1.26,4.82,4.82,0,0,0,.65-.63,1.09,1.09,0,0,0,.25-1,6.68,6.68,0,0,1,0-1.67,4.17,4.17,0,0,0,0-.93c0-.48-.12-1-.2-1.43s-.17-.77-.9-.5c-.25.09-.49.2-.74.3A7.36,7.36,0,0,1,75.22,2c.45-.6.88-.53,1.47-.23.33.17.68.31,1,.47l.07,0c.42.29.86.56,1.26.87a.78.78,0,0,1,.34.7c0,.26.06.53,0,.79,0,.44-.08.87-.12,1.31,0,.06,0,.16,0,.17a.34.34,0,0,0,.2,0c.22-.15.45-.29.66-.46a1.44,1.44,0,0,1,1.49-.14,5.38,5.38,0,0,1,.64.31,1.58,1.58,0,0,1,.66,1c.13.47-.27.73-.59,1s-1,.6-1.42.93a7.1,7.1,0,0,0-.71.63c-.28.27-.58.51-.83.8-.39.44-.75.9-1.13,1.36a8,8,0,0,0-.74.91,4.17,4.17,0,0,0-.73,1.75,1.19,1.19,0,0,0,.11.41l.11,0c.24-.31.49-.61.71-.92a2.41,2.41,0,0,1,1.07-.9,3.11,3.11,0,0,0,.41-.2,1.52,1.52,0,0,1,1.39,0c.37.16.76.27,1.14.41a.24.24,0,0,1,.1,0A3.21,3.21,0,0,1,83.08,15a9.79,9.79,0,0,1,0,1.53,3.56,3.56,0,0,0,.07,1.38.49.49,0,0,1,0,.24A7.21,7.21,0,0,0,83,19c0,1.49,0,3-.07,4.48a3.71,3.71,0,0,1-.19.85c-.14.57-.27,1.15-.45,1.71a4.57,4.57,0,0,1-.41.83c0,.07-.14.11-.21.16l-.62.45h-.8L80,27.45a9.06,9.06,0,0,1-2.11-.88,3.66,3.66,0,0,1-.66-.45c-.29-.27-.54-.58-.82-.86,0-.05-.12-.06-.18-.08a1.34,1.34,0,0,0-.07.18,1.3,1.3,0,0,1-.6.89.49.49,0,0,1-.33.07,1.36,1.36,0,0,1-1-.71,4.94,4.94,0,0,0-.73-1.34.79.79,0,0,1-.14-1c.2-.51.46-1,.67-1.5a6.4,6.4,0,0,0,.4-1.11c.21-.92.35-1.85.55-2.77.14-.63.31-1.26.51-1.88a15.67,15.67,0,0,1,.73-2c.47-1,1-2,1.47-2.95L76.31,9.81c-.23.21-.5.44-.75.68s-.4.45-.61.65-.65.58-1,.87-.5.47-.77.68a.89.89,0,0,1-1,.06l-.31-.15a.16.16,0,0,0-.24.17,1.3,1.3,0,0,1-.1.78c-.12.37-.17.76-.29,1.13-.32,1-.67,2-1,3-.14.43-.22.88-.33,1.32,0,.17-.11.33-.15.51s-.06.35-.11.52-.19.49-.26.75c-.29,1-.59,2.05-.85,3.09a8,8,0,0,1-.73,2.19c-.27.42-.41,1-1.08,1h0a.52.52,0,0,1-.73-.23,2.69,2.69,0,0,0-.39-.5,4.63,4.63,0,0,1-1.26-1.65Zm16.29-2.28a2.61,2.61,0,0,1-.33.22.63.63,0,0,1-.32.08,3.31,3.31,0,0,1-.69-.17c-.16-.06-.38-.15-.44-.28a10.61,10.61,0,0,1-.49-1.37,3.17,3.17,0,0,1,.06-2.27.89.89,0,0,0,0-.4c0-.26-.07-.52-.1-.78s-.07-.61-.13-.91a.17.17,0,0,0-.31-.05c-.31.46-.62.91-.91,1.38a6.06,6.06,0,0,0-.6,1.67,7,7,0,0,0-.3,1.87,5.28,5.28,0,0,1-.09.68c0,.31-.09.62-.1.93a5.13,5.13,0,0,0,.09.67c0,.3.09.59.15.89s.43.49.7.68a2.34,2.34,0,0,0,1,.54s.07,0,.1.07a.6.6,0,0,0,.6.22,3.2,3.2,0,0,1,.69,0,1.58,1.58,0,0,0,.9-.21.5.5,0,0,0,.3-.44c0-.66.07-1.32.11-2,0-.18,0-.35.07-.53S80.61,22.11,80.62,21.91Zm0-3.15h0c0-.34-.06-.67-.07-1-.06-.93-.1-1.87-.16-2.8a1.49,1.49,0,0,0-.24-.91c-.12-.15-.24-.22-.41-.07-.41.36-.84.71-1.24,1.08a.49.49,0,0,0,.07.75c.26.2.54.39.79.61a1,1,0,0,1,.4.81c0,.52,0,1,0,1.56,0,0,0,.07,0,.1a4.42,4.42,0,0,1,0,.63c0,.34.14.59.41.47a.5.5,0,0,0,.37-.5Z"/><path class="cls-1" d="M66.34,6.73c.42.29.81.57,1.23.83.24.15.54.22.77.39a3.18,3.18,0,0,1,1.3,1.75,2,2,0,0,1,.06.73c-.07.62-.46.72-1.06.63a1.34,1.34,0,0,0-1,.06c-.07.05-.21,0-.32,0a2.45,2.45,0,0,1,0-.27c.06-.31.15-.62.19-.93a1.5,1.5,0,0,0-.34-1.07,6.41,6.41,0,0,1-.66-1.13A4,4,0,0,1,66.34,6.73Z"/><path class="cls-1" d="M110.67,29.1a1,1,0,0,0-.32-.12c-.27,0-.55,0-.83-.06s-.78-.08-1.16-.14-.9-.16-1.35-.25-1-.15-1.44-.25a5.11,5.11,0,0,1-.64-.27l-.8-.28c-.19-.08-.37-.18-.56-.25a3.26,3.26,0,0,1-.75-.23,6.35,6.35,0,0,1-1.33-1,24.67,24.67,0,0,1-1.51-2,1.09,1.09,0,0,1,.2,0l1,.84a1.84,1.84,0,0,0,.22.17c.56.29,1.1.62,1.68.85a10.55,10.55,0,0,0,1.58.44c.65.17,1.3.35,1.95.47s1.32.22,2,.29,1.19.11,1.79.12a9.32,9.32,0,0,0,1.16-.12c.17,0,.18-.14.09-.28a4.7,4.7,0,0,0-.6-.88c-.68-.65-1.4-1.25-2.1-1.88-.32-.3-.63-.62-.93-.94,0,0,0-.11-.07-.17a.18.18,0,0,1,0-.07c.23.12.46.23.68.37.46.29.53.31,1,0a14.27,14.27,0,0,0,1.48-1.19,6.9,6.9,0,0,0,.77-1.14,3.81,3.81,0,0,1,.33-.55,2.36,2.36,0,0,0,.35-1.89c0-.33-.33-.38-.62-.39s-.43.09-.59-.22c.54-.07,1-.35,1.55-.22a11.74,11.74,0,0,1,1.21.21,3.94,3.94,0,0,1,.88.58c.08.05.1.17.18.21a2.16,2.16,0,0,1,.71,1.32,1.38,1.38,0,0,1-.48,1.26,13.48,13.48,0,0,1-4.15,1.9c-.45.1-.9.18-1.34.29a1.36,1.36,0,0,0-.34.21,1.34,1.34,0,0,0,.26.31c.58.41,1.18.81,1.76,1.21a12,12,0,0,0,2.57,1.26,5.66,5.66,0,0,1,1.74.95,4.21,4.21,0,0,1,.36.37v.44A4.64,4.64,0,0,1,114,29a2.55,2.55,0,0,0-.67.12Z"/><path class="cls-1" d="M99.73,17.89l-.3-.33c-.4.38-1.1-.16-1.43.53l-.36-.49-.39.49a.67.67,0,0,1-.57.25c-.32,0-.64.05-1,.08a.7.7,0,0,1-.14,0,2,2,0,0,0-.54,0,.44.44,0,0,1-.6-.27l-.27.21c.07-.31-.55-.39-.14-.76a1,1,0,0,0,1,.24,7.3,7.3,0,0,1,1-.08c.22,0,.43-.11.65-.15.42-.08.85-.14,1.26-.23s1.07-.23,1.59-.4c.24-.07.23-.33.21-.55,0-.46-.09-.91-.11-1.36,0-.09.07-.18.12-.3a1.76,1.76,0,0,1-.06-.3c0-.85,0-1.71,0-2.56,0-.61.1-1.22.11-1.83,0-.42,0-.84-.06-1.27a.71.71,0,0,0-.1-.31c-.09-.14-.2-.2-.34,0-.36.48-.74,1-1.14,1.42a1.22,1.22,0,0,1-.55.32c-.07,0-.21-.06-.28-.13A.89.89,0,0,1,97,9.66a2.19,2.19,0,0,1,.5-1.86c.64-.92,1.35-1.8,2-2.69A12.61,12.61,0,0,0,101,2.56c.31-.66.62-1.33.94-2a2.49,2.49,0,0,1,.41-.57,10.08,10.08,0,0,1-.27,3.42c-.15.46.24.89.79.89.34,0,.71.12,1-.22.06-.07.23-.06.35-.08a1.91,1.91,0,0,0,.36-.07A3.92,3.92,0,0,1,106,3.58a1.13,1.13,0,0,1,1.08.25c.35.36.83.62.91,1.16a8.09,8.09,0,0,1,0,1.1v2.7l.06,4.09c0,.4,0,.81,0,1.22,0,.19.12.38.11.56,0,.74-.07,1.47-.11,2.2,0,.44-.06.89-.07,1.33s.32.77.85.58.93-.27,1.4-.4l.08.07c0,.11-.09.27-.17.31a2.61,2.61,0,0,1-.94.35c-.36,0-.87.55-1,.91a3.89,3.89,0,0,1-.37.89.57.57,0,0,1-.77.26.54.54,0,0,0-.7.18,2,2,0,0,1-1.68.74,2.14,2.14,0,0,1-.54-.18,4.67,4.67,0,0,1-1.22-.75,1.76,1.76,0,0,1-.7-1.14c0-.16.17-.35.27-.53a2.34,2.34,0,0,1,.31.24c.1.11.16.26.27.37a1,1,0,0,0,.86.45c.17,0,.36.17.51.13a13.22,13.22,0,0,0,1.52-.44s.09-.21.06-.3a1.71,1.71,0,0,0-.21-.4,7.2,7.2,0,0,1-.7-2.19,5.93,5.93,0,0,0,.68.37.33.33,0,0,0,.49-.37,14.76,14.76,0,0,1-.12-1.48,4.58,4.58,0,0,0-.06-1.43c-.06-.19,0-.43,0-.64,0-.76-.09-1.51-.12-2.26,0-.16.06-.33,0-.49,0-.68-.06-1.36-.1-2,0-.33,0-.66-.08-1-.08-.7-.16-1.4-.25-2.1,0-.33-.16-.38-.46-.28a7.25,7.25,0,0,1-1.74.06.24.24,0,0,1-.11-.06c-.37-.27-.75-.52-1.1-.82s-.6-.3-.81.14-.37.88-.58,1.32c-.09.2-.32.37-.34.56s.22.34.3.52a.66.66,0,0,0,.92.46h0a2.86,2.86,0,0,1,1.93-.15,1.52,1.52,0,0,1,1.12.68,1,1,0,0,1,0,.6c0,.09-.19.19-.3.2a9.21,9.21,0,0,0-1.05,0,4,4,0,0,0-.81.25l-.27.07c0-.08,0-.16,0-.23s-.25-.58-.43-.63-.43-.11-.65-.16h-.27c0,.33.09.63.11.93s0,.48,0,.72c0,.47.09.94.12,1.41,0,.28.22.33.42.35a.45.45,0,0,0,.3-.05c.62-.36,1.21-.06,1.8.09a.42.42,0,0,1,.35.54.5.5,0,0,1-.55.39c-.37,0-.73,0-1.1,0a2.59,2.59,0,0,0-.61.1c-.76.23-.68.53-.66,1.12,0,.42,0,.84,0,1.26a1.12,1.12,0,0,0,0,.45c.13.26.39.15.57.1a3,3,0,0,0,.63-.3c.25-.14.48-.32.8-.17s.74.27,1.1.42.36.26.13.47-.63.52-.92.79c-.72.66-1.43,1.33-2.12,2a17.28,17.28,0,0,0-1.25,1.32c-.46.52-.88,1.08-1.33,1.62a4.21,4.21,0,0,1-.36.37c-.59.61-1.17,1.25-1.79,1.84s-1.26,1.16-1.9,1.73c-.44.38-.88.76-1.33,1.13a1,1,0,0,1-.41.18.48.48,0,0,1-.61-.48,4.67,4.67,0,0,1,.08-1c0-.13.2-.24.32-.34s.62-.25.48-.69a.18.18,0,0,1,0-.08l.84-.48A.9.9,0,0,0,94.6,24c.44-.49.87-1,1.3-1.49l.21-.26,2-2a.28.28,0,0,0,.09-.13,1.92,1.92,0,0,1,.55-.83C99.07,18.81,99.39,18.34,99.73,17.89Z"/></g></g></svg>