<svg xmlns="http://www.w3.org/2000/svg" viewBox="0 0 133.73 29.55"><defs><style>.cls-1{fill:#fff;}</style></defs><title>資產 11</title><g id="圖層_2" data-name="圖層 2"><g id="圖層_1-2" data-name="圖層 1"><path class="cls-1" d="M75.16,29.55l-1.37-.76a.58.58,0,0,1-.35-.58,2,2,0,0,1,.18-1,2.58,2.58,0,0,0,.14-.8s0-.09,0-.12c.3-.42.16-.91.24-1.37s.22-1,.35-1.51c.23-.92.45-1.84.73-2.75a31.2,31.2,0,0,1,1-3c.2-.45.4-.91.56-1.38s.44-.82.64-1.24c.08-.18.11-.39.18-.58s0-.26.13-.3c.39-.23.43-.68.6-1A9.56,9.56,0,0,0,78.6,12a8.85,8.85,0,0,1,.4-.9c.14-.31.29-.63.44-1-.08,0-.14,0-.17,0-.54.41-1.29.51-1.66,1.17a4.72,4.72,0,0,0-1.28,1c-.43.34-.9.64-1.33,1-.15.12-.22.33-.36.46A17.2,17.2,0,0,1,73.12,15a1.3,1.3,0,0,1-.89.27,2,2,0,0,1-.85-.55,2.09,2.09,0,0,1-.35-.51c0-.08-.13-.18-.12-.25.15-.56-.3-.83-.56-1.19a2.34,2.34,0,0,1-.4-1.12,4.6,4.6,0,0,0,1,.22,2.73,2.73,0,0,0,1.71-.46.52.52,0,0,1,.2-.09,5.73,5.73,0,0,0,1.88-.86c.39-.2.73-.5,1.11-.73.65-.41,1.31-.81,2-1.19.42-.24.86-.44,1.29-.66l.08,0c.92-.6,1.83-1.21,2.75-1.79.64-.4,1.31-.76,2-1.14L85.41,4c.48-.28,1-.55,1.44-.84s.86-.6,1.3-.88a.77.77,0,0,1,.45-.06,3.68,3.68,0,0,0,1,.17c.58-.12.9.34,1.34.5.22.09.38.39.51.62s-.12.61-.52.73-.8.2-1.2.31l-1.54.48a15.32,15.32,0,0,0-3.56,1.7,8.72,8.72,0,0,0-2,1.93c-.14.18-.29.35-.45.53.24.33.59.23.88.26a5.75,5.75,0,0,1,2,.6c.39.19.43.59.46.95a4.86,4.86,0,0,1-.06.85c0,.28.14.43.39.29.82-.41,1.63-.85,2.44-1.27l1.21-.61c.14-.07.31-.09.34-.34,0-.08.37-.17.56-.17A2.74,2.74,0,0,1,91,10s.14.06.15.1c.07.45.41.53.76.54s.28.18.21.28c-.3.41-.08.74.14,1.06a1,1,0,0,1-1.16.39,2.35,2.35,0,0,0-1.34.12c-.73.2-1.46.45-2.19.67a3.71,3.71,0,0,1-.41.07l.86-1a.38.38,0,0,0-.53-.08,4.47,4.47,0,0,1-1.51.45.74.74,0,0,0-.58.87c0,.57,0,1.15,0,1.72s0,1-.06,1.46a2.17,2.17,0,0,0,1.26-.3c.75-.24,1.49-.5,2.23-.76l.12,0c.52-.16,1.05-.31,1.56-.49s.66.1,1,.17a4.29,4.29,0,0,1,.93.42,7.65,7.65,0,0,1,.91.56,5.77,5.77,0,0,1,.58.63v.76a5.42,5.42,0,0,1-1.28,1.82c-.35.36-.73.7-1.11,1a2.39,2.39,0,0,1-.61.5,2.84,2.84,0,0,0-1.09.85,2.31,2.31,0,0,0,.52.23c.47.09.94.15,1.41.2.29,0,.55.2.56.36a3.65,3.65,0,0,0,.09.88.66.66,0,0,1-.17.68,1.4,1.4,0,0,0-.28.59c-.06.37-.2.55-.58.54s-1,0-1.45-.06L87.83,25a.78.78,0,0,0-.21,0,4.58,4.58,0,0,1-1.08.21,26.08,26.08,0,0,1-2.65.1c-.25,0-.37-.15-.41-.36a3.57,3.57,0,0,1-.07-1.42c.14-.73.31-1.25,1.32-1.23a1.11,1.11,0,0,0,.61-.18A11.24,11.24,0,0,0,88.14,20c.27-.33.66-.57.94-.9a13.06,13.06,0,0,0,1-1.32,4.43,4.43,0,0,0,.47-.92c.08-.2-.09-.42-.24-.35a4.9,4.9,0,0,0-.65.32c-.15.08-.27.19-.42.27a5.52,5.52,0,0,0-1.35.78c-.19.19-.51.23-.74.37-1,.59-1.92,1.2-2.88,1.79a3,3,0,0,1-1.73.52l-.77,0,0,.12c.16.28.36.55.49.84.26.61.71,1.17.5,1.9-.13.49-.24,1-.39,1.47,0,.11-.28.28-.36.26a6,6,0,0,1-1.32-.59,1.61,1.61,0,0,1-.53-1.32c0-.41,0-.82,0-1.23,0-.64-.14-1.28-.22-1.92-.06-.46-.13-.91-.17-1.37,0-.22-.22-.47.09-.7l.38.37a1,1,0,0,0,1.19.28c.45-.22.92-.39,1.35-.63.25-.14.57-.35.62-.58a17.48,17.48,0,0,0,.28-2.16c0-.54.06-1.08.06-1.61,0-.8,0-1.59,0-2.38s-.13-.87-.85-.81a9.15,9.15,0,0,0-.91.18,2.29,2.29,0,0,0-1.84,1.43c-.19.43-.45.83-.68,1.25a1.14,1.14,0,0,0-.07.22c0,.1,0,.21-.09.31s-.15.16-.18.25c-.13.44-.24.88-.38,1.31a8.29,8.29,0,0,0-.31.83c-.2.84-.37,1.7-.56,2.55-.09.39-.24.77-.32,1.16-.12.64-.14,1.29-.31,1.91a6,6,0,0,0-.22,1.57c0,.59,0,1.18-.07,1.77s-.09.91-.11,1.37,0,1,0,1.47a1.52,1.52,0,0,1-.3.72c-.22.29-.51.54-.76.81Z"/><path class="cls-1" d="M81.27,3.21l.91-.71c-1-.79-2.3-1.24-3-2.5l.93.21c.36.08.73.15,1.08.25C81.84.63,82.44.81,83,1a1.08,1.08,0,0,1,.7.94,8.15,8.15,0,0,0,.29,1c0,.07,0,.23-.06.24a1.62,1.62,0,0,1-.74.09,2,2,0,0,0-1.46,0,1.91,1.91,0,0,1-.48,0S81.28,3.24,81.27,3.21Z"/><path class="cls-1" d="M122.2,1.85c.4.2.79.41,1.2.6A1.76,1.76,0,0,1,124.17,4c-.12.71-.2,1.42-.3,2.13a.48.48,0,0,0,.45.58c.56.06,1.12,0,1.68,0a6.46,6.46,0,0,1,.88,0,.67.67,0,0,1,.52,1c-.32.8-1.06,1-1.74,1.33-.48.22-1,.42-1.44.66-.14.08-.33.27-.33.41,0,1,0,1.93,0,3a4,4,0,0,0,.7-.38,5,5,0,0,1,1.71-.87,2,2,0,0,1,2,.48c.46.31.4.8.37,1.25-.08,1.27-.19,2.54-.27,3.81-.05.81-.1,1.63-.09,2.44s.11,1.5.18,2.24.17,1.31.16,2a3.61,3.61,0,0,1-1.29,3,1.43,1.43,0,0,1-1.28.28,19.34,19.34,0,0,0-2.41-.46.53.53,0,0,0-.41.23.82.82,0,0,1-.81.52,1.05,1.05,0,0,1-.84-.94c0-.17,0-.34,0-.51a1.53,1.53,0,0,0-.49-1.18,2.45,2.45,0,0,1-.42-.64l.13-.13a2.52,2.52,0,0,1,.41.17c.3.17.45.05.45-.24,0-.59,0-1.18,0-1.76,0-.4-.39-.35-.63-.36a10.27,10.27,0,0,0-1.22,0c0,.64,0,1.3,0,2a1.39,1.39,0,0,1-.08.54c-.07.15-.22.39-.35.39a1,1,0,0,1-.66-.21,3.86,3.86,0,0,1-1-2.33c-.13-.73.24-1.33.26-2a10.34,10.34,0,0,1,.44-2.45c.15-.59.44-1.14.63-1.72.23-.74.41-1.49.62-2.23s.46-1.53.69-2.29c.16-.52.11-.61-.44-.57s-1.36.14-2,.17a5.37,5.37,0,0,1-2.44-.79c.42-.12.78-.24,1.14-.31.85-.15,1.71-.28,2.56-.42l.76-.14c.71-.09.83-.19,1-.9.14.1.32.32.49.32s.53-.21.53-.61a16.46,16.46,0,0,0-.29-3.84,1.5,1.5,0,0,0-.18-.41,1.11,1.11,0,0,0-.3-.22,1,1,0,0,0-.17.34c0,.66-.09,1.33-.2,2-.06-.3-.11-.59-.17-.89a4.78,4.78,0,0,0-.31-1.4,1.92,1.92,0,0,1-.1-1.57.76.76,0,0,1,.55-.62l.23-.11ZM126,17.72c-.05-.88-.08-1.63-.13-2.38a3.67,3.67,0,0,0-.11-.81c-.17-.6-.56-.69-1.09-.29a1.05,1.05,0,0,1-.47.24c-.36.06-.41.35-.44.61s.07.45.06.67.11.41.41.41a.84.84,0,0,1,.53.12c.6.49.57.82-.07,1.29a1.7,1.7,0,0,0-.76,1.89c.06.25.17.45.5.41s.73,0,1.09-.11a.58.58,0,0,0,.34-.39C126,18.79,126,18.19,126,17.72Zm-.32,3.49a4.2,4.2,0,0,0-1,0c-.29.07-.69.05-.69.6,0,1-.07,2.08-.11,3.13a.27.27,0,0,0,.11.19,1,1,0,0,0,1.42-.41,10,10,0,0,0,.36-1.95A10.85,10.85,0,0,0,125.72,21.21Zm-3.93-9.84-.14-.06a8.33,8.33,0,0,0-1.38,4.2,10.2,10.2,0,0,0,1.28-.79,1.17,1.17,0,0,0,.46-1.25C121.93,12.77,121.86,12.07,121.79,11.37ZM119.86,21h.1c.55-.65,1.1-1.29,1.63-1.95a1.11,1.11,0,0,0,.15-.37c.11-.37,0-.54-.4-.55h-.88c-.64,0-.76.21-.65.83a7.27,7.27,0,0,1,0,1.15Zm.59-3.61c.28-.06.73-.16,1.18-.29.11,0,.27-.15.27-.23a3.85,3.85,0,0,0-.11-1.08c0-.12-.4-.26-.51-.2a2.48,2.48,0,0,0-1.35,1.22C119.78,17.19,119.88,17.36,120.45,17.37Z"/><path class="cls-1" d="M133.73,8.26c-.47.62-1.11.47-1.72.36s-1-.26-1.53-.39c-.06-.56.5-1,.18-1.6a1.77,1.77,0,0,0-1.27-.91c0-.7.93-1.31,1.81-1a4.31,4.31,0,0,1,2.24,2c.1.16.19.33.29.5Z"/><path class="cls-1" d="M111.5,13.56l-1.7.83a.46.46,0,0,1-.07-.07,3.34,3.34,0,0,1,.35-.4c.33-.28.26-.52,0-.76s-.55-.29-.77,0c-.38.46-.69,1-1.07,1.42s-.7.71-1,1.06-.52.61-.81.88c-.65.62-1.3,1.24-2,1.8a19.24,19.24,0,0,1-2.2,1.63,13.62,13.62,0,0,1-2.08.87,8.62,8.62,0,0,1-1,.29,2.08,2.08,0,0,1-.5,0l-.1-.16,1.11-1.12c1-1,2.08-2.05,3.1-3.1.64-.66,1.24-1.35,1.86-2,.23-.26.42-.55.65-.82.4-.47.83-.92,1.2-1.41.73-.95,1.49-1.89,2.14-2.9s1.17-2.08,1.73-3.13a1.78,1.78,0,0,0-.35-1.76c.29-.19.58-.4.88-.56A1.36,1.36,0,0,1,112.13,4c.35.17.74.27,1.08.46a.84.84,0,0,1,.32,1.06,2.41,2.41,0,0,0-.09.58c1.32-.29,2.54-.6,3.77-.81a1.53,1.53,0,0,1,1.47,1,.8.8,0,0,1-.46,1,7.06,7.06,0,0,1-1.28.25,10,10,0,0,0-2.56.92c-.28.1-.55.25-.92.42.13-.27.21-.45.3-.62s0-.3-.21-.31a2.6,2.6,0,0,1-.56,0c-.71-.16-.94.4-1.19.83-.55.92-1,1.88-1.57,2.82-.11.2-.18.42-.28.65a5.13,5.13,0,0,0,3-1,1.42,1.42,0,0,1,1.71-.11c.36.25.46.61.1.88s-.75.38-1.11.61-.57.36-.6.58a1.08,1.08,0,0,0,.75,1.1,1.08,1.08,0,0,1,.59.58c.12.34-.12.58-.48.71a3.23,3.23,0,0,0-.8.42c-.27.18-.51,1.08-.3,1.33a.86.86,0,0,0,.63.16,1.87,1.87,0,0,1,1.32.71,1.35,1.35,0,0,1-.22,1.19c-.56.6-1.16,1.16-1.68,1.8a2.18,2.18,0,0,0-.49,1.62c0,.44.28.6.64.37.65-.42,1.27-.89,1.88-1.36.38-.28.71-.61,1.14-1A13.49,13.49,0,0,1,113.81,24a19,19,0,0,1-1.53,1.68A19.33,19.33,0,0,1,110.39,27c-.24.17-.45.38-.69.53a2.06,2.06,0,0,1-1.87-.19c-.18-.16-.34-.35-.53-.49-.86-.65-.75-1.51-.56-2.4a6.17,6.17,0,0,0,.15-.7h1.89a1.67,1.67,0,0,0,.55,0c.22-.1.45-.24.17-.54a2.1,2.1,0,0,0-1.37-.86,2,2,0,0,1-.92-.37.78.78,0,0,1-.18-.57c0-.41.06-.83.11-1.35a1.59,1.59,0,0,0,.3-.09L109,19.3c.52-.24,1-.51,1.57-.72a1.25,1.25,0,0,0,.7-1.85c-1.28.68-2.57,1.35-3.84,2-.52.28-1.53-.36-1.56-1,0-.3.48-.68.7-.53.42.3.79.11,1.16,0a9.18,9.18,0,0,1,1.67-.7,5.57,5.57,0,0,0,1.84-1c.2-.14.24-.56.28-.87A9.94,9.94,0,0,0,111.5,13.56Zm-.65,8.25c-.12-.15-.3-.44-.37-.41a6.07,6.07,0,0,0-1.2.59c-.08.05-.07.39,0,.51a3.64,3.64,0,0,0,.62.62s.06,0,.08,0A1.76,1.76,0,0,0,110.85,21.81Z"/><path class="cls-1" d="M0,13.26l.44-.53a6.54,6.54,0,0,1,.52.4c.21.18.38.21.59,0A1.07,1.07,0,0,1,1.89,13c1.17-.47,2.36-.92,3.52-1.44.91-.4,1.78-.89,2.65-1.37a1.15,1.15,0,0,0,.59-1c0-.45.21-.9.24-1.36,0-.81,0-1.61,0-2.42,0-.22,0-.44,0-.67,0-.87-.23-1-.89-1.19a2,2,0,0,1-.41-.25c.11-.16.19-.38.34-.47a1.77,1.77,0,0,1,2,.44,4.68,4.68,0,0,1,.83,1.69,12.28,12.28,0,0,1,0,2.57c0,.35.11.55.47.49a5.42,5.42,0,0,1,3.9.82.44.44,0,0,1,0,.74,4.34,4.34,0,0,1-.64.41c-1.08.54-2.15,1.11-3.24,1.61A2.14,2.14,0,0,0,10.27,13c-.15.4-.28.82-.4,1.24-.2.71-.39,1.43-.57,2.14,0,.1,0,.29.11.31a.85.85,0,0,0,.52.05,2.18,2.18,0,0,0,.5-.31A2.44,2.44,0,0,1,12,16a2.17,2.17,0,0,1,1.25.55.52.52,0,0,0,.81-.08c.31-.43.59-.88.89-1.32a.48.48,0,0,1,.22-.2,12.84,12.84,0,0,1-1.69,5.95s-.16,0-.27,0a1,1,0,0,1-1.19-.74,5.28,5.28,0,0,0-.34-.89,5,5,0,0,0-.62-.69L9,21.17a.57.57,0,0,0-.11.25c-.1.69-.64,1-1.17,1.26-.24.12-.74-.18-.86-.45a7.07,7.07,0,0,0-.5-.94A1.45,1.45,0,0,1,6,20c0-.06-.09-.17-.17-.31a4.48,4.48,0,0,1,.27-.43,7.9,7.9,0,0,0,1.36-3.45,2.46,2.46,0,0,1,.33-1.11c.23-.34,0-.7-.09-1,0-.09-.27-.18-.38-.16-1.36.35-2.72.71-4.07,1.1a3.08,3.08,0,0,1-2.75-.34A3.91,3.91,0,0,1,0,13.75Z"/><path class="cls-1" d="M29.65,28.73a15,15,0,0,1-1.51-.85,8.29,8.29,0,0,1-1.46-1.31,8.32,8.32,0,0,1-.82-1.36,1.39,1.39,0,0,1,1.23,0c.28.11.6.12.89.22a2.69,2.69,0,0,1,.53.28c.18.1.26.08.34-.14a3.49,3.49,0,0,0-.11-1.7,10,10,0,0,1-.14-1.1c0-.83,0-1.65-.1-2.47-.05-.6-.22-1.2-.31-1.8-.12-.76-.22-1.53-.33-2.29,0-.29-.13-.57-.16-.86-.06-.7-.1-1.4-.17-2.1-.12-1.25-.3-2.5-.38-3.75-.07-.92,0-1.85,0-2.78,0,0,0-.05,0-.08,0-.71,0-1.41,0-2.12,0-.32-.21-.48-.51-.36a6.23,6.23,0,0,0-.8.44A3.82,3.82,0,0,1,23,5.18a1.2,1.2,0,0,1-.58-.47c-.17-.22,0-.36.23-.39a5.23,5.23,0,0,0,2.39-1.18c.24-.19.5-.36.74-.54a1.51,1.51,0,0,1,1.26-.15c.63.08,1.05.55,1.57.82s.51,1.16.4,1.61c-.18.73-.33,1.47-.45,2.21A17.62,17.62,0,0,0,28.36,9c0,.31.13.63.14.94,0,.6,0,1.2,0,1.79s.12,1.42.14,2.12.13,1.67.11,2.52a11.24,11.24,0,0,0,.16,2c.08.49.29,1,.4,1.45s.14,1,.25,1.53c.19.92.42,1.83.64,2.74l.33,1.35a1.6,1.6,0,0,0,.12.37A2.21,2.21,0,0,1,30,28.73Z"/><path class="cls-1" d="M24.66,18.12a4.57,4.57,0,0,0-.65-.3,5,5,0,0,1-1.57-1.07l-.85-.67a.29.29,0,0,0-.49.19c-.09.52-.16,1.05-.25,1.57-.11.72-.23,1.44-.35,2.16-.07.38-.15.75-.22,1.13a.24.24,0,0,1,0,.08c-.64,1.22-1.27,2.45-1.93,3.67a2,2,0,0,1-1.14.85l-.11-.09c.19-.27.38-.54.56-.82a9.33,9.33,0,0,0,.59-1c.34-.75.63-1.52.94-2.29a6.11,6.11,0,0,0,.43-1.22,15.07,15.07,0,0,0,.12-1.65c0-.17.06-.34.08-.51.06-.35.12-.71.16-1.06a21.24,21.24,0,0,1,.39-3.82,4.9,4.9,0,0,0-.06-.92c.05-2,.15-4,.14-5.95,0-1.19-.2-2.37-.3-3.56,0-.31,0-.62-.05-.94l.16,0c.22.43.47.85.67,1.28a7.74,7.74,0,0,1,.6,3c0,1,.1,1.9.16,2.85,0,.38.37.42.64.5a.77.77,0,0,0,.45,0,2.57,2.57,0,0,1,2.26.63,2.28,2.28,0,0,1,1.15,1.27.68.68,0,0,1-.22.78,20,20,0,0,1-2.09,1.57,7,7,0,0,0-1.51,1.14.6.6,0,0,0,.15,1,2.22,2.22,0,0,0,1.4.3,2.07,2.07,0,0,1,2,.59A1.2,1.2,0,0,1,26,18c-.05.08-.27.09-.42.1S25,18.12,24.66,18.12Zm-1-6.47c0-.67-1.07-1.29-1.66-1.31a.35.35,0,0,0-.24.23c0,.43,0,.87-.09,1.3s-.13,1.08-.19,1.61a1.1,1.1,0,0,0,1.13-.73,1.53,1.53,0,0,1,.32-.57A6.16,6.16,0,0,1,23.62,11.65Z"/><path class="cls-1" d="M61.4,22.1c0-.87-.13-1.75-.17-2.62,0-.25.11-.51.11-.76,0-.47,0-.94-.06-1.41,0-.72-.08-1.44-.11-2.16,0-.15.06-.31,0-.47,0-.55-.1-1.1-.15-1.66,0-.15,0-.31,0-.46,0-.41,0-.82-.07-1.23,0-.15-.09-.3-.11-.45a14.58,14.58,0,0,1-.18-1.48,5.53,5.53,0,0,0-.18-1.22,8.28,8.28,0,0,1-.3-1.78,5.18,5.18,0,0,0-1.07-2.74,1.29,1.29,0,0,0-.37-.33c-.24-.15-.41-.4-.65-.54A5.11,5.11,0,0,0,57,2.29.43.43,0,0,1,56.69,2H55.36c-.46.17-.93.33-1.39.52a3.27,3.27,0,0,0-1,.61c-.31.29-.65.57-1,.85a14.86,14.86,0,0,0-1.87,1.68c-.48.59-1.06,1.1-1.57,1.66s-.71.88-1.07,1.32a4,4,0,0,1-.27.31c-.34.39-.72.74-1,1.15-.58.83-1.12,1.69-1.68,2.54-.28.43-.58.85-.82,1.3-.57,1-1.09,2.14-1.73,3.16-.08.13-.11.3-.2.43s-.3.18-.39,0a1,1,0,0,1-.09-.42,18.06,18.06,0,0,1,.1-2,3.81,3.81,0,0,0-.12-1.43,1.87,1.87,0,0,1,.07-.56.7.7,0,0,0,0-.25,6.14,6.14,0,0,1-.26-1.81,1.92,1.92,0,0,0-.2-.91c-.08-.13,0-.33-.06-.49s-.1-.39-.23-.46-.3.06-.3.27,0,.67,0,1c0,.79,0,1.58-.13,2.37s-.08,1.43-.12,2.15c-.05,1-.16,1.9-.23,2.85,0,.23.06.46.05.69,0,.62-.06,1.25-.13,1.88,0,.32-.17.63-.22.95a6.46,6.46,0,0,0,0,.88,3.49,3.49,0,0,1-.74,2.24c-.09.11-.15.25-.23.37v.48c.21.28.41.55.61.84a7.89,7.89,0,0,0,.56.82c.12.14.36.18.53.28a2.57,2.57,0,0,1,.37.28.5.5,0,0,0,.84-.18c.16-.56.28-1.13.42-1.69l.57-2.52c.22-.92.42-1.84.64-2.76.06-.22.17-.42.24-.63a22.94,22.94,0,0,1,1.45-3.51c.29-.57.6-1.12.91-1.67a2.56,2.56,0,0,1,.2-.26,1,1,0,0,0,.28-.72c-.05-.42.25-.69.47-1s.31-.34.43-.54.25-.31.48-.18a2.92,2.92,0,0,0,1.57.25h1.47a3,3,0,0,1-.06.36c-.22.61-.45,1.23-.68,1.84s-.4,1.11-.59,1.66a1.73,1.73,0,0,0,.25,1.87l0,0c-.06.17,0,.33.15.37a.94.94,0,0,0,.43-.08c.17,0,.32-.1.48-.15a.72.72,0,0,1,.71,0,1.35,1.35,0,0,0,.48.12c.24,0,.28.15.21.4A9.31,9.31,0,0,1,50.71,21,27.62,27.62,0,0,1,48,24.35c-.29.33-.56.67-.88,1a.72.72,0,0,0-.11.3c-.22,0-.76.41-.88.85l.74-.55.46-.32s.08,0,.1-.06c.32-.61,1.09-.65,1.48-1.2.22-.32.53-.26.87.06s.55.66.87.91.64.82,1.14,1.06a5.72,5.72,0,0,1,.94.78,10.49,10.49,0,0,0,1.41,1,4.31,4.31,0,0,0,1.64.72c.34,0,.67.12,1,.16.13,0,.32,0,.39-.09A11.47,11.47,0,0,1,59,27.76a7.39,7.39,0,0,0,1-.68,4.74,4.74,0,0,0,.83-1.29,16.64,16.64,0,0,0,.61-2,1.79,1.79,0,0,0,0-.24C61.41,23.09,61.43,22.59,61.4,22.1Zm-2.85-1.68c0,.9-.21,1.8-.34,2.7-.09.6-.18,1.2-.32,1.78A1.46,1.46,0,0,1,57,26.06a5,5,0,0,1-1.68,0,7.07,7.07,0,0,1-2-.72c-.31-.14-.64-.23-1-.34a.48.48,0,0,1-.16-.08l-1-.65-.13.16,1.75,1.37v.1a1,1,0,0,1-.35,0,5.48,5.48,0,0,1-1.71-1.09c-.36-.32-.68-.68-1-1a3.24,3.24,0,0,1,1-1.16l.7-.67a4,4,0,0,1,.39-.33,7.34,7.34,0,0,0,1.69-1.5q.4-.52.78-1.08a1.44,1.44,0,0,0-.05-1.81,6.5,6.5,0,0,0-.95-.94,3.63,3.63,0,0,0-.68-.35A.73.73,0,0,0,52,16c-.09,0-.21,0-.32,0a2,2,0,0,1,.08-.26l.4-.75c.28-.54.57-1.06.82-1.61a6.29,6.29,0,0,0,.41-1.2,1.11,1.11,0,0,0-.59-1.24,14.54,14.54,0,0,0-1.42-.72,1,1,0,0,0-1,.17,2.55,2.55,0,0,0-.38.26,2.3,2.3,0,0,1-1.55.58,1.49,1.49,0,0,1-.21,0c-.09,0-.19,0-.29,0a.84.84,0,0,1,.07-.33c.27-.35.58-.68.85-1,.4-.53.77-1.09,1.18-1.62S51,7,51.49,6.34a5.91,5.91,0,0,1,2-1.56,2.88,2.88,0,0,1,2.13-.31A1.31,1.31,0,0,1,56.2,5c.23.29.37.65.58,1a5,5,0,0,1,.63,1.74c.18.69.37,1.39.52,2.09.1.5.12,1,.22,1.53a4.46,4.46,0,0,0,.28,1.62s0,.08,0,.12c.07,1.33.15,2.66.18,4C58.64,18.16,58.63,19.29,58.55,20.42Z"/></g></g></svg>