<svg xmlns="http://www.w3.org/2000/svg" viewBox="0 0 154.43 154.78"><defs><style>.cls-1{fill:#f7931e;}</style></defs><title>資產 4</title><g id="圖層_2" data-name="圖層 2"><g id="圖層_1-2" data-name="圖層 1"><path class="cls-1" d="M154.43,22.36c-1.87.12-3.73.34-5.6.35q-27.75,0-55.49,0c-9.57,0-7.75-.25-8,8.12-.08,2.82,0,5.64,0,9.51h27.48c0,.56,0,1.11,0,1.67H83V23.42H63c0,5.13-.12,10.24.05,15.35.1,3-1.1,4.19-4.09,4.09-4-.14-8,0-12-.07-3-.09-4.2,1-4.1,4.1.16,5.12,0,10.25,0,16-5.41,0-10.36.14-15.3-.05-3.31-.13-5,.78-4.77,4.45.23,3.82.15,7.66,0,11.49-.1,3,1,4.17,4.1,4.06,5.11-.18,10.24-.05,15.45-.05v27.36l-1.43.08V85.32c-5.91,0-10.84-.24-15.71.2-.94.09-2.32,2.85-2.34,4.39-.17,15.84-.11,31.67-.11,47.5v17.34l-1.93,0V63.23H2.34V125.3l-1.63,0V60.63H20.3c0-5.43.17-10.38-.15-15.3-.06-.9-2.12-2.28-3.32-2.36-4.32-.29-8.66-.17-13-.08-2.69,0-3.86-1-3.83-3.82C.11,27.24,0,15.4.17,3.57.18,2.37,1.64.17,2.45.16,15.74,0,29,0,42.88,0c0,5.75.13,10.89-.05,16-.12,3.28,1.19,4.26,4.38,4.35,13.49.37,13.49.46,13.53-13.14,0-2.14,0-4.29,0-6.57H133.3c0,.47,0,.94.08,1.42-1.87.1-3.74.3-5.61.3-19.67,0-39.34.11-59-.06-4.13,0-5.91.79-5.84,5.45.17,12.53,0,12.51,12.66,12.53q36.5,0,73,.13h5.77C154.38,21.07,154.4,21.72,154.43,22.36ZM2.54,21.62c0,5.15-.16,10.31.12,15.45.06,1.16,1.46,3,2.51,3.25,13.07,2.6,15.2.84,15.2-12.07,0-.16,0-.33,0-.49.08-7.37-1.86-7.45,7.45-7.47,13.44,0,13.36,0,12.88-13.72-.11-2.9-.88-4.23-4-4.19q-15.19.17-30.41,0c-3.19,0-3.92,1.45-3.83,4.28C2.64,11.65,2.53,16.63,2.54,21.62Zm29.16,39C42,60.39,40.56,62,40.62,51.51c.06-9.7,1.12-8.73-8.85-8.66-10.19.08-8.9-1.35-8.92,9.06C22.84,61.82,21.78,60.48,31.7,60.58ZM22.85,22.91c0,5.4-.18,10,.15,14.6.07,1.06,1.81,2.7,3,2.87,13.89,2,14.86,1.14,14.69-12.63,0-.5.2-1.15,0-1.46-.94-1.19-2-3.14-3.07-3.23C33,22.69,28.34,22.91,22.85,22.91Zm29,.08c-.83,0-1.66,0-2.49,0-6.44-.12-6.44-.12-6.46,6.39,0,11.13,0,11.13,11.37,11.13,6.5,0,6.5,0,6.51-6.54q0-1,0-2C60.62,21.78,62.16,23.12,51.82,23Z"/></g></g></svg>