<svg xmlns="http://www.w3.org/2000/svg" viewBox="0 0 130.8 29.3"><defs><style>.cls-1{fill:#fff;}</style></defs><title>資產 10</title><g id="圖層_2" data-name="圖層 2"><g id="圖層_1-2" data-name="圖層 1"><path class="cls-1" d="M0,13.86l.44-.54c.17.13.36.26.52.4a.37.37,0,0,0,.59,0,.91.91,0,0,1,.33-.15c1.18-.48,2.37-.92,3.52-1.44.91-.41,1.78-.89,2.65-1.37a1.13,1.13,0,0,0,.58-1c0-.46.22-.91.24-1.37.05-.8,0-1.61,0-2.41,0-.22,0-.45,0-.67,0-.87-.22-1-.89-1.19a1.9,1.9,0,0,1-.4-.25c.11-.16.18-.37.33-.47a1.79,1.79,0,0,1,2,.44,4.69,4.69,0,0,1,.82,1.68,11.72,11.72,0,0,1,0,2.58c0,.34.11.54.47.48a5.49,5.49,0,0,1,3.89.82.44.44,0,0,1,0,.74,3.59,3.59,0,0,1-.64.4c-1.08.55-2.15,1.12-3.24,1.62a2.13,2.13,0,0,0-1.05,1.42c-.15.41-.28.82-.39,1.24-.21.71-.4,1.42-.58,2.14a.36.36,0,0,0,.11.31.86.86,0,0,0,.52.05,1.77,1.77,0,0,0,.5-.32A2.49,2.49,0,0,1,12,16.59a2.11,2.11,0,0,1,1.24.55.52.52,0,0,0,.81-.08c.31-.43.6-.88.89-1.32a.54.54,0,0,1,.22-.2,12.8,12.8,0,0,1-1.69,5.94c-.05,0-.15,0-.26,0A1,1,0,0,1,12,20.76a5.28,5.28,0,0,0-.34-.89,4.43,4.43,0,0,0-.62-.68c-.74.89-1.42,1.72-2.1,2.56a.48.48,0,0,0-.11.24c-.11.69-.64,1-1.18,1.26-.23.13-.73-.17-.86-.44a5.6,5.6,0,0,0-.49-.94A1.42,1.42,0,0,1,6,20.55c0-.06-.09-.17-.17-.31S6,20,6.1,19.81a7.91,7.91,0,0,0,1.36-3.44,2.46,2.46,0,0,1,.33-1.11c.23-.33,0-.7-.1-1a.41.41,0,0,0-.38-.15c-1.35.35-2.71.7-4.06,1.09a3,3,0,0,1-2.74-.34A4.61,4.61,0,0,1,0,14.35Z"/><path class="cls-1" d="M29.6,29.3a13.93,13.93,0,0,1-1.51-.85,9.11,9.11,0,0,1-1.46-1.31,8.66,8.66,0,0,1-.82-1.35,1.4,1.4,0,0,1,1.23,0c.29.11.6.12.9.22a2.92,2.92,0,0,1,.52.28c.18.11.26.09.34-.14a3.57,3.57,0,0,0-.11-1.69,10.52,10.52,0,0,1-.14-1.11c0-.82,0-1.64-.1-2.46-.05-.6-.22-1.19-.31-1.79-.12-.76-.22-1.53-.33-2.29,0-.29-.13-.57-.16-.86-.06-.7-.1-1.4-.17-2.1-.12-1.25-.3-2.49-.38-3.74-.07-.92,0-1.85,0-2.77V7.26c0-.71,0-1.42,0-2.12,0-.32-.22-.48-.52-.36a6,6,0,0,0-.79.43A3.83,3.83,0,0,1,23,5.79a1.24,1.24,0,0,1-.58-.47c-.16-.22,0-.36.23-.39A5.23,5.23,0,0,0,25,3.75c.24-.19.5-.35.74-.54A1.54,1.54,0,0,1,27,3.06c.63.08,1,.55,1.56.82.37.18.51,1.16.4,1.61-.18.73-.33,1.47-.45,2.21a17.44,17.44,0,0,0-.24,1.89c0,.31.13.63.14.94,0,.6,0,1.19,0,1.79s.12,1.41.14,2.12.13,1.66.11,2.5a11.17,11.17,0,0,0,.16,2c.08.49.29,1,.4,1.45s.14,1,.24,1.53c.2.92.43,1.82.65,2.73q.15.68.33,1.35a1.15,1.15,0,0,0,.12.37,2.23,2.23,0,0,1-.69,2.93Z"/><path class="cls-1" d="M24.61,18.71a3.93,3.93,0,0,0-.64-.3,5.15,5.15,0,0,1-1.57-1.07c-.29-.22-.56-.45-.85-.68a.3.3,0,0,0-.49.2c-.09.52-.16,1-.24,1.57l-.36,2.15c-.06.38-.14.75-.21,1.13,0,0,0,.05,0,.08C19.58,23,19,24.24,18.3,25.45a2,2,0,0,1-1.14.85l-.11-.08c.19-.28.38-.54.55-.82a8.9,8.9,0,0,0,.6-1c.33-.75.63-1.51.93-2.28a6.15,6.15,0,0,0,.44-1.22,14.89,14.89,0,0,0,.12-1.64,4.17,4.17,0,0,1,.08-.51c.05-.36.12-.71.15-1.06a23.23,23.23,0,0,1,.39-3.82,3.65,3.65,0,0,0-.06-.92c.05-2,.16-4,.14-5.93,0-1.19-.19-2.37-.3-3.56,0-.31,0-.62-.05-.93l.17,0c.22.42.47.84.66,1.28a7.61,7.61,0,0,1,.6,3c0,1,.1,1.9.16,2.85,0,.38.37.42.64.5a.77.77,0,0,0,.45,0,2.54,2.54,0,0,1,2.25.63A2.23,2.23,0,0,1,26.12,12a.67.67,0,0,1-.21.78,18.39,18.39,0,0,1-2.09,1.57,7.39,7.39,0,0,0-1.51,1.14.59.59,0,0,0,.15,1,2.22,2.22,0,0,0,1.4.31,2,2,0,0,1,1.94.59,1.18,1.18,0,0,1,.1,1.2c0,.09-.27.1-.42.1S25,18.71,24.61,18.71Zm-1-6.46c0-.67-1.07-1.29-1.66-1.31a.35.35,0,0,0-.24.23c-.05.43-.05.87-.09,1.3s-.13,1.07-.19,1.6a1.1,1.1,0,0,0,1.13-.72,1.39,1.39,0,0,1,.32-.57A5.44,5.44,0,0,1,23.58,12.25Z"/><path class="cls-1" d="M80.78,28.7c0-1.1-.07-2.2-.06-3.31,0-.71.12-1.42.19-2.14,0-.49.12-1,.14-1.46.06-1.26.09-2.52.16-3.78a4.09,4.09,0,0,0,0-.78,3.64,3.64,0,0,1,.14-1.06,3.92,3.92,0,0,0,0-2c-.06-.15,0-.36,0-.54a5.2,5.2,0,0,0-.51-2.12c-.26-.66-.32-.85-.14-1.24,0,0,.07,0,.09,0a12,12,0,0,1,2.61,1.5,2,2,0,0,1,.93,1.72c0,.5-.07,1-.07,1.51,0,1.08,0,2.16.07,3.24a25,25,0,0,1,.18,2.86A13.29,13.29,0,0,1,84,24.77a1.35,1.35,0,0,1-.14.3A17.23,17.23,0,0,0,83,26.56a4.2,4.2,0,0,1-1.45,1.62,4,4,0,0,0-.49.52Z"/><path class="cls-1" d="M94.83,10.84l-.78.63-.59.42a.39.39,0,0,1-.15.06c-.62.07-1.24.17-1.86.19a3.22,3.22,0,0,1-.9-.19c-.65-.17-1.31-.31-1.94-.53A8,8,0,0,1,86.35,10c-.36-.29-.72-.6-1.07-.9a.37.37,0,0,1-.13-.21c0-.25-.16-.29-.35-.35a1.05,1.05,0,0,1-.42-.18c-.81-.74-1.62-1.48-2.4-2.26-.29-.3-.46-.71-.85-.93,0,0,0-.2,0-.22a.42.42,0,0,1,.31-.08,12.77,12.77,0,0,1,3.14,1.61,15.29,15.29,0,0,0,3.85,2c.24.08.49.11.72.19l1.28.5a2.57,2.57,0,0,0,1.77.06,1,1,0,0,1,1,.17c.5.36,1,.75,1.48,1.13a.49.49,0,0,0,.16.05Z"/><path class="cls-1" d="M77.3,0c.47.54,1,1.05,1.4,1.61A12.53,12.53,0,0,1,79.54,3a1.27,1.27,0,0,1-.23,1.56,13.18,13.18,0,0,0-2.47,3.25c-.64,1-1.19,2-1.8,3-.38.58-.81,1.11-1.21,1.68-.57.84-1.11,1.7-1.71,2.52a2.29,2.29,0,0,1-2,1.08A3.41,3.41,0,0,1,69,15.64c-.3-.14-.31-.88,0-1.06a.44.44,0,0,1,.34,0,.81.81,0,0,0,.92-.22,24.42,24.42,0,0,0,3.18-4.2c.3-.43.61-.85.89-1.28A13,13,0,0,0,75.1,7.5c.21-.42.3-.9.51-1.32s.65-1.09.91-1.66a6.27,6.27,0,0,0,.32-1.24,6.17,6.17,0,0,0,.2-.85c.08-.78.12-1.57.18-2.35Z"/><path class="cls-1" d="M75,13.74c.4.31.79.59,1.14.91a2.55,2.55,0,0,1,1,1.74,5.71,5.71,0,0,0,.27.93,1.44,1.44,0,0,1-.08,1.15s-.06.08,0,.09c.32.39-.11.58-.24.84a2.25,2.25,0,0,1-.12.21,1,1,0,0,1-1.39.48,1.58,1.58,0,0,1-.59-1,11,11,0,0,1,0-2,6.4,6.4,0,0,0,0-2.31C74.75,14.24,74.79,14,75,13.74Z"/><path class="cls-1" d="M102.33,12.71h0c.21-.86,1-1.27,1.5-1.91s1-1.12,1.55-1.68l.1.07-.84,1.61.06.09a2.1,2.1,0,0,0,.56-.28c.33-.32.62-.67.93-1a2.66,2.66,0,0,1,.26-.31,12.73,12.73,0,0,0,2-2.29,1.45,1.45,0,0,0,.22-.38,1,1,0,0,0,0-.27,6.25,6.25,0,0,0-1,.49,6.5,6.5,0,0,0-.78.71l-.1-.08a10.45,10.45,0,0,1,.7-.91c.43-.49.9-1,1.35-1.44.29-.32.43-.75.86-1,.15-.08.13-.47.28-.58.61-.42.75-1.16,1.22-1.65a1.66,1.66,0,0,0,.44-1.2A1.79,1.79,0,0,1,112,.26a4.92,4.92,0,0,1,.5.7,10.11,10.11,0,0,1,.87,1.93,3.5,3.5,0,0,1-.44,2.65,4.9,4.9,0,0,1-1.63,1.75,7.17,7.17,0,0,0-1.19,1c-.08.07-.13.18-.2.25-.27.28-.21.46.12.65a2.77,2.77,0,0,1,1.4,1.85.89.89,0,0,1-.13.6c-.56.75-1.15,1.47-1.73,2.2-.32.41-.65.8-1,1.2l-1.07,1.38a1,1,0,0,0-.13.25l0,.11a4.77,4.77,0,0,0,.65-.17,1.53,1.53,0,0,1,2.19.86,1.14,1.14,0,0,1-.1.83,7.17,7.17,0,0,0-.9,2.41c-.24,1.08-.54,2.15-.81,3.23a.27.27,0,0,0,0,.23,25.77,25.77,0,0,0,3.6-5.66c.24.39,0,.62-.13.85a.54.54,0,0,0-.15.43,2,2,0,0,1-.24.72c-.12.28-.13.52.23.64l.41-.62.1,0c-.08.32-.14.64-.24,1-.29.85-.63,1.69-.9,2.55s-.53,1.88-.84,2.8a10.07,10.07,0,0,1-.6,1.29c0,.08-.18.11-.27.14s-.37.1-.55.15h-.6c-.23-.12-.24-.38-.36-.58a6.68,6.68,0,0,0-.63-.68c-.33-.44-.72-.89-.54-1.5.23-.82.52-1.62.77-2.44.41-1.37.81-2.75,1.22-4.13a.62.62,0,0,0-.82.12,6.32,6.32,0,0,1-1.3,1.18c-.71.42-1.19.12-1.34-.7-.06-.35-.2-.7-.27-1.05a.69.69,0,0,1,.08-.52c.35-.41.77-.76,1.13-1.17a22.74,22.74,0,0,0,1.6-1.93c.68-.95,1.31-1.95,1.92-2.95a1.53,1.53,0,0,0,.2-.85c0-.7-.54-1.13-1.07-1.64-.73.69-1.51,1.34-2.19,2.08A11.27,11.27,0,0,1,104,14a1.17,1.17,0,0,1-1,0c-.32-.09-.62-.2-.61-.63,0-.07-.09-.13-.14-.2Z"/><path class="cls-1" d="M128.47,24l-.46.51a3.16,3.16,0,0,1-.52.06,1.41,1.41,0,0,1-.45-.11c-.27-.09-.54-.32-.8.11-.1-.13-.18-.22-.25-.33s-.27-.38-.56-.32a.2.2,0,0,1-.16,0c-.22-.33-.46-.24-.78-.13a4.93,4.93,0,0,1-1.23.17c-1.23.09-2.46.18-3.69.25a1.22,1.22,0,0,1-.49-.18c-.49-.24-.51-.23-.79.22a1.44,1.44,0,0,1-.48.5.69.69,0,0,1-.63,0,6.44,6.44,0,0,1-1.06-1.27,2.72,2.72,0,0,1-.29-1,16.85,16.85,0,0,0-.26-1.89,7.88,7.88,0,0,0-.72-1.53c-.28-.51-.59-1-.89-1.51.44-.2.75.13,1.1.24a6.2,6.2,0,0,1,1.36.53,1.62,1.62,0,0,0,1.39.12,6.27,6.27,0,0,0,1-.37c.66-.28,1.35-.47,2-.69a18.53,18.53,0,0,1,1.89-.56,22.46,22.46,0,0,0,4.23-1.37,2.78,2.78,0,0,1,2.87.35,2.31,2.31,0,0,1,1,2.18.81.81,0,0,1-.3.48c-.44.35-.92.65-1.35,1A11.55,11.55,0,0,0,128,20.47c-.07.07,0,.31,0,.4a2.32,2.32,0,0,0,.5.43,1.09,1.09,0,0,1,.22,1.69C128.51,23.27,128.3,23.57,128.47,24Zm-2.11-6a2.85,2.85,0,0,0-2.65-.13,16.78,16.78,0,0,1-3.54,1.27,4.14,4.14,0,0,1-1.82,0,1.36,1.36,0,0,0-.35,0,1.14,1.14,0,0,0,.11.37,6.53,6.53,0,0,1,1.14,2.48c0,.22.12.24.28.23.81-.06,1.61-.09,2.41-.17a3.76,3.76,0,0,0,1-.27,6.59,6.59,0,0,0,2.44-2.25,14.82,14.82,0,0,0,.87-1.21A1.07,1.07,0,0,0,126.36,17.91Z"/><path class="cls-1" d="M123,9.67c-.37-.54-.4-.53-1.08-.34a6,6,0,0,0-2.1.9s-.1,0-.12.09c-.22.49-.75.51-1.14.73a.4.4,0,0,1-.59-.14,1,1,0,0,0-.24-.22c-.35-.23-.76-.36-.82-.89,0-.25-.3-.46-.39-.71-.18-.44,0-.67.34-1a10.85,10.85,0,0,0,1.39-1.32c.56-.65,1.08-1.33,1.58-2a3.25,3.25,0,0,0,.38-2.52c.37,0,.77.55,1,.94.32.59.63,1.19.89,1.81a1.74,1.74,0,0,1,0,.79,2.63,2.63,0,0,1-.5,1.56,1.06,1.06,0,0,0,1,0c.28-.12.56-.24.85-.34.1,0,.25-.09.31,0,.48.3,1,.07,1.44.06a3.41,3.41,0,0,1,1.6.55c.72.35.69,1.06,1,1.6,0,.07,0,.23-.1.33A6.77,6.77,0,0,1,126,11.06c-.69.56-1.36,1.13-2.09,1.62a7.59,7.59,0,0,0-1.4,1.25,10.94,10.94,0,0,1-2.66,2,4.77,4.77,0,0,0-.65.41,5.79,5.79,0,0,1-2.28.82C119.18,14.89,121.55,12.67,123,9.67Z"/><path class="cls-1" d="M61.12,22.15c0-.87-.13-1.74-.17-2.62,0-.25.1-.5.11-.76,0-.47,0-.93-.06-1.4,0-.72-.08-1.44-.11-2.15,0-.16.06-.32,0-.47,0-.56-.11-1.11-.16-1.66,0-.16,0-.31,0-.46,0-.41,0-.82-.07-1.23,0-.15-.09-.3-.11-.45a14.58,14.58,0,0,1-.18-1.48,5.71,5.71,0,0,0-.18-1.22,8.3,8.3,0,0,1-.3-1.77,5.18,5.18,0,0,0-1.07-2.74,1.14,1.14,0,0,0-.37-.32c-.24-.15-.41-.41-.65-.55a5.77,5.77,0,0,0-1.11-.49c-.17-.06-.26-.12-.31-.27H55.09c-.47.18-.94.34-1.39.53a2.91,2.91,0,0,0-1,.6c-.32.29-.66.57-1,.85a14.86,14.86,0,0,0-1.87,1.68c-.48.59-1.06,1.09-1.57,1.66-.38.41-.71.87-1.06,1.31L47,9.06c-.34.38-.71.73-1,1.14-.58.83-1.12,1.69-1.67,2.53-.28.43-.58.85-.82,1.3-.57,1.06-1.09,2.14-1.73,3.16-.08.13-.11.29-.2.43s-.3.18-.39,0a1.22,1.22,0,0,1-.09-.43c0-.64,0-1.3.1-1.94A3.65,3.65,0,0,0,41,13.78a1.77,1.77,0,0,1,.07-.55.57.57,0,0,0,0-.26,6.08,6.08,0,0,1-.26-1.8,1.81,1.81,0,0,0-.2-.91c-.08-.13,0-.33,0-.49s-.11-.39-.24-.45-.3,0-.3.26,0,.67,0,1c0,.79,0,1.58-.13,2.36s-.08,1.43-.12,2.15c-.05.95-.16,1.9-.22,2.85,0,.23,0,.46,0,.68,0,.63-.05,1.26-.12,1.88,0,.32-.18.63-.22,1a6.3,6.3,0,0,0,0,.87,3.5,3.5,0,0,1-.74,2.23c-.09.12-.15.25-.23.37v.49c.2.28.41.55.6.83a9.38,9.38,0,0,0,.57.83c.12.13.35.17.52.27a2.57,2.57,0,0,1,.37.28.5.5,0,0,0,.84-.18c.16-.56.28-1.12.42-1.69l.57-2.51c.22-.92.42-1.84.64-2.76.06-.21.17-.42.24-.63a23.25,23.25,0,0,1,1.45-3.5c.28-.57.6-1.12.9-1.67a2.43,2.43,0,0,1,.2-.25,1,1,0,0,0,.29-.72c-.05-.42.24-.69.46-1s.31-.35.43-.54.25-.31.48-.18a3,3,0,0,0,1.56.25h1.48a1.8,1.8,0,0,1-.07.35c-.22.62-.45,1.23-.67,1.84s-.4,1.11-.59,1.67A1.72,1.72,0,0,0,49.25,18s0,0,0,0c0,.17,0,.33.16.36a1,1,0,0,0,.43-.07l.48-.15a.7.7,0,0,1,.7,0,1.41,1.41,0,0,0,.48.11c.24.05.29.16.21.41a9.39,9.39,0,0,1-1.27,2.35,27.64,27.64,0,0,1-2.66,3.34c-.3.33-.57.68-.89,1-.07.06-.07.19-.11.29-.22,0-.76.41-.87.85l.74-.54.45-.32s.08,0,.1-.06c.32-.62,1.09-.66,1.48-1.21.22-.31.53-.25.87.06a12.56,12.56,0,0,0,.87.91c.42.32.63.82,1.14,1.06a6.11,6.11,0,0,1,.93.78,10.49,10.49,0,0,0,1.41,1,4.4,4.4,0,0,0,1.64.72c.33,0,.66.12,1,.15a.51.51,0,0,0,.39-.08,11.87,11.87,0,0,1,1.78-1.21,7.39,7.39,0,0,0,1-.68,5.11,5.11,0,0,0,.83-1.28c.26-.63.41-1.31.61-2a1,1,0,0,0,0-.24C61.12,23.14,61.14,22.64,61.12,22.15Zm-2.84-1.68c-.06.9-.22,1.8-.35,2.7a17.24,17.24,0,0,1-.32,1.77,1.41,1.41,0,0,1-.93,1.16,5.25,5.25,0,0,1-1.68,0,6.8,6.8,0,0,1-2-.73c-.31-.13-.64-.22-1-.34L51.91,25l-1-.65-.13.15,1.74,1.37s0,.07,0,.1a.79.79,0,0,1-.34,0,5.32,5.32,0,0,1-1.72-1.08c-.35-.33-.67-.69-1-1a3.27,3.27,0,0,1,1-1.15l.71-.67a3.9,3.9,0,0,1,.38-.33,7.34,7.34,0,0,0,1.69-1.5c.27-.34.53-.71.78-1.07a1.44,1.44,0,0,0,0-1.81,6.5,6.5,0,0,0-1-.94,3.63,3.63,0,0,0-.68-.35.71.71,0,0,0-.62,0c-.09,0-.22,0-.33,0a2,2,0,0,1,.09-.26c.12-.25.26-.5.39-.75.28-.53.57-1.06.82-1.61a5.08,5.08,0,0,0,.41-1.19,1.12,1.12,0,0,0-.58-1.24,15.94,15.94,0,0,0-1.43-.72,1,1,0,0,0-1,.17,3.3,3.3,0,0,0-.39.26,2.26,2.26,0,0,1-1.54.58,1.49,1.49,0,0,1-.21,0c-.09,0-.19,0-.29,0a.84.84,0,0,1,.07-.33c.27-.35.58-.68.85-1,.4-.53.77-1.09,1.18-1.61s1-1.2,1.45-1.81a5.72,5.72,0,0,1,2-1.56,2.83,2.83,0,0,1,2.11-.31,1.33,1.33,0,0,1,.63.53c.22.29.36.65.58,1a4.9,4.9,0,0,1,.62,1.74c.18.69.37,1.38.52,2.08.11.5.13,1,.22,1.52A4.55,4.55,0,0,0,58.15,13s0,.08,0,.12c.06,1.32.15,2.65.17,4C58.36,18.22,58.35,19.35,58.28,20.47Z"/></g></g></svg>