<svg xmlns="http://www.w3.org/2000/svg" viewBox="0 0 167.29 346.52"><defs><style>.cls-1{fill:#f7931e;}.cls-2{fill:#f8a13b;}</style></defs><title>資產 1</title><g id="圖層_2" data-name="圖層 2"><g id="圖層_1-2" data-name="圖層 1"><path class="cls-1" d="M0,61.69,2.38,58.8c.93.71,1.92,1.38,2.8,2.17,1.11,1,2.07,1.11,3.19,0a5.34,5.34,0,0,1,1.82-.84c6.36-2.58,12.79-5,19-7.78,4.89-2.19,9.6-4.8,14.31-7.39a6.27,6.27,0,0,0,3.17-5.56c.15-2.48,1.15-4.91,1.29-7.39.24-4.34.09-8.7.15-13,0-1.2.26-2.41.23-3.61-.1-4.73-1.21-5.47-4.82-6.43A8.67,8.67,0,0,1,41.4,7.52c.58-.85,1-2,1.79-2.5,2.86-1.76,9-.56,10.9,2.35s4,5.92,4.49,9.12c.7,4.53.16,9.28-.15,13.92-.12,1.89.63,2.93,2.56,2.64a29.37,29.37,0,0,1,21,4.44,2.37,2.37,0,0,1,.09,4,22.18,22.18,0,0,1-3.47,2.17c-5.81,3-11.59,6-17.52,8.73C57.67,54,56.59,57,55.47,60.08c-.8,2.21-1.5,4.46-2.14,6.72-1.09,3.84-2.13,7.7-3.09,11.58-.13.5.21,1.53.58,1.67a4.79,4.79,0,0,0,2.83.28,11.93,11.93,0,0,0,2.7-1.72,13.31,13.31,0,0,1,8.71-2.14,11.5,11.5,0,0,1,6.71,3c1.41,1.14,3.16,1.29,4.39-.45,1.66-2.34,3.2-4.76,4.81-7.14a2.73,2.73,0,0,1,1.18-1.05A69.13,69.13,0,0,1,73,103a12.51,12.51,0,0,0-1.42.08c-3.46.5-5.17-.56-6.44-4a28.48,28.48,0,0,0-1.86-4.79A26.88,26.88,0,0,0,60,90.52c-4,4.86-7.72,9.36-11.4,13.88a2.78,2.78,0,0,0-.6,1.33c-.55,3.73-3.46,5.3-6.34,6.8-1.3.68-4-.94-4.66-2.41a39.23,39.23,0,0,0-2.65-5.06c-1.44-2.21-2.86-4.32-1.87-7.16.12-.32-.48-.89-.92-1.65A25.76,25.76,0,0,1,33,93.9c4.11-5.55,6.22-11.93,7.37-18.6.36-2.13.43-4.15,1.77-6s.1-3.76-.5-5.53a2.36,2.36,0,0,0-2.07-.85c-7.34,1.89-14.68,3.81-22,5.9C12.34,70.29,7.36,70.19,2.75,67A24.34,24.34,0,0,1,0,64.33Z"/><path class="cls-1" d="M160.18,145.24a76.52,76.52,0,0,1-8.17-4.59,48.49,48.49,0,0,1-7.92-7.08c-1.83-2.09-2.94-4.82-4.42-7.33a7.63,7.63,0,0,1,6.67,0c1.53.6,3.25.68,4.83,1.19A15.92,15.92,0,0,1,154,129c1,.56,1.43.45,1.82-.77,1-3.17-.09-6.12-.57-9.15a55.09,55.09,0,0,1-.76-6c-.23-4.44-.14-8.9-.53-13.32-.29-3.26-1.19-6.46-1.7-9.71-.64-4.12-1.16-8.26-1.77-12.38-.23-1.56-.69-3.09-.84-4.65-.37-3.78-.55-7.57-.92-11.34-.68-6.75-1.63-13.48-2.1-20.25-.34-5-.1-10-.11-15,0-.15,0-.3,0-.44,0-3.82.05-7.64,0-11.46,0-1.73-1.18-2.57-2.8-1.94a33.37,33.37,0,0,0-4.3,2.35c-4.65,2.65-9.57,4.3-14.95,3.09a6.46,6.46,0,0,1-3.16-2.53c-.88-1.18.2-1.94,1.26-2.11,5-.83,9.07-3.31,12.92-6.36,1.3-1,2.69-1.93,4-2.92,2.12-1.61,4.4-1.16,6.8-.83,3.4.46,5.63,3,8.48,4.43,2,1,2.75,6.3,2.15,8.71-1,4-1.77,8-2.45,12a95.63,95.63,0,0,0-1.27,10.25c-.1,1.67.69,3.37.76,5.08.13,3.21-.07,6.45.07,9.66.16,3.83.66,7.64.79,11.47.15,4.52.71,9,.58,13.57a58.52,58.52,0,0,0,.88,10.8c.42,2.66,1.57,5.2,2.14,7.84s.74,5.56,1.33,8.29c1.06,5,2.3,9.86,3.48,14.79.58,2.43,1.17,4.85,1.78,7.28a7.27,7.27,0,0,0,.67,2c3.27,5.34,1.26,12.3-3.75,15.82Z"/><path class="cls-1" d="M133.19,88a21.93,21.93,0,0,0-3.48-1.63c-3.45-1.07-5.81-3.66-8.52-5.78-1.53-1.19-3-2.44-4.55-3.65a1.57,1.57,0,0,0-2.65,1c-.51,2.82-.89,5.67-1.34,8.5q-.95,5.83-1.94,11.66c-.35,2-.77,4.07-1.16,6.11a1.38,1.38,0,0,1-.11.41c-3.46,6.62-6.88,13.26-10.44,19.84-1.32,2.44-3.64,3.73-6.17,4.59l-.56-.46c1-1.47,2-2.92,3-4.44a45.75,45.75,0,0,0,3.22-5.53c1.81-4.07,3.42-8.22,5.06-12.35a34.39,34.39,0,0,0,2.36-6.59,85.09,85.09,0,0,0,.64-8.92c.07-.93.3-1.84.43-2.76.29-1.91.65-3.82.83-5.74.67-6.88.26-13.86,2.11-20.65.41-1.5-.35-3.29-.31-4.94.25-10.72.83-21.43.76-32.14,0-6.41-1.07-12.81-1.63-19.22-.15-1.69-.19-3.38-.29-5.07l.9-.22c1.21,2.3,2.54,4.55,3.61,6.92A41.75,41.75,0,0,1,116.2,23.3c.12,5.15.51,10.3.87,15.44.14,2,2,2.24,3.46,2.69a4.35,4.35,0,0,0,2.4,0c4.84-1.58,8.49,1,12.21,3.37,2.69,1.69,5.25,3.45,6.21,6.84a3.67,3.67,0,0,1-1.16,4.23,107,107,0,0,1-11.28,8.5,38.1,38.1,0,0,0-8.19,6.15c-1.82,1.91-1.52,4.38.81,5.49s4.6,2.13,7.56,1.65c3.78-.61,7.58,0,10.55,3.2,1.44,1.57,1.46,4.82.54,6.5-.26.47-1.49.5-2.28.55C136.56,88,135.21,88,133.19,88Zm-5.61-35c-.07-3.63-5.77-7-9-7.06a1.87,1.87,0,0,0-1.31,1.24c-.26,2.33-.25,4.69-.48,7-.27,2.9-.67,5.79-1,8.68a6,6,0,0,0,6.12-3.95,7.66,7.66,0,0,1,1.74-3.07A30.79,30.79,0,0,1,127.58,53Z"/><path class="cls-1" d="M153.75,270.85c-.24-4.72-.69-9.44-.9-14.17-.06-1.36.55-2.73.56-4.11,0-2.53-.16-5.07-.29-7.61-.2-3.88-.46-7.76-.63-11.64,0-.84.34-1.71.28-2.54-.22-3-.56-6-.83-9-.07-.82-.05-1.65-.09-2.48-.12-2.21-.2-4.42-.38-6.63-.07-.83-.47-1.63-.58-2.47-.38-2.65-.86-5.3-1-8a30.63,30.63,0,0,0-1-6.64,46.55,46.55,0,0,1-1.61-9.59c-.29-5.64-2.65-10.34-5.79-14.81a6.44,6.44,0,0,0-2-1.74c-1.27-.81-2.19-2.21-3.48-3a31,31,0,0,0-6-2.68,2.24,2.24,0,0,1-1.69-1.41h-7.19c-2.51.93-5.05,1.81-7.53,2.82a16.9,16.9,0,0,0-5.26,3.28c-1.68,1.55-3.53,3.07-5.3,4.61-3.4,3-7.18,5.5-10.11,9.08-2.6,3.17-5.72,5.9-8.47,8.95-2,2.27-3.85,4.74-5.76,7.12-.47.58-1,1.14-1.48,1.7a74.39,74.39,0,0,0-5.46,6.21c-3.16,4.47-6.07,9.12-9.07,13.7-1.51,2.32-3.14,4.58-4.45,7-3.08,5.71-5.87,11.59-9.32,17.1-.44.72-.63,1.59-1.08,2.3-.68,1.09-1.62,1-2.11-.19a6,6,0,0,1-.51-2.3,105.07,105.07,0,0,1,.54-10.51,20.61,20.61,0,0,0-.62-7.75c-.22-.91.24-2,.35-3a3.16,3.16,0,0,0,0-1.37c-1.18-3.16-1.17-6.49-1.4-9.77A10.19,10.19,0,0,0,43,206.52c-.42-.69-.05-1.82-.28-2.68s-.59-2.07-1.26-2.44c-1-.54-1.64.3-1.64,1.44,0,1.8.07,3.61,0,5.42-.18,4.26-.19,8.54-.71,12.76-.47,3.88-.41,7.75-.62,11.63-.28,5.15-.87,10.28-1.24,15.42-.08,1.22.32,2.46.27,3.69-.15,3.39-.31,6.78-.68,10.15-.19,1.75-1,3.43-1.2,5.18a34.18,34.18,0,0,0,0,4.75,18.85,18.85,0,0,1-4,12.07,18.54,18.54,0,0,0-1.22,2v2.61c1.08,1.5,2.19,3,3.25,4.5a46.28,46.28,0,0,0,3,4.47c.66.75,1.91.95,2.84,1.5a11.42,11.42,0,0,1,2,1.52,2.72,2.72,0,0,0,4.52-1c.88-3,1.55-6.06,2.27-9.11,1.06-4.53,2.08-9.08,3.12-13.63,1.15-5,2.26-9.93,3.46-14.89.29-1.17.92-2.26,1.28-3.42a122.11,122.11,0,0,1,7.85-19c1.54-3.05,3.22-6,4.88-9a15.34,15.34,0,0,1,1.1-1.37c.83-1.17,1.73-2.28,1.53-3.91-.28-2.26,1.32-3.71,2.5-5.32.74-1,1.69-1.87,2.35-2.93s1.32-1.67,2.56-1c2.66,1.49,5.57,1.41,8.48,1.35,2.58,0,5.17,0,8,0a11.45,11.45,0,0,1-.35,1.94c-1.18,3.32-2.43,6.63-3.63,9.95-1.09,3-2.17,6-3.21,9-1.22,3.57-1.41,7,1.34,10.08,0,0,.1.09.09.12-.29.92,0,1.78.85,2a5.27,5.27,0,0,0,2.33-.4c.88-.23,1.72-.57,2.58-.82,1.28-.37,2.49-.76,3.8.2a6.81,6.81,0,0,0,2.59.63c1.3.26,1.56.85,1.17,2.18-1.39,4.76-4.29,8.65-6.91,12.73-4.2,6.53-9.26,12.33-14.41,18.11-1.58,1.77-3.06,3.66-4.78,5.33-.37.35-.41,1-.6,1.59-1.17-.23-4.12,2.22-4.74,4.61,1.34-1,2.67-2,4-3,.81-.59,1.64-1.16,2.46-1.73.18-.11.45-.16.54-.32,1.71-3.32,5.9-3.54,8-6.52,1.2-1.69,2.86-1.39,4.71.34,1.66,1.54,2.93,3.55,4.71,4.9,2.25,1.71,3.42,4.42,6.14,5.75,1.92.93,3.33,2.85,5.07,4.21a57.45,57.45,0,0,0,7.64,5.53c2.81,1.53,5.47,3.54,8.85,3.87,1.8.18,3.58.65,5.38.84a2.88,2.88,0,0,0,2.13-.44c2.65-3,6.59-4.11,9.63-6.54,1.65-1.32,3.78-2.16,5.14-3.7a25.85,25.85,0,0,0,4.5-6.94,101.06,101.06,0,0,0,3.3-10.65,4.6,4.6,0,0,0,.07-1.29C153.78,276.19,153.89,273.52,153.75,270.85Zm-15.38-9.11c-.31,4.9-1.17,9.77-1.88,14.64-.47,3.21-.92,6.44-1.7,9.58-.69,2.8-2.25,5.6-5.06,6.27s-6.08.38-9.1.08c-3.83-.38-7.15-2.43-10.64-3.92-1.68-.73-3.45-1.23-5.18-1.84a3.5,3.5,0,0,1-.88-.4c-1.72-1.13-3.43-2.28-5.26-3.51l-.71.83,9.45,7.4c0,.19,0,.38-.08.57a5.3,5.3,0,0,1-1.86,0,29.09,29.09,0,0,1-9.28-5.86c-1.91-1.74-3.63-3.7-5.42-5.53,1.14-2.75,3.21-4.46,5.21-6.25,1.3-1.18,2.53-2.44,3.82-3.64a19.46,19.46,0,0,1,2.09-1.76,40,40,0,0,0,9.11-8.1c1.49-1.89,2.88-3.85,4.25-5.82,2.29-3.31,2-6.7-.3-9.77a30.57,30.57,0,0,0-5.14-5.09,19.21,19.21,0,0,0-3.67-1.88,3.81,3.81,0,0,0-3.36,0c-.49.19-1.18-.13-1.78-.22a10.34,10.34,0,0,1,.48-1.39c.69-1.36,1.43-2.69,2.13-4.05,1.5-2.89,3.1-5.74,4.44-8.71a31.54,31.54,0,0,0,2.22-6.45c.63-2.91-.79-5.24-3.18-6.71a74,74,0,0,0-7.7-3.89c-1.9-.89-3.61-.13-5.21.91a16,16,0,0,0-2.08,1.43,12.56,12.56,0,0,1-8.36,3.13,10.88,10.88,0,0,1-1.12.11,13.86,13.86,0,0,1-1.57-.25c.11-.6,0-1.34.37-1.77,1.47-1.91,3.11-3.69,4.57-5.61,2.18-2.88,4.19-5.9,6.4-8.76,2.55-3.3,5.31-6.45,7.85-9.76a31.25,31.25,0,0,1,10.59-8.46,15.71,15.71,0,0,1,11.46-1.67c1.3.35,2.49,1.7,3.38,2.87,1.21,1.59,2,3.51,3.14,5.15,2,2.83,2.53,6.16,3.37,9.39,1,3.75,2,7.49,2.81,11.28.58,2.71.68,5.52,1.19,8.25.54,2.92-.09,6.05,1.5,8.79a1.33,1.33,0,0,1,.1.64c.33,7.17.8,14.34.94,21.52C138.83,249.58,138.76,255.68,138.37,261.74Z"/><path class="cls-1" d="M39.23,319.17h2.12V328H53.07v-8.87H55.2v20.77H53.07v-10H41.35v10H39.23Z"/><path class="cls-1" d="M63.12,319.17v12.54c0,5.24,2.93,6.62,5.74,6.62,3.31,0,5.72-1.44,5.72-6.62V319.17h2.14V331.6c0,6.6-3.57,8.58-7.92,8.58-4.2,0-7.85-2.16-7.85-8.35V319.17Z"/><path class="cls-1" d="M86.72,321H79.87v-1.87H95.74V321H88.87v18.9H86.72Z"/><path class="cls-1" d="M116,329.42c0,5.68-3.1,10.81-9.57,10.81-6,0-9.38-4.72-9.38-10.68s3.38-10.68,9.6-10.68C112.37,318.87,116,323.31,116,329.42Zm-16.71,0c0,4.65,2.49,8.9,7.24,8.9,5.12,0,7.23-4.2,7.23-8.91s-2.38-8.71-7.19-8.71C101.46,320.74,99.24,324.89,99.24,329.46Z"/><path class="cls-1" d="M120.4,339.94V319.17h2.95c3.12,4.92,10.21,15.95,11.46,18.21h0c-.19-2.85-.16-6-.16-9.39v-8.82h2.07v20.77H134c-2.93-4.68-10.22-16.32-11.62-18.62h0c.15,2.56.13,5.81.13,9.57v9.05Z"/><path class="cls-1" d="M158.82,339.94h-1.69a13.59,13.59,0,0,1-.23-3.1c-.82,1.45-2.52,3.35-6.59,3.35-6,0-9.09-4.54-9.09-10.45,0-6.21,3.33-10.87,9.49-10.87,4.64,0,7.64,2.46,8.27,6.24h-2.13c-.8-2.66-2.68-4.39-6.2-4.39-5,0-7.19,3.95-7.19,8.92,0,4.53,2.13,8.69,7,8.69s6.27-3.25,6.27-7.36v-.22h-6.32v-1.88h8.38Z"/><path class="cls-2" d="M158.22,345.57c.06-.09,0-.28-.15-.24l-.12.33Z"/><path class="cls-2" d="M157.06,345c-.21.16-.44.44-.31.74.2-.32.25-.18.47-.56a.21.21,0,0,1,.27.23c.06-.09.27.07.36-.14a.54.54,0,0,0-.81-.05C157,345.1,157,345,157.06,345Z"/><path class="cls-2" d="M140.19,344.44l.11,0Z"/><path class="cls-2" d="M129.75,344.26c.08,0,.11,0,.11-.07S129.73,344.23,129.75,344.26Z"/><path class="cls-2" d="M128,343.89l.11,0S128,343.87,128,343.89Z"/><path class="cls-2" d="M140.19,344.44l-.27-.1C139.9,344.44,140.06,344.42,140.19,344.44Z"/><path class="cls-2" d="M154.73,345.75a.28.28,0,0,0,.15-.08l-.14,0A.07.07,0,0,1,154.73,345.75Z"/><path class="cls-2" d="M144.8,344.17h.08L145,344Z"/><path class="cls-2" d="M148.33,344.12c-.08,0-.1.27-.13.39a.27.27,0,0,1,.17-.19A.58.58,0,0,0,148.33,344.12Z"/><path class="cls-2" d="M153.94,344.62l.1,0Z"/><path class="cls-2" d="M142.27,344.11a.62.62,0,0,0,0-.1A.17.17,0,0,0,142.27,344.11Z"/><path class="cls-2" d="M43.41,346.22v-.05S43.38,346.22,43.41,346.22Z"/><path class="cls-2" d="M39.31,344.83h.06a.92.92,0,0,0,0-.16Z"/><path class="cls-2" d="M124.7,343.53h0C124.8,343.51,124.75,343.51,124.7,343.53Z"/><path class="cls-2" d="M94.73,343.74c.34.25-.55.32,0,.6C94.64,344.23,95.15,343.9,94.73,343.74Z"/><path class="cls-2" d="M154.64,345.72h0Z"/><path class="cls-2" d="M94.69,344.34h0l0,0Z"/><path class="cls-2" d="M117.18,343.7a.33.33,0,0,0,.07.13A.23.23,0,0,0,117.18,343.7Z"/><path class="cls-2" d="M122.78,344.1l-.14,0A.3.3,0,0,0,122.78,344.1Z"/><path class="cls-2" d="M114.27,344.1c-.08,0-.1-.06-.21,0l0,0S114.18,344.05,114.27,344.1Z"/><path class="cls-2" d="M111.24,344.1l.05.06.1,0Z"/><path class="cls-2" d="M52.61,346.09a1.3,1.3,0,0,1-.14-.26C52.52,346,52.08,346.11,52.61,346.09Z"/><path class="cls-2" d="M154.73,345.6c0,.07,0,.1-.09.12l.1,0A.11.11,0,0,0,154.73,345.6Z"/><path class="cls-2" d="M114.14,346.32l-.48-.05A2.36,2.36,0,0,0,114.14,346.32Z"/><path class="cls-2" d="M74.34,346.05l-.11,0A.11.11,0,0,0,74.34,346.05Z"/><path class="cls-2" d="M112.24,346.32a.73.73,0,0,0-.28-.2.18.18,0,0,0,0,.07Z"/><path class="cls-2" d="M52.47,345.83Z"/><path class="cls-2" d="M49.3,346.5c.46,0,.22-.36.32-.57.54-.11.25.27.44.46.34-.1.6-.44.85-.43,0,.07.07.09,0,.16.37-.29,1.08,0,1.5-.38a.14.14,0,0,1,0,.09,1,1,0,0,1-.06-.5c.2,0,.38-.24.46,0-.13,0-.14.09-.2.17l.22-.11c.19.35-.3.12-.3.38.42-.11.91-.4,1.23-.3.07.34-.75.11-.32.42l-.5-.13c.38.53-.3,0,0,.53.66.1.73-.17,1.39-.07.14-.19,0-.28.1-.47.92-.34.73.85,1.41.4.18-.23.24-.66.73-.43l-.16.39c.63,0,.36-.56,1-.3-.12.15-.5.13-.4.18.43.3.3-.22.63-.22l.07.34c.68-.06,1.42-.3,2.17-.36,0,.1-.17.2,0,.31a7.78,7.78,0,0,1,2.92.24l.35-.29c.08,0,.15.13.06.19.35.11,0-.19.19-.3s.26.16.14.25a3.67,3.67,0,0,1,2.44-.22L66,346c.51.12.58-.6,1.06-.33l-.1.05c1.12.13,2.35-.14,3.2.3.16-.42,1.1.19,1.18-.4.63.29.45.4,1.35.6.23,0,.35-.37.65-.43v.31l.4-.33.21.37.28-.08c-.11,0-.24-.14-.22-.23a1.06,1.06,0,0,1,1.07.38l1-.26c0,.12-.19.16-.33.24.55-.31.1.33.6,0-.06-.07,0-.19,0-.25a1.86,1.86,0,0,0,1.24.11l-.08.21c.76.06,1.61-.1,2.46-.09a.26.26,0,0,1,0-.51l.1.33c.17-.2-.26-.12.07-.37.32,0,.22.37,0,.48l.38-.12c0,.1-.07.15-.09.28.16-.21.67.32.9,0l0,.1c.86,0,1.24-.11,1.94-.13,0-.28.28-.22.49-.44a7.28,7.28,0,0,0,1.69.28c.44-.14.13-.23.33-.4,0,.25.64.23.32.41a8.4,8.4,0,0,0,1.88-.26c-.1-.1-.21-.15-.16-.23s.39.1.37.23l0,0c1-.38,2.42.75,3.26.22l-.05,0,.87-.28c.4.05-.24.2,0,.36.94-.43,1.48.06,2.25-.23.59.76,2.11,0,2.92.43l0-.18c.21-.17.25.11.4.15,0-.14-.22-.16-.09-.26a27.09,27.09,0,0,1,5.43.42c.66.05.38-.92,1.21-.49l-.24.33c1.34-.4,2.73,0,4-.33-.08.08-.08.18-.21.18.28.24,1,0,1-.19.2,0,0,.18.17.28s.69-.31.84-.07c0,0-.08.08-.13.1.18-.12.84,0,.67-.25.49.13.93-.12,1.32,0,.26-.31.84.15.92-.29,0,.46.86.37,1.17.16-.1.13.27.14.15.33.35,0,.67-.09.61-.33.65.54,1.31-.43,1.68.26a25.2,25.2,0,0,1,3-.51c0,.45-1,0-1,.52a6.3,6.3,0,0,1,2.3-.47c.23.06-.13.2-.21.27.89-.18,1.73.05,2.52-.2,0,0-.09.09-.17.12.16,0,.37.07.35-.14l-.15.06c-.25-.3.62-.62.65-.78-.27.59.78.15.36.89.11,0,.23-.13.21-.27.15,0,.2.12,0,.27.56-.11.36-.33.87-.32,0,.1-.11.14-.16.25a1.13,1.13,0,0,1,1-.3c0,.06,0,.14-.11.14.74,0,1.26-.52,2.07-.33-.24.43.28.14.32.51l.44-.11-.18-.18c.38,0,.72-.26,1.05-.14l-.28.15.71-.07-.4-.14c.38-.19,0-.47.46-.37-.1,0,.38,0,.58.23h0a.74.74,0,0,1,.67-.16c.07.12-.06.42,0,.5.18-.32.89-.09,1.13-.42a.34.34,0,0,0-.06.31l.16-.25c.17.08.2.12.17.27.53.05-.17-.47.46-.26,0,0,0,.05-.13.09.64.11,1.23-.16,1.81,0,.17.37-.51.09-.31.41a14.39,14.39,0,0,1,2.55-.37l-.15,0c.11-.53.6.26,1,0-.1,0-.13.3-.1.24a6.46,6.46,0,0,0,2-.3l-.1.14a7.86,7.86,0,0,0,1.21.13c.11-.14.31-.11.19-.31,1.09.77,2.08-.42,3.05.23-.11,0-.27.12-.18.12l.82-.13c-.06-.23-.1-.14-.28-.32a.78.78,0,0,1,.54-.24c-.37.15,0,.37.17.5,0-.07,0-.15,0-.22.43.41.07-.47.66-.19l0,.12c.22-.06.43-.22.66-.19.1.27-.23.13-.25.35.34,0,.66-.51,1-.24-.14.07-.34.08-.48.15a.75.75,0,0,0,.61.28h0l.57.14-.14-.09c.41-.69.85-.12,1.41-.58-.55.43-.09.25-.13.55.14.09.36.18.3.27.26-.25.44.19.82-.17,0,.1.28,0,.22.26.35-.08-.08-.17-.05-.3.53-.33,1.25.41,2,0,.66-.19.78-.52,1.39-.68.21.16-.17.35-.17.35a1.11,1.11,0,0,0,.91,0c-.07.09,0,.16.09.27.26,0,.17-.36.5-.21a1.34,1.34,0,0,1-.25.39c.3-.09.59-.27.9-.36.08.17-.18.25-.29.37.34-.08.9-.16,1-.43l-.22-.09c.13,0,.07.23,0,.28a.27.27,0,0,1-.44-.19l.22-.07c-.23-.57-.89.1-1.33.06l.19-.41-.46.34c-.09-.11-.16-.34.06-.4-.32-.21-.28.15-.55-.08,0,0,0-.06,0-.07l-.31.12c.06-.09,0-.29.14-.23-.56-.24-.9.31-1.11,0l.05,0c-.77.14-.07.3-.65.66l-.39-.75-.08.3c-.08,0-.23,0-.21-.15-.29.21.06.13-.12.33-.38-.28-1,.13-1.14-.36-.14.23.37.18,0,.34-.12-.52-.47.09-.82-.15.1-.27.44-.13.09-.37-.21.46-.68-.1-1,0,0,.36-.64.15-1.14.27,0-.12-.93-.2-1.39-.33l0-.06c-.09.37-.57.3-.91.37a.39.39,0,0,1,.26-.4h-.33a.48.48,0,0,1-.38.22l.08-.27c-.44,0-.87.32-1.43.14,0,.25.44.71-.15.88,0-.14,0-.37.11-.43-.05,0-.18.12-.28.06l.24-.24c-.26-.1-.13.2-.34.18,0-.2-.15-.15-.12-.3s.18.08.26,0a.91.91,0,0,1-.6-.3c0,.11,0,.27-.17.29-.43,0-.15-.24-.4-.34-.1.14-.38,0-.39.29-.12,0-.15-.14-.19-.22-.23.13-1.05,0-.8.36l.06,0h0c-.73.29-1.52-.17-2.25,0v-.1a4.65,4.65,0,0,0-1.28.28c-.12,0-.3-.18-.24-.3-.34.07-.37.19-.85,0,.33-.17-.12-.15.34-.12-.43-.09-.53-.25-1,0,.15-.25-.33-.32-.54-.24l.31.18a2,2,0,0,1-.64,0l.11-.33c-.88-.4-1.59.69-2.27,0-.23.24.48.17.28.44-.41-.05-.83-.52-1-.52-.56-.19-.52.48-1.1.36.07.11.14.43-.29.54s-.5-.5-.25-.59c.1,0,.15,0,.14.07s.31-.1.15-.23l-.06.12c-.2-.12-.76-.11-.63-.3-.3.11-.13.19.1.26-.52-.18-.81,0-1.35-.12.08.06.16.2.08.2-.79-.15-.35.22-.88.28-.31-.18.11-.44-.43-.28-.33-.13-.07-.32.06-.42-.49.23-.91-.15-1.19-.19l.25-.09a1.21,1.21,0,0,1-.41.05l.15.24c-.15,0-.28,0-.28-.14-.15.15.12.39-.19.6-.2-.12-.61.13-.68-.18.64.11-.07-.32.47-.37a.61.61,0,0,1-.38,0s0-.07.06-.09c-.61-.28-.28.36-.91.35.08-.18-.15-.33-.25-.3.26,0,.12.3-.11.44-.4-.14-.44.1-.65.08l.24.07c-.08.17-.28.15-.56.21,0-.14.25-.1.15-.16-.31.31-.7-.32-1.14-.11-.2-.12,0-.34-.2-.42-.48.23-.52-.24-1-.05.15.24.18.18-.19.41l.85-.16-.54.34c.25,0,.53-.15.69-.11-.26.2-.23.14-.11.34-.35-.36-.69.2-1.1,0l0-.59c-.61-.26-1.08.31-1.87.16l.26.1c-.11.23-.49,0-.74.13,0-.2-.14-.27-.25-.39,0,.14-.57,0-.64.38l-.35-.26c-.64-.11-.73.56-1.34.49.19-.21-.09-.35.32-.51-.21,0-.39,0-.39.1-.12-.12-.57.27-.76.08-.08.09-.11.29-.34.28a.16.16,0,0,1,0-.1c0,.1-.36.13-.16.35-.62-.61-1.75.05-2.3-.48-.44.06-1,.13-1.38.14,0-.06,0-.1.08-.08-.56-.18-.34.57-1,.36-.32-.31.34-.17.14-.29-.09-.65-.77.09-1.19-.29l.1,0c-.33-.22-.79.25-1.33.2a.13.13,0,0,0,0-.1,3.31,3.31,0,0,1-1.57.54c.16-.26.23-.14.14-.4-.23,0,.06.42-.39.49-.15-.14-.48-.26-.53-.53l.43,0c-.22-.36-.56,0-.78-.05l0-.16c-.67.06-.68.45-1.39.42l.08.12c-.39.39-.33-.22-.72.07l-.12-.4a7.13,7.13,0,0,1-1.36.46,4.34,4.34,0,0,1,1.14-.62c-.26,0-.87,0-1,.23.1,0,.23-.14.33-.08a1.62,1.62,0,0,1-1.23.46c.09-.77-1.32-.19-1.69-.79-.89.28-1.78-.12-2.82-.07.37.59-.31,0-.24.62-.25,0-.34,0-.36,0L94,344c-.17-.18.23-.14.21-.27-.53,0-.22-.26-.58-.42.08.21-.18.31-.48.23l.42.28c-.74.32-.64-.52-1.39-.19l.24-.2c-.39.12-1.42,0-1.8.49-.07-.07-.16-.24,0-.28-.92-.07-2,.52-2.77.22l.07-.15c-.17,0-.3.28-.51.13,0-.06.07-.15,0-.16s-.46.26-.68.18l.19-.17c-.9-.2-1.38.41-2.13.51,0-.44-.71-.58-1.06-.65v-.07A11.38,11.38,0,0,0,81,344c-.6-.48-2-.2-3-.47.14.08,0,.35-.2.39s-.63.31-.59-.1h.08c-.17-.4-.64-.29-1-.3l-.06.53c-1-.77-2.49.28-3-.41-.23.13-.52.13-.74.26v-.28a7.05,7.05,0,0,0-1.74,0l.16-.2c-.45,0-.56.81-1,.83l-.12-.42c-.78,0-1.56-.37-2.33,0,0-.06,0-.19.16-.2-.36,0-1.41-.29-1.27.29,0-.38-.8,0-1.22.13l.07-.28c-.36.36-.37.45-.86.55-.12,0-.1-.22.05-.15-.39-.14-.3.27-.77.12l.17-.18c-.4,0-.37.07-.59.28s-.76-.07-.82-.32a.43.43,0,0,1-.5.28c0-.09,0-.15.09-.18-.67-.19-1,.33-1.45,0,0-.09,0-.14-.08-.16a5,5,0,0,1,.92,0c0-.26-.43-.3-.09-.66-.34.19-.93.62-1.35.49a.28.28,0,0,1-.06-.08l0,0a.36.36,0,0,0-.27,0,1.11,1.11,0,0,0-.34-.08c-.05-.21-.5-.11-.71-.12,0,.28-.26.23,0,.46,0,0,0,0,.18,0s.07,0,.09,0v0h.53c-.17.14-.35.26-.58.1-.11.18-.23.37-.3.46-.29-.4-.86-.61-.94-.85-.65.16-1.54.1-1.95.63-.19.07-.21-.15-.28-.23.11-.06.23-.05.29-.12-.37.13-1.1,0-1.19.42-.47-.17.26-.34-.38-.28l.09-.11c-1.27-.59-2.06.94-3.47.18.1.05.15.07.17.13-1.6-.33-3.3.31-4.88-.21-.45-.11-.5.12-.77.3l-.1-.3-.47.35c-.66.25-1.15-.74-2-.26l.11.2c-.3,0-1,.12-.91-.11,0,0-.1.21-.21.11v-.16l-.74.27c-.58-.12.09-.63-.75-.66-.32.06-.89.46-.78.57s.33.09.34.25l-.29.09c0,.46-.27.94.43,1.26l.49-.28.16.22L40,346c.24.21.39,0,.55-.11a.38.38,0,0,0,.21.25l.47-.44c.06.18-.21.36.11.46.23-.21-.21-.41.16-.54.23.21.16.38.44.2a.19.19,0,0,1-.13.25c.24-.15.64-.06.77-.31.24.26.82-.07.8.37a1.35,1.35,0,0,1,.65-.36c-.41.53.84,0,.73.6.31-.48,1.1-.22,1.64-.48,0,0-.09.12-.14.09.3,0,.39.18.58.27,0-.39.51-.48.77-.72.37.38-.23.46-.11.82,0-.31.64-.31.52-.58.28.24.24.12.39.44.05-.49.26-.08.49-.38.41.24.11.46.56.31C49.7,346.33,49.3,346.5,49.3,346.5ZM60,345.65h-.22Zm.9,0h-.39c0-.1,0-.2.09-.19S60.78,345.57,60.91,345.65ZM59,343.7c.14,0,.19,0,.21.07l-.25,0,0,0A.59.59,0,0,1,59,343.7Z"/><path class="cls-2" d="M58.75,344.07l-.06,0,.09.06,0-.09Z"/><path class="cls-2" d="M140.32,344.49h0l0,0Z"/><polygon class="cls-2" points="73.34 346.19 73.33 346.12 73.26 346.18 73.34 346.19"/><path class="cls-2" d="M145.28,345.45a.19.19,0,0,0,.06.07S145.31,345.48,145.28,345.45Z"/><path class="cls-2" d="M147.42,345.51l.3.1Z"/><path class="cls-2" d="M149.06,345.65a.34.34,0,0,0,0-.12h0Z"/><path class="cls-2" d="M122.89,346l-.06,0C122.68,346.05,122.78,346,122.89,346Z"/><path class="cls-2" d="M130.68,345.33a1.19,1.19,0,0,1-.25.13C130.57,345.48,130.68,345.49,130.68,345.33Z"/><path class="cls-2" d="M114.2,346.32Z"/><path class="cls-2" d="M130.07,345.45a.45.45,0,0,0,.36,0A.73.73,0,0,0,130.07,345.45Z"/><path class="cls-2" d="M156.2,345.78h.08s0,0,0,0Z"/><path class="cls-2" d="M156.29,345.75l.09,0S156.3,345.72,156.29,345.75Z"/><path class="cls-2" d="M156.56,345.64l-.18.07C156.44,345.71,156.52,345.72,156.56,345.64Z"/><path class="cls-2" d="M154,345.65l0,.1A.13.13,0,0,0,154,345.65Z"/><path class="cls-2" d="M153.36,345.68c.16,0,.39.22.61.15l0-.08C153.89,345.9,153.51,345.51,153.36,345.68Z"/><path class="cls-2" d="M150.59,344.42l.56.08c-.1-.11-.23-.25,0-.28C150.48,343.9,151.32,344.46,150.59,344.42Z"/><path class="cls-2" d="M148.87,344.26c.3-.05,0-.16,0-.22C148.7,344.14,148.65,344.17,148.87,344.26Z"/><path class="cls-2" d="M136.44,344.26l0-.25C136.24,344,136.47,344.1,136.44,344.26Z"/><polygon class="cls-2" points="134.06 345.58 134.29 345.74 134.39 345.51 134.06 345.58"/><polygon class="cls-2" points="132.66 343.76 132.76 343.73 132.38 343.82 132.66 343.76"/><path class="cls-2" d="M111.78,343.85l.07.32C112,344.11,112,343.76,111.78,343.85Z"/><path class="cls-2" d="M102.76,344.17a.33.33,0,0,0-.5-.1C102.46,344.09,102.66,344.21,102.76,344.17Z"/><polygon class="cls-2" points="75.73 343.66 75.91 343.55 75.57 343.64 75.73 343.66"/></g></g></svg>