<svg xmlns="http://www.w3.org/2000/svg" viewBox="0 0 311.88 101.34"><defs><style>.cls-1{fill:#fff;}.cls-2{fill:#f8a13b;}</style></defs><title>資產 1</title><g id="圖層_2" data-name="圖層 2"><g id="圖層_1-2" data-name="圖層 1"><path class="cls-1" d="M175.28,68.92c-1.06-.59-2.12-1.19-3.2-1.77a1.36,1.36,0,0,1-.8-1.35,4.6,4.6,0,0,1,.42-2.26,6,6,0,0,0,.33-1.85.64.64,0,0,1,.05-.28c.69-1,.36-2.14.55-3.2s.51-2.35.81-3.51c.55-2.15,1.06-4.31,1.71-6.43a66.06,66.06,0,0,1,2.4-7c.46-1.07.93-2.13,1.32-3.23a30.18,30.18,0,0,1,1.47-2.89,9.92,9.92,0,0,0,.42-1.37c.08-.24.13-.59.31-.69.92-.54,1-1.58,1.4-2.38a21.52,21.52,0,0,0,.83-2.83c.25-.72.63-1.4.94-2.1s.67-1.48,1-2.28c-.19,0-.33-.11-.39-.06-1.26.95-3,1.19-3.87,2.73-1.27.46-2,1.59-3,2.4s-2.08,1.49-3.09,2.29c-.34.27-.51.77-.84,1.07A42.77,42.77,0,0,1,170.53,35a3,3,0,0,1-2.08.63,5,5,0,0,1-2-1.28,5.12,5.12,0,0,1-.82-1.19c-.11-.18-.31-.42-.26-.58.34-1.3-.72-2-1.32-2.78a5.19,5.19,0,0,1-.93-2.6,12.28,12.28,0,0,0,2.22.5,6.44,6.44,0,0,0,4-1.07,1.09,1.09,0,0,1,.46-.22c1.65-.24,3-1.24,4.38-2,.91-.48,1.7-1.17,2.58-1.72,1.53-.95,3.07-1.87,4.64-2.77,1-.55,2-1,3-1.53.07,0,.15,0,.21-.07,2.13-1.4,4.24-2.82,6.4-4.17,1.49-.93,3-1.77,4.56-2.65l3.62-2.14c1.12-.65,2.26-1.27,3.36-1.95s2-1.4,3-2a1.69,1.69,0,0,1,1-.15,8.24,8.24,0,0,0,2.33.39c1.36-.27,2.09.8,3.12,1.19.51.19.88.88,1.18,1.43s-.28,1.42-1.2,1.71-1.87.46-2.79.72c-1.21.35-2.4.73-3.6,1.11a35.4,35.4,0,0,0-8.3,4,19.56,19.56,0,0,0-4.66,4.51c-.33.42-.69.81-1.05,1.23.56.77,1.37.54,2,.6a13.27,13.27,0,0,1,4.61,1.4c.92.46,1,1.38,1.08,2.23a11.74,11.74,0,0,1-.13,2c-.07.67.31,1,.91.7,1.91-1,3.78-2,5.68-3,.93-.49,1.89-.92,2.82-1.41.32-.18.73-.23.79-.81,0-.18.86-.4,1.33-.39a5.64,5.64,0,0,1,1.51.44c.14.05.34.14.36.23.16,1,1,1.23,1.77,1.25.58,0,.65.43.49.66-.69,1-.18,1.72.34,2.47a2.43,2.43,0,0,1-2.71.93,5.23,5.23,0,0,0-3.13.27c-1.71.47-3.4,1-5.1,1.56-.25.07-.52.08-1,.15l2-2.42a.88.88,0,0,0-1.24-.18,10.81,10.81,0,0,1-3.51,1.06,1.74,1.74,0,0,0-1.37,2c.08,1.34,0,2.68,0,4,0,1.12-.1,2.25-.15,3.39,1.14.27,2-.36,3-.68,1.73-.57,3.46-1.18,5.19-1.77.09,0,.19,0,.28-.06,1.21-.37,2.44-.71,3.63-1.14.87-.31,1.55.24,2.29.41a8.75,8.75,0,0,1,2.17,1,14.39,14.39,0,0,1,2.12,1.31,11.9,11.9,0,0,1,1.36,1.47v1.78a12.66,12.66,0,0,1-3,4.22c-.83.85-1.71,1.65-2.59,2.45a5.37,5.37,0,0,1-1.44,1.14,7.06,7.06,0,0,0-2.53,2,5.25,5.25,0,0,0,1.21.54c1.09.2,2.2.34,3.3.46.66.07,1.28.46,1.3.84a9.11,9.11,0,0,0,.2,2,1.53,1.53,0,0,1-.38,1.59,3,3,0,0,0-.66,1.38c-.13.86-.46,1.27-1.36,1.26-1.13,0-2.25-.09-3.38-.15-1.66-.09-3.31-.2-5-.3-.16,0-.33-.11-.48-.08a10.79,10.79,0,0,1-2.52.49c-2.07-.12-4.11.56-6.19.22a1,1,0,0,1-.94-.83,8.57,8.57,0,0,1-.18-3.31c.33-1.7.73-2.92,3.09-2.87A2.61,2.61,0,0,0,199,51.6c2.3-1.53,4.77-2.8,6.55-5,.62-.79,1.53-1.35,2.19-2.11a30.58,30.58,0,0,0,2.33-3.07,11.17,11.17,0,0,0,1.1-2.15c.18-.47-.22-1-.57-.82a16.49,16.49,0,0,0-1.52.75c-.34.19-.63.45-1,.63A12.06,12.06,0,0,0,205,41.64c-.43.43-1.18.52-1.73.86-2.24,1.37-4.46,2.78-6.7,4.18a7.07,7.07,0,0,1-4,1.2l-1.79-.07-.12.27a19.42,19.42,0,0,1,1.13,2c.61,1.41,1.67,2.71,1.18,4.43-.32,1.13-.55,2.29-.92,3.41-.09.27-.64.67-.83.6a12.14,12.14,0,0,1-3.07-1.37,3.68,3.68,0,0,1-1.24-3.06c0-1,0-1.93-.07-2.88-.13-1.5-.35-3-.53-4.48-.13-1.06-.3-2.12-.39-3.19,0-.52-.51-1.11.21-1.63l.89.86a2.24,2.24,0,0,0,2.79.65c1-.5,2.13-.9,3.13-1.46.57-.33,1.33-.82,1.45-1.36a42.51,42.51,0,0,0,.65-5c.11-1.24.13-2.5.15-3.75,0-1.85.12-3.71,0-5.55-.12-1.48-.3-2-2-1.89-.71.05-1.41.3-2.12.42a5.39,5.39,0,0,0-4.29,3.34c-.44,1-1.05,1.94-1.57,2.91a2.21,2.21,0,0,0-.18.51,4.5,4.5,0,0,1-.21.74c-.1.21-.34.37-.41.58-.32,1-.57,2-.9,3-.21.66-.57,1.27-.72,1.94-.47,2-.85,4-1.3,5.94-.21.91-.56,1.79-.74,2.71-.28,1.48-.34,3-.73,4.46a13.83,13.83,0,0,0-.52,3.66c0,1.38-.07,2.75-.15,4.13-.07,1.06-.22,2.13-.27,3.19s.07,2.29,0,3.42a3.66,3.66,0,0,1-.7,1.68,22.75,22.75,0,0,1-1.78,1.9Z"/><path class="cls-1" d="M189.53,7.48l2.12-1.65C189.26,4,186.31,3,184.75,0l2.18.5c.84.19,1.69.34,2.52.57,1.41.4,2.82.81,4.21,1.29a2.46,2.46,0,0,1,1.63,2.19A21.31,21.31,0,0,0,196,6.79c.05.17-.06.54-.15.56a3.46,3.46,0,0,1-1.71.2,4.74,4.74,0,0,0-3.42.08,4.5,4.5,0,0,1-1.11.1Z"/><path class="cls-1" d="M285,4.32c.93.47,1.86.95,2.8,1.39a4.09,4.09,0,0,1,1.8,3.72c-.28,1.64-.46,3.3-.7,5a1.13,1.13,0,0,0,1.05,1.37c1.3.13,2.61.06,3.92.07a20.22,20.22,0,0,1,2.06,0,1.57,1.57,0,0,1,1.2,2.29c-.75,1.87-2.47,2.38-4.06,3.1-1.12.51-2.26,1-3.35,1.55-.34.18-.77.61-.78.94-.07,2.26,0,4.52,0,7a10.66,10.66,0,0,0,1.63-.89,11.66,11.66,0,0,1,4-2c2-.65,3.19.16,4.56,1.1,1.08.73.93,1.87.87,2.93-.19,3-.45,5.91-.63,8.87-.12,1.9-.23,3.81-.2,5.71,0,1.74.26,3.48.41,5.22.13,1.53.39,3.06.37,4.58-.05,2.74-.7,5.35-3,7.07a3.32,3.32,0,0,1-3,.67,45.94,45.94,0,0,0-5.61-1.09,1.23,1.23,0,0,0-1,.55,2,2,0,0,1-1.9,1.21,2.45,2.45,0,0,1-1.95-2.2c0-.4,0-.8,0-1.19a3.45,3.45,0,0,0-1.14-2.74,6.52,6.52,0,0,1-1-1.49l.31-.32a9.08,9.08,0,0,1,1,.41c.68.39,1,.11,1.05-.57,0-1.37.05-2.74,0-4.11,0-.94-.91-.8-1.47-.84a23.44,23.44,0,0,0-2.85.11c0,1.49,0,3,0,4.57a3.2,3.2,0,0,1-.2,1.24c-.17.37-.52.91-.81.92a2.26,2.26,0,0,1-1.53-.5c-1.6-1.43-1.91-3.39-2.29-5.41-.32-1.71.55-3.11.59-4.71a25,25,0,0,1,1-5.71c.35-1.37,1-2.66,1.46-4,.54-1.71,1-3.46,1.46-5.19s1.07-3.57,1.62-5.36c.37-1.21.25-1.4-1-1.32-1.59.1-3.17.33-4.76.41a12.52,12.52,0,0,1-5.68-1.85c1-.27,1.81-.56,2.66-.72,2-.36,4-.65,6-1,.59-.1,1.18-.25,1.77-.32,1.65-.21,1.92-.46,2.4-2.12.33.23.74.76,1.14.75.75,0,1.23-.49,1.23-1.42a36.8,36.8,0,0,0-.68-9,2.81,2.81,0,0,0-.42-1,3,3,0,0,0-.69-.5,2.43,2.43,0,0,0-.39.79c-.13,1.55-.22,3.1-.47,4.69-.13-.69-.27-1.38-.41-2.07a10.83,10.83,0,0,0-.71-3.28A4.49,4.49,0,0,1,280.35,6a1.8,1.8,0,0,1,1.28-1.46c.18-.07.36-.16.54-.24Zm8.95,37c-.1-2-.17-3.8-.28-5.55a9,9,0,0,0-.28-1.88c-.4-1.4-1.31-1.61-2.52-.68a2.76,2.76,0,0,1-1.11.55c-.85.16-.94.82-1,1.42s.15,1,.13,1.58c0,.7.25,1,1,1a2.06,2.06,0,0,1,1.24.28c1.39,1.14,1.32,1.92-.17,3a4,4,0,0,0-1.78,4.39c.14.6.4,1.06,1.16,1a23.49,23.49,0,0,0,2.54-.26,1.3,1.3,0,0,0,.81-.91C293.81,43.81,293.86,42.42,293.94,41.32Zm-.73,8.15a10.12,10.12,0,0,0-2.33,0c-.68.16-1.62.11-1.61,1.4,0,2.43-.17,4.86-.26,7.3a.65.65,0,0,0,.25.44,2.29,2.29,0,0,0,3.32-1,23.37,23.37,0,0,0,.83-4.55A26,26,0,0,0,293.21,49.47Zm-9.18-23-.32-.13c-2.09,2.87-2.84,6.22-3.21,9.79a23.57,23.57,0,0,0,3-1.83,2.76,2.76,0,0,0,1.09-2.92C284.37,29.78,284.21,28.15,284,26.51Zm-4.5,22.41h.25c1.27-1.51,2.55-3,3.79-4.54a2.62,2.62,0,0,0,.35-.88c.26-.85,0-1.25-.92-1.27-.69,0-1.37,0-2.06,0-1.49,0-1.78.49-1.52,1.93a16.94,16.94,0,0,1,.11,2.67C279.54,47.54,279.53,48.23,279.53,48.92Zm1.38-8.4c.65-.16,1.71-.38,2.75-.68.26-.07.64-.36.64-.55a9.6,9.6,0,0,0-.27-2.52,1.3,1.3,0,0,0-1.19-.45c-1.26.68-2.57,1.37-3.14,2.85C279.35,40.08,279.57,40.48,280.91,40.52Z"/><path class="cls-1" d="M311.88,19.27c-1.09,1.44-2.58,1.09-4,.84-1.2-.22-2.37-.6-3.58-.92-.13-1.31,1.17-2.34.42-3.73a4.17,4.17,0,0,0-3-2.13c-.12-1.63,2.17-3.05,4.21-2.41,2.41.74,3.91,2.58,5.23,4.59.24.37.45.77.67,1.16Z"/><path class="cls-1" d="M260,31.62l-4,1.94-.18-.15a8.43,8.43,0,0,1,.83-.95c.77-.64.6-1.21-.08-1.76s-1.26-.68-1.79-.05c-.88,1.06-1.61,2.25-2.5,3.31-.73.88-1.61,1.64-2.41,2.48-.64.67-1.22,1.41-1.89,2-1.52,1.44-3,2.88-4.65,4.21a41.82,41.82,0,0,1-5.13,3.78,31.11,31.11,0,0,1-4.86,2,16.47,16.47,0,0,1-2.3.69,5.61,5.61,0,0,1-1.16,0c-.08-.12-.16-.23-.23-.35.86-.87,1.72-1.75,2.59-2.62,2.4-2.41,4.84-4.79,7.21-7.23,1.5-1.54,2.91-3.16,4.34-4.76.54-.61,1-1.3,1.52-1.92.93-1.1,1.93-2.15,2.81-3.29,1.71-2.21,3.47-4.4,5-6.75s2.72-4.85,4-7.3c.57-1.06.24-2.57-.8-4.11.68-.44,1.33-.93,2-1.3a3.2,3.2,0,0,1,3.06-.2c.82.4,1.72.63,2.51,1.07a2,2,0,0,1,.73,2.49,7.12,7.12,0,0,0-.2,1.34c3.07-.67,5.92-1.39,8.81-1.89a3.55,3.55,0,0,1,3.41,2.25,1.86,1.86,0,0,1-1.06,2.25,18.29,18.29,0,0,1-3,.59c-2.19.18-4,1.42-6,2.14-.66.24-1.29.59-2.16,1,.31-.64.49-1.06.71-1.46.34-.59,0-.69-.49-.72a9.37,9.37,0,0,1-1.3,0c-1.65-.38-2.19.91-2.79,1.93-1.28,2.15-2.45,4.37-3.64,6.57-.26.47-.43,1-.67,1.52,2.67.1,4.82-1,6.93-2.35,1.26-.79,2.54-1.27,4-.27.84.59,1.08,1.42.24,2.06s-1.76.89-2.58,1.42c-.55.36-1.34.85-1.4,1.35a2.52,2.52,0,0,0,1.74,2.57,2.54,2.54,0,0,1,1.38,1.35c.27.8-.28,1.36-1.12,1.65a8.72,8.72,0,0,0-1.86,1c-.65.43-1.19,2.52-.7,3.1a1.88,1.88,0,0,0,1.45.37,4.4,4.4,0,0,1,3.09,1.66,3.08,3.08,0,0,1-.5,2.77c-1.32,1.4-2.72,2.72-3.94,4.2A5.21,5.21,0,0,0,262,53.06c.09,1,.66,1.4,1.5.86,1.51-1,3-2.07,4.39-3.17.86-.67,1.65-1.43,2.65-2.32A30.76,30.76,0,0,1,265.42,56,42.93,42.93,0,0,1,261.86,60a49,49,0,0,1-4.41,3.09c-.55.38-1,.87-1.61,1.21a4.77,4.77,0,0,1-4.37-.43c-.41-.37-.77-.81-1.22-1.15-2-1.5-1.74-3.52-1.3-5.58.09-.45.23-.89.35-1.64h4.39a3.6,3.6,0,0,0,1.28-.07c.51-.21,1-.55.41-1.25a4.85,4.85,0,0,0-3.2-2,4.8,4.8,0,0,1-2.14-.86,1.78,1.78,0,0,1-.42-1.33c0-1,.15-1.94.26-3.15a4.19,4.19,0,0,0,.69-.22c1.19-.51,2.38-1,3.56-1.56s2.41-1.2,3.66-1.67A2.9,2.9,0,0,0,259.43,39c-3,1.57-6,3.13-9,4.74-1.22.66-3.57-.84-3.65-2.39,0-.69,1.12-1.58,1.64-1.21,1,.69,1.85.26,2.71-.12a22.39,22.39,0,0,1,3.89-1.61,12.86,12.86,0,0,0,4.29-2.23c.46-.32.56-1.3.65-2A19.92,19.92,0,0,0,260,31.62Zm-1.51,19.24c-.29-.34-.71-1-.86-1a13.25,13.25,0,0,0-2.8,1.38c-.19.12-.16.9,0,1.2a9.88,9.88,0,0,0,1.45,1.44s.14,0,.19-.07C257.41,53.1,258.44,52.43,258.53,50.86Z"/><path class="cls-1" d="M0,30.93c.31-.37.62-.74,1-1.25.4.31.83.6,1.21.94a.85.85,0,0,0,1.37,0,2.27,2.27,0,0,1,.79-.35c2.74-1.12,5.52-2.15,8.22-3.36,2.11-.95,4.15-2.08,6.18-3.19a2.73,2.73,0,0,0,1.37-2.41c.07-1.07.5-2.12.56-3.19.1-1.87,0-3.75.06-5.63,0-.52.11-1,.1-1.56,0-2-.52-2.36-2.08-2.78a3.55,3.55,0,0,1-.94-.6c.26-.36.43-.86.78-1.08a4.14,4.14,0,0,1,4.7,1,11,11,0,0,1,1.94,3.94,28.12,28.12,0,0,1-.06,6c-.06.81.27,1.26,1.1,1.14a12.68,12.68,0,0,1,9.09,1.91,1,1,0,0,1,0,1.73,9.59,9.59,0,0,1-1.49.94c-2.51,1.28-5,2.6-7.57,3.77-1.49.68-2,2-2.44,3.32-.34,1-.65,1.92-.92,2.9-.47,1.66-.93,3.32-1.34,5a.79.79,0,0,0,.25.72,2.07,2.07,0,0,0,1.22.12,4.89,4.89,0,0,0,1.17-.74,5.73,5.73,0,0,1,3.76-.93A5,5,0,0,1,31,38.6a1.2,1.2,0,0,0,1.89-.19c.72-1,1.39-2,2.08-3.08a1.11,1.11,0,0,1,.51-.46,29.82,29.82,0,0,1-3.95,13.88c-.11,0-.36,0-.61,0-1.49.22-2.23-.24-2.78-1.73A11.92,11.92,0,0,0,27.32,45a10.78,10.78,0,0,0-1.42-1.61l-4.93,6a1.24,1.24,0,0,0-.26.57c-.23,1.62-1.49,2.29-2.73,2.94-.56.3-1.72-.4-2-1a17.41,17.41,0,0,0-1.15-2.18c-.62-1-1.23-1.87-.8-3.1.05-.13-.21-.38-.4-.71a11.8,11.8,0,0,1,.63-1,18.57,18.57,0,0,0,3.18-8,5.92,5.92,0,0,1,.76-2.61c.55-.77,0-1.62-.21-2.39a1,1,0,0,0-.89-.36c-3.17.81-6.34,1.64-9.49,2.54a7.14,7.14,0,0,1-6.41-.78A9.85,9.85,0,0,1,0,32.07Z"/><path class="cls-1" d="M69.16,67a33.74,33.74,0,0,1-3.53-2,20.67,20.67,0,0,1-3.42-3A21.15,21.15,0,0,1,60.3,58.8a3.26,3.26,0,0,1,2.88,0c.66.25,1.41.29,2.09.51a6.88,6.88,0,0,1,1.22.66c.42.25.61.2.78-.33.45-1.37,0-2.64-.24-3.95a22.75,22.75,0,0,1-.33-2.58c-.1-1.92-.06-3.85-.23-5.75-.12-1.41-.51-2.79-.73-4.2-.28-1.78-.5-3.56-.77-5.34-.1-.68-.3-1.34-.36-2-.16-1.63-.24-3.27-.4-4.9-.29-2.91-.7-5.82-.9-8.74-.15-2.15-.05-4.32-.05-6.48,0-.06,0-.13,0-.19,0-1.65,0-3.3,0-4.95a.82.82,0,0,0-1.21-.84,15.18,15.18,0,0,0-1.85,1,8.86,8.86,0,0,1-6.46,1.33A2.69,2.69,0,0,1,52.38,11c-.38-.51.08-.84.54-.91A12.22,12.22,0,0,0,58.5,7.32c.56-.44,1.16-.83,1.73-1.26a3.62,3.62,0,0,1,2.93-.36c1.47.21,2.44,1.3,3.67,1.92.86.43,1.18,2.72.92,3.76-.42,1.7-.76,3.43-1,5.17A41,41,0,0,0,66.15,21a21.08,21.08,0,0,0,.33,2.19c0,1.39,0,2.79,0,4.18.08,1.65.29,3.3.35,4.95.06,2,.31,3.89.25,5.86a25.19,25.19,0,0,0,.38,4.66c.18,1.15.67,2.24.92,3.39s.32,2.4.58,3.57c.45,2.14,1,4.26,1.5,6.39.25,1.05.5,2.09.77,3.14a2.79,2.79,0,0,0,.29.87A5.19,5.19,0,0,1,69.92,67Z"/><path class="cls-1" d="M57.5,42.27a9.78,9.78,0,0,0-1.5-.71c-1.49-.45-2.51-1.58-3.68-2.49-.66-.52-1.31-1-2-1.58a.69.69,0,0,0-1.15.45c-.22,1.22-.38,2.45-.58,3.67-.27,1.68-.54,3.36-.83,5-.15.89-.33,1.76-.5,2.64a.53.53,0,0,1,0,.18c-1.5,2.86-3,5.73-4.51,8.56a4.46,4.46,0,0,1-2.66,2l-.24-.2c.43-.64.88-1.27,1.29-1.92a19.06,19.06,0,0,0,1.39-2.39C43.3,53.75,44,52,44.7,50.17a14.65,14.65,0,0,0,1-2.84A37.9,37.9,0,0,0,46,43.47c0-.4.13-.79.19-1.19.12-.82.27-1.64.35-2.47.29-3,.11-6,.91-8.92a9.75,9.75,0,0,0-.13-2.13c.11-4.63.36-9.26.33-13.88,0-2.77-.47-5.53-.71-8.3-.06-.73-.08-1.46-.12-2.19l.39-.09c.52,1,1.09,2,1.55,3a18,18,0,0,1,1.41,7.07c0,2.22.22,4.44.37,6.66.07.88.87,1,1.5,1.16a1.81,1.81,0,0,0,1,0c2.09-.68,3.67.44,5.27,1.45a5.25,5.25,0,0,1,2.68,3,1.56,1.56,0,0,1-.49,1.82,45,45,0,0,1-4.87,3.67,16.58,16.58,0,0,0-3.54,2.66,1.39,1.39,0,0,0,.35,2.37,5.17,5.17,0,0,0,3.26.71,4.81,4.81,0,0,1,4.56,1.38A2.79,2.79,0,0,1,60.52,42c-.11.2-.64.22-1,.24C59,42.29,58.37,42.27,57.5,42.27Zm-2.42-15.1c0-1.56-2.49-3-3.87-3.05a.8.8,0,0,0-.56.54c-.12,1-.12,2-.21,3-.12,1.26-.29,2.51-.44,3.75a2.57,2.57,0,0,0,2.64-1.7,3.24,3.24,0,0,1,.75-1.33A13.57,13.57,0,0,1,55.08,27.17Z"/><path class="cls-1" d="M143.2,51.54c-.1-2-.3-4.07-.39-6.12,0-.58.24-1.18.24-1.77,0-1.09-.07-2.19-.12-3.28-.09-1.68-.2-3.35-.27-5,0-.36.14-.74.12-1.1-.1-1.29-.25-2.58-.36-3.87,0-.36,0-.72,0-1.08,0-.95-.09-1.91-.17-2.86,0-.36-.2-.7-.25-1.06-.16-1.15-.37-2.29-.42-3.44a14,14,0,0,0-.42-2.87,19.38,19.38,0,0,1-.7-4.14,12.15,12.15,0,0,0-2.5-6.39,3,3,0,0,0-.86-.76c-.55-.35-.95-.95-1.51-1.27a13,13,0,0,0-2.61-1.16,1,1,0,0,1-.73-.61h-3.1c-1.08.4-2.18.78-3.25,1.22a7.38,7.38,0,0,0-2.27,1.42c-.73.67-1.53,1.32-2.29,2a33.65,33.65,0,0,0-4.36,3.92c-1.12,1.36-2.48,2.54-3.66,3.86-.88,1-1.66,2.05-2.49,3.08-.2.25-.42.49-.64.73a33.25,33.25,0,0,0-2.36,2.68c-1.36,1.93-2.62,3.94-3.91,5.91-.65,1-1.36,2-1.92,3-1.33,2.47-2.54,5-4,7.39-.2.3-.28.68-.47,1-.3.47-.7.43-.91-.08a2.54,2.54,0,0,1-.22-1c0-1.51,0-3,.23-4.53A9,9,0,0,0,96.3,32a4.22,4.22,0,0,1,.16-1.29,1.3,1.3,0,0,0,0-.59,14.74,14.74,0,0,1-.6-4.22,4.38,4.38,0,0,0-.47-2.12c-.18-.3,0-.79-.12-1.16s-.26-.89-.55-1.05-.7.13-.7.62c0,.78,0,1.56,0,2.34-.07,1.84-.08,3.69-.3,5.51-.21,1.67-.18,3.35-.27,5-.12,2.22-.38,4.44-.54,6.66,0,.52.14,1.06.12,1.59-.06,1.46-.14,2.93-.29,4.38-.09.76-.42,1.49-.52,2.24a14,14,0,0,0,0,2,8.19,8.19,0,0,1-1.74,5.21,9.52,9.52,0,0,0-.52.87v1.13c.47.64.94,1.28,1.4,1.94a18.26,18.26,0,0,0,1.32,1.93c.28.32.82.41,1.22.65a5.06,5.06,0,0,1,.87.65,1.17,1.17,0,0,0,2-.43c.38-1.3.67-2.62,1-3.93.46-2,.9-3.93,1.35-5.89.49-2.14,1-4.29,1.49-6.43.13-.51.4-1,.56-1.48A51.65,51.65,0,0,1,104.45,38c.66-1.32,1.39-2.6,2.1-3.9a6.52,6.52,0,0,1,.48-.59,2.38,2.38,0,0,0,.66-1.68c-.12-1,.57-1.61,1.08-2.3.32-.44.73-.81,1-1.27s.57-.72,1.11-.42a6.87,6.87,0,0,0,3.66.58c1.11,0,2.23,0,3.44,0a4.72,4.72,0,0,1-.15.83c-.51,1.44-1,2.87-1.57,4.3s-.94,2.58-1.38,3.88a4,4,0,0,0,.57,4.35s.05,0,0,.06c-.12.39,0,.76.37.85a2.46,2.46,0,0,0,1-.18c.37-.1.74-.24,1.11-.35a1.69,1.69,0,0,1,1.64.08,3,3,0,0,0,1.12.28c.56.11.67.36.5.94a21.64,21.64,0,0,1-3,5.49,62.6,62.6,0,0,1-6.22,7.82c-.68.77-1.32,1.58-2.07,2.31-.15.15-.17.45-.25.68-.51-.1-1.78,1-2,2l1.73-1.28c.35-.26.71-.5,1.06-.75.08,0,.2-.07.23-.14.74-1.43,2.55-1.52,3.47-2.81.51-.73,1.23-.6,2,.15a29,29,0,0,0,2,2.11c1,.74,1.48,1.91,2.65,2.48a14.29,14.29,0,0,1,2.19,1.82,23.86,23.86,0,0,0,3.3,2.39,10.16,10.16,0,0,0,3.82,1.67c.78.08,1.55.28,2.33.36a1.22,1.22,0,0,0,.91-.19c1.15-1.31,2.85-1.77,4.16-2.82a16.53,16.53,0,0,0,2.22-1.6,11.05,11.05,0,0,0,1.94-3,45.37,45.37,0,0,0,1.43-4.6,2.09,2.09,0,0,0,0-.56C143.21,53.85,143.26,52.69,143.2,51.54Zm-6.64-3.93c-.14,2.12-.51,4.22-.81,6.32a41.23,41.23,0,0,1-.74,4.14,3.36,3.36,0,0,1-2.18,2.7,12,12,0,0,1-3.93,0,15.89,15.89,0,0,1-4.59-1.7c-.73-.31-1.5-.52-2.24-.79a1.3,1.3,0,0,1-.38-.17c-.74-.49-1.48-1-2.27-1.52l-.31.36,4.08,3.2,0,.24a2.16,2.16,0,0,1-.8,0,12.45,12.45,0,0,1-4-2.53c-.83-.75-1.57-1.6-2.34-2.39a7.72,7.72,0,0,1,2.25-2.7c.56-.5,1.09-1,1.65-1.57a8.13,8.13,0,0,1,.9-.75,17.74,17.74,0,0,0,3.93-3.5c.64-.82,1.24-1.67,1.83-2.52a3.37,3.37,0,0,0-.12-4.22,13.53,13.53,0,0,0-2.22-2.19,9.07,9.07,0,0,0-1.58-.82,1.66,1.66,0,0,0-1.46,0c-.21.08-.51-.06-.76-.1a4.22,4.22,0,0,1,.2-.6c.3-.58.62-1.16.92-1.74.65-1.25,1.34-2.48,1.92-3.76a14.61,14.61,0,0,0,1-2.79,2.64,2.64,0,0,0-1.38-2.9,33.3,33.3,0,0,0-3.32-1.68,2.23,2.23,0,0,0-2.25.4,6.18,6.18,0,0,0-.9.61A5.39,5.39,0,0,1,113,26a2.61,2.61,0,0,1-.48,0,5.35,5.35,0,0,1-.68-.11c0-.25,0-.57.16-.76.63-.83,1.35-1.59,2-2.42,1-1.25,1.81-2.55,2.77-3.78,1.1-1.43,2.29-2.79,3.39-4.22a13.36,13.36,0,0,1,4.57-3.65,6.74,6.74,0,0,1,5-.72,3.18,3.18,0,0,1,1.45,1.24c.53.68.86,1.51,1.36,2.22a11.58,11.58,0,0,1,1.45,4c.42,1.63.88,3.24,1.22,4.88.25,1.17.29,2.38.51,3.56s0,2.61.65,3.79a.52.52,0,0,1,0,.28c.15,3.1.35,6.19.41,9.29C136.76,42.36,136.73,45,136.56,47.61Z"/><path class="cls-2" d="M305.14,98.48c.16-.26.07-.85-.36-.73l-.31,1Z"/><path class="cls-2" d="M302.23,96.64a2.17,2.17,0,0,0-.77,2.24c.51-1,.63-.56,1.17-1.69a.57.57,0,0,1,.69.68c.15-.25.67.22.9-.41a1.24,1.24,0,0,0-2-.16C302,97.08,302.19,96.82,302.23,96.64Z"/><path class="cls-2" d="M259.91,95.09l.27.12A.48.48,0,0,0,259.91,95.09Z"/><path class="cls-2" d="M233.69,94.55c.2,0,.28-.13.29-.22C233.8,94.4,233.65,94.46,233.69,94.55Z"/><path class="cls-2" d="M229.22,93.45l.26.07C229.38,93.43,229.28,93.38,229.22,93.45Z"/><path class="cls-2" d="M259.91,95.09l-.7-.31C259.16,95.1,259.57,95,259.91,95.09Z"/><path class="cls-2" d="M296.4,99a.93.93,0,0,0,.38-.26,2.47,2.47,0,0,1-.36.11C296.41,98.93,296.41,99,296.4,99Z"/><path class="cls-2" d="M271.47,94.29h.21a2.51,2.51,0,0,0,.18-.4Z"/><path class="cls-2" d="M280.34,94.13c-.2,0-.27.81-.35,1.18a.85.85,0,0,1,.44-.58A2.17,2.17,0,0,0,280.34,94.13Z"/><path class="cls-2" d="M294.41,95.62l.25-.12C294.59,95.54,294.48,95.57,294.41,95.62Z"/><path class="cls-2" d="M265.12,94.1a1,1,0,0,0-.08-.3A.61.61,0,0,0,265.12,94.1Z"/><path class="cls-2" d="M17,100.44a.75.75,0,0,0,0-.15C17,100.38,16.94,100.44,17,100.44Z"/><path class="cls-2" d="M6.73,96.26l.14,0a3.83,3.83,0,0,0,0-.47Z"/><path class="cls-2" d="M221,92.37l0,0C221.27,92.29,221.15,92.31,221,92.37Z"/><path class="cls-2" d="M145.81,93c.85.76-1.39,1-.1,1.81C145.59,94.47,146.87,93.48,145.81,93Z"/><path class="cls-2" d="M296.17,98.92a2.29,2.29,0,0,1-.37,0A.63.63,0,0,0,296.17,98.92Z"/><path class="cls-2" d="M145.71,94.8h0l.13.07Z"/><path class="cls-2" d="M202.14,92.88a1.1,1.1,0,0,0,.2.37A.7.7,0,0,0,202.14,92.88Z"/><path class="cls-2" d="M216.21,94.08l-.35-.11A1,1,0,0,0,216.21,94.08Z"/><path class="cls-2" d="M194.84,94.07c-.19-.07-.25-.18-.51-.07l.08.1C194.5,94,194.63,93.93,194.84,94.07Z"/><path class="cls-2" d="M187.24,94.07a1.27,1.27,0,0,0,.14.17l.24,0Z"/><path class="cls-2" d="M40.11,100a2.44,2.44,0,0,1-.35-.75C39.88,99.88,38.76,100.09,40.11,100Z"/><path class="cls-2" d="M296.39,98.56c0,.21-.11.32-.22.36l.25,0A.41.41,0,0,0,296.39,98.56Z"/><path class="cls-2" d="M194.53,100.72l-1.2-.12A5.41,5.41,0,0,0,194.53,100.72Z"/><path class="cls-2" d="M94.63,99.91l-.27.11A.27.27,0,0,0,94.63,99.91Z"/><path class="cls-2" d="M189.74,100.72a1.64,1.64,0,0,0-.68-.58.76.76,0,0,0-.14.22Z"/><path class="cls-2" d="M39.76,99.27h0Z"/><path class="cls-2" d="M31.8,101.27c1.15,0,.54-1.08.79-1.72,1.37-.31.63.82,1.1,1.38.86-.29,1.52-1.31,2.15-1.26,0,.18.18.24,0,.47.91-.88,2.69,0,3.75-1.15a.67.67,0,0,1,.14.28,4.31,4.31,0,0,1-.17-1.52c.52,0,1-.7,1.16,0-.32,0-.35.27-.5.5L40.8,98c.48,1-.74.36-.74,1.14,1-.34,2.28-1.21,3.09-.91.17,1-1.89.34-.81,1.25L41.09,99c.95,1.61-.76-.11.12,1.61,1.64.29,1.83-.52,3.47-.23.37-.56-.12-.83.25-1.4,2.33-1,1.84,2.56,3.55,1.2.45-.67.62-2,1.84-1.28l-.42,1.15c1.59.11.91-1.66,2.58-.88-.3.45-1.25.38-1,.52,1.08.91.76-.66,1.59-.66l.17,1c1.7-.16,3.57-.89,5.44-1.08-.1.3-.42.62,0,.94,2.36-.51,5.05.12,7.33.73l.88-.89a.34.34,0,0,1,.15.57c.89.34,0-.55.48-.9a.44.44,0,0,1,.35.77c1.57-.75,4.47-1.61,6.12-.67l-.32.27c1.29.35,1.46-1.81,2.65-1L76.1,99c2.8.38,5.89-.43,8,.9.41-1.27,2.77.57,2.95-1.2,1.6.88,1.14,1.19,3.39,1.78.6.08.89-1.1,1.64-1.29l0,.93,1-1,.54,1.1.7-.23a.75.75,0,0,1-.55-.69,2.48,2.48,0,0,1,2.68,1.12l2.57-.78c0,.37-.49.5-.83.74,1.38-1,.25,1,1.51.11-.17-.21.09-.55.12-.74.63.56,2.06.56,3.12.33l-.21.63c1.91.17,4-.3,6.17-.29a.8.8,0,0,1,0-1.51l.25,1c.4-.61-.66-.37.17-1.11.8.11.54,1.11.08,1.43l1-.34c.05.29-.18.45-.23.82.39-.61,1.68,1,2.25-.07l.06.29c2.14,0,3.11-.33,4.85-.38,0-.84.72-.66,1.24-1.34a16.34,16.34,0,0,0,4.25.86c1.09-.42.32-.71.81-1.21.08.76,1.62.69.82,1.24a18.26,18.26,0,0,0,4.71-.77c-.25-.32-.54-.45-.39-.72.43-.12,1,.33.91.69l-.11.08c2.63-1.15,6.07,2.24,8.17.64l-.12.08,2.17-.83c1,.13-.6.57.14,1,2.35-1.28,3.71.19,5.64-.67,1.49,2.27,5.3-.16,7.32,1.29l-.12-.53c.53-.53.63.3,1,.42-.06-.41-.57-.48-.24-.77,4.41-.64,9.11.78,13.64,1.27,1.66.14.94-2.77,3-1.49l-.59,1c3.34-1.19,6.83,0,10.11-1-.2.23-.21.53-.52.52.69.72,2.55,0,2.56-.55.51.07.12.53.43.83.7.43,1.75-.92,2.11-.2.07.12-.19.23-.32.29.45-.35,2.11.09,1.67-.74,1.23.39,2.35-.37,3.33.12.64-.93,2.11.45,2.31-.87-.09,1.36,2.15,1.1,2.93.46-.26.41.67.42.37,1,.88,0,1.7-.27,1.54-1,1.63,1.63,3.28-1.3,4.2.78A54,54,0,0,1,207.85,99c-.09,1.35-2.62.13-2.52,1.55,2.25-.56,3.55-1.72,5.77-1.39.58.18-.32.59-.52.82,2.25-.56,4.34.12,6.34-.62,0,.13-.22.27-.43.37.4,0,.92.2.87-.42l-.38.17c-.63-.89,1.56-1.86,1.63-2.34-.66,1.77,2,.45.91,2.68a.82.82,0,0,0,.53-.82c.38.12.51.36.12.82,1.41-.33.9-1,2.18-1,0,.3-.26.41-.39.76a2.48,2.48,0,0,1,2.37-.91c-.06.18.06.42-.26.41,1.86-.09,3.16-1.54,5.19-1-.6,1.29.7.42.8,1.54l1.1-.33-.44-.55c1,0,1.8-.79,2.63-.43l-.72.47,1.8-.22-1-.42c1-.58-.1-1.42,1.17-1.11-.25.12,1,0,1.46.68h0a1.59,1.59,0,0,1,1.67-.45c.18.35-.15,1.23,0,1.47.47-.93,2.24-.26,2.84-1.25a1.29,1.29,0,0,0-.15.94l.4-.76c.44.24.5.36.43.83,1.34.14-.42-1.42,1.16-.81-.12.06-.06.17-.32.29,1.59.32,3.07-.48,4.53-.11.43,1.13-1.27.28-.78,1.23,2.11-.21,4.36-1.35,6.4-1.09l-.38-.12c.29-1.59,1.52.78,2.55,0-.25.12-.33.89-.26.71,1.4.26,2.86-.39,5-.89l-.26.41a17.07,17.07,0,0,0,3.06.39c.26-.4.77-.34.46-.93,2.74,2.33,5.23-1.25,7.67.69-.29,0-.7.36-.47.36l2.08-.38c-.17-.69-.28-.42-.71-1a1.75,1.75,0,0,1,1.36-.73c-.93.46,0,1.12.41,1.5-.07-.21.07-.44,0-.66,1.08,1.23.18-1.4,1.66-.56l-.08.36c.55-.19,1.06-.67,1.66-.56.24.8-.59.37-.63,1,.84,0,1.65-1.52,2.41-.72-.35.22-.87.23-1.22.45.82.94.92.7,1.53.85l-.06,0,1.42.43-.36-.26c1-2.09,2.13-.38,3.55-1.75-1.38,1.3-.23.75-.33,1.66.36.25.9.53.75.79.67-.73,1.11.58,2.05-.5.05.3.72,0,.57.77.87-.23-.21-.51-.13-.88,1.33-1,3.14,1.21,5.06-.16,1.66-.56,2-1.55,3.51-2,.52.47-.43,1.07-.43,1.07a2.36,2.36,0,0,0,2.26,0c-.16.26,0,.47.25.8.63-.07.42-1.06,1.26-.63a4.2,4.2,0,0,1-.63,1.17c.74-.27,1.48-.81,2.25-1.08.21.51-.46.78-.74,1.11.87-.23,2.26-.46,2.53-1.27l-.56-.29c.31,0,.16.7-.07.84-.75.64-1.08-.28-1.12-.57l.55-.19c-.56-1.71-2.21.28-3.32.18l.46-1.25-1.13,1c-.25-.33-.41-1,.14-1.21-.8-.62-.71.44-1.39-.25a.13.13,0,0,1,0-.21l-.78.37c.15-.26-.13-.88.35-.7-1.4-.72-2.25.93-2.77,0l.11-.08c-1.93.42-.18.92-1.64,2l-1-2.26-.19.92c-.2,0-.6-.1-.52-.47-.75.63.12.4-.31,1-1-.83-2.65.39-2.86-1.07-.35.7.92.54-.11,1-.29-1.57-1.19.27-2.06-.45.27-.81,1.1-.38.22-1.1-.53,1.37-1.71-.3-2.45,0,0,1.09-1.61.45-2.85.82.08-.37-2.34-.6-3.49-1l0-.19c-.22,1.1-1.41.9-2.28,1.12a1.23,1.23,0,0,1,.66-1.21h-.82a1.27,1.27,0,0,1-1,.67l.2-.82c-1.08,0-2.18,1-3.58.42-.08.76,1.11,2.13-.37,2.65,0-.42-.11-1.13.28-1.3-.13.06-.45.35-.71.17l.59-.7c-.63-.31-.33.59-.84.52,0-.59-.37-.42-.3-.89.13-.06.44.24.64,0a2.26,2.26,0,0,1-1.5-.91c.05.34,0,.8-.42.88-1.08,0-.37-.71-1-1-.27.41-1,0-1,.87-.31,0-.37-.42-.5-.66-.56.39-2.62.12-2,1.06l.15.06-.1,0h0c-1.84.88-3.82-.5-5.65-.12v-.3c-1.09.34-2.42.2-3.2.84a.8.8,0,0,1-.63-.9c-.83.23-.92.56-2.13.07.84-.52-.29-.46.86-.38-1.08-.25-1.33-.73-2.49.08.39-.76-.82-1-1.33-.73l.76.55a4.74,4.74,0,0,1-1.6,0l.28-1c-2.22-1.22-4,2.06-5.69,0-.59.7,1.2.49.68,1.31-1-.14-2.08-1.57-2.4-1.57-1.4-.56-1.31,1.46-2.77,1.08a1.11,1.11,0,0,1-.73,1.64c-1-.13-1.25-1.49-.61-1.78.25,0,.37.08.35.2.33-.13.77-.28.36-.66l-.13.35c-.51-.36-1.91-.32-1.58-.91-.77.34-.33.59.24.77-1.31-.51-2,0-3.39-.36.21.2.41.61.2.61-2-.44-.87.68-2.21.83-.76-.54.27-1.29-1.08-.84-.82-.37-.17-.94.16-1.23-1.23.68-2.3-.46-3-.58l.65-.29a2.19,2.19,0,0,1-1,.16l.37.72c-.38-.13-.7-.13-.7-.43-.39.47.3,1.19-.47,1.83-.51-.37-1.54.38-1.72-.56,1.59.32-.18-.95,1.17-1.1a1.33,1.33,0,0,1-1,0c-.05-.1.06-.19.16-.25-1.52-.84-.7,1.07-2.28,1,.2-.53-.36-1-.62-.9.63,0,.3.89-.28,1.3-1-.42-1.1.31-1.63.26l.6.19c-.2.54-.71.47-1.41.63-.06-.41.64-.28.38-.46-.78.93-1.77-1-2.86-.34-.51-.36,0-1-.49-1.25-1.23.69-1.33-.73-2.62-.16.37.72.44.54-.47,1.24l2.12-.5-1.36,1c.64,0,1.35-.45,1.73-.33-.65.58-.58.41-.27,1-.88-1.07-1.74.63-2.75-.1l0-1.77c-1.52-.79-2.7.91-4.67.46l.64.31c-.27.7-1.22.1-1.86.38.06-.59-.34-.8-.61-1.17,0,.44-1.45,0-1.63,1.14l-.88-.78c-1.59-.32-1.81,1.69-3.35,1.49.47-.65-.23-1.07.8-1.53-.52,0-1-.11-1,.3-.3-.37-1.42.8-1.89.23-.22.26-.29.88-.86.83a.44.44,0,0,1,0-.29c0,.29-.9.4-.39,1.06-1.58-1.85-4.41.13-5.78-1.46a29.94,29.94,0,0,1-3.47.44c.07-.18,0-.3.2-.24-1.4-.55-.86,1.7-2.45,1.09-.82-1,.84-.52.33-.88-.22-2-1.91.26-3-.87l.26-.12c-.82-.66-2,.74-3.34.6a.41.41,0,0,0,0-.29c-.91,1-2.64,1.32-3.93,1.59.4-.76.59-.4.34-1.17-.57.11.17,1.24-1,1.46-.37-.42-1.2-.79-1.31-1.61l1.08,0c-.55-1.07-1.4,0-2-.15l.07-.46c-1.66.15-1.69,1.33-3.47,1.24l.18.36c-1,1.16-.82-.66-1.79.21l-.3-1.19a17.29,17.29,0,0,1-3.41,1.37c.66-.88,2-1.33,2.85-1.85-.64,0-2.17.09-2.51.67.26-.11.58-.4.84-.22a3.78,3.78,0,0,1-3.09,1.37c.23-2.3-3.32-.58-4.24-2.36-2.25.85-4.47-.36-7.09-.23.93,1.79-.76,0-.6,1.89-.61.11-.85.08-.9,0l-1.85-1.1c-.44-.53.58-.4.52-.82-1.34-.14-.56-.77-1.44-1.26.18.65-.47.94-1.23.69l1.07.84c-1.87,1-1.61-1.54-3.5-.57l.6-.58c-1,.34-3.57,0-4.52,1.47-.17-.22-.39-.72,0-.85-2.31-.22-5.14,1.57-6.94.66l.18-.45c-.43.13-.75.84-1.29.39,0-.18.17-.44,0-.47-.23.15-1.14.79-1.72.52l.49-.5c-2.25-.59-3.46,1.23-5.35,1.54,0-1.32-1.76-1.75-2.65-2l0-.18c-2.62-.17-4.46,1.09-6.89,1.61-1.51-1.44-5.11-.6-7.53-1.41.37.24-.06,1-.49,1.17-.57-.27-1.58.91-1.49-.3l.21,0c-.43-1.18-1.6-.87-2.52-.9l-.15,1.58c-2.38-2.3-6.25.85-7.56-1.21-.57.39-1.29.39-1.86.78l0-.85a15.18,15.18,0,0,0-4.37-.12l.41-.6c-1.12-.06-1.41,2.45-2.44,2.5l-.31-1.27c-1.94,0-3.9-1.1-5.82,0,0-.18.09-.55.4-.6-.91,0-3.54-.86-3.2.88,0-1.13-2-.11-3.06.39l.17-.83c-.89,1.06-.92,1.36-2.15,1.65-.3-.11-.26-.67.13-.45-1-.44-.76.79-2,.34l.44-.53c-1-.07-.92.22-1.47.84a1.67,1.67,0,0,1-2.06-1c-.13.46-.68,1.07-1.27.86a.51.51,0,0,1,.24-.55c-1.68-.57-2.5,1-3.65.15a.69.69,0,0,0-.2-.5A12.22,12.22,0,0,1,62,94c0-.77-1.08-.9-.22-2-.87.59-2.35,1.85-3.4,1.49a.85.85,0,0,1-.13-.27l.1-.09a.78.78,0,0,0-.66.13,2.45,2.45,0,0,0-.87-.23c-.12-.64-1.24-.35-1.77-.38,0,.84-.66.71,0,1.4-.09-.06.1-.1.45-.13a.61.61,0,0,0,.23-.09l0,.08c.35,0,.81,0,1.33-.06-.42.43-.86.79-1.46.32-.28.54-.58,1.1-.75,1.36-.74-1.18-2.15-1.81-2.35-2.54-1.64.48-3.87.32-4.9,1.9-.46.2-.53-.45-.71-.7.27-.16.59-.14.74-.37-.94.41-2.77.16-3,1.27-1.18-.5.66-1-1-.84l.22-.34c-3.18-1.77-5.16,2.83-8.69.56.25.14.37.2.42.39-4-1-8.28.94-12.25-.65-1.12-.32-1.25.38-1.93.92l-.25-.9-1.17,1c-1.67.77-2.89-2.22-5-.77l.27.61c-.76-.12-2.4.36-2.27-.35-.08.11-.25.64-.55.32l0-.47-1.87.81c-1.44-.34.23-1.88-1.88-2-.78.19-2.23,1.38-1.93,1.7a.91.91,0,0,1,.83.77l-.72.25c-.13,1.4-.68,2.83,1.08,3.8l1.23-.85.39.67-1,0c.58.64,1,.07,1.37-.32a1.16,1.16,0,0,0,.51.75L11.63,99c.14.54-.54,1.08.26,1.38.57-.62-.54-1.22.4-1.63.58.63.41,1.15,1.1.61a.61.61,0,0,1-.32.75c.61-.43,1.62-.19,1.93-.93.62.79,2.07-.2,2,1.12a3.08,3.08,0,0,1,1.64-1.09c-1,1.58,2.11.09,1.84,1.79.76-1.43,2.74-.63,4.09-1.42-.07.11-.22.34-.34.27.76.11,1,.54,1.46.81.1-1.17,1.28-1.44,1.92-2.17.93,1.14-.56,1.38-.27,2.47-.05-1,1.61-1,1.3-1.74.71.7.61.34,1,1.31.13-1.47.67-.25,1.26-1.15,1,.72.26,1.38,1.39.93C32.81,100.75,31.8,101.27,31.8,101.27Zm26.88-2.54v0l-.56,0Zm2.25,0a7.17,7.17,0,0,0-1,0c-.08-.29,0-.59.23-.57C60.07,98.3,60.6,98.47,60.93,98.72Zm-4.77-5.85c.36-.12.47,0,.52.22a5.5,5.5,0,0,0-.62.1s0,.07,0,.11A1.21,1.21,0,0,1,56.16,92.87Z"/><path class="cls-2" d="M55.51,94a.59.59,0,0,1-.14.06,1.8,1.8,0,0,0,.21.19c0-.09.09-.18.13-.26Z"/><path class="cls-2" d="M260.23,95.23l-.05,0a.29.29,0,0,1,.1.12A.93.93,0,0,1,260.23,95.23Z"/><polygon class="cls-2" points="92.12 100.33 92.12 100.12 91.92 100.3 92.12 100.33"/><path class="cls-2" d="M272.67,98.12a.4.4,0,0,0,.16.22C272.83,98.28,272.76,98.21,272.67,98.12Z"/><path class="cls-2" d="M278,98.31l.76.3A3.61,3.61,0,0,0,278,98.31Z"/><path class="cls-2" d="M282.17,98.73a1.7,1.7,0,0,0,.09-.36h0Z"/><path class="cls-2" d="M216.49,99.72a.47.47,0,0,0-.16,0C216,99.92,216.21,99.86,216.49,99.72Z"/><path class="cls-2" d="M236,97.75a3.91,3.91,0,0,1-.63.4C235.76,98.21,236,98.23,236,97.75Z"/><path class="cls-2" d="M194.67,100.74v0h-.14Z"/><path class="cls-2" d="M234.5,98.13a1,1,0,0,0,.91,0A1.57,1.57,0,0,0,234.5,98.13Z"/><path class="cls-2" d="M300.08,99.11l.2,0a.3.3,0,0,1,0-.14Z"/><path class="cls-2" d="M300.3,99l.22-.1C300.42,98.91,300.33,98.92,300.3,99Z"/><path class="cls-2" d="M301,98.7l-.47.21C300.68,98.91,300.88,98.94,301,98.7Z"/><path class="cls-2" d="M294.61,98.72l-.06.31A.93.93,0,0,0,294.61,98.72Z"/><path class="cls-2" d="M293,98.81c.39.07,1,.65,1.55.46l.05-.24C294.29,99.48,293.32,98.29,293,98.81Z"/><path class="cls-2" d="M286,95l1.39.25c-.24-.33-.56-.77.07-.85C285.72,93.46,287.84,95.16,286,95Z"/><path class="cls-2" d="M281.69,94.56c.75-.15,0-.47,0-.66C281.25,94.2,281.14,94.27,281.69,94.56Z"/><path class="cls-2" d="M250.49,94.56l.08-.77C250,93.9,250.56,94.09,250.49,94.56Z"/><polygon class="cls-2" points="244.53 98.52 245.09 99 245.35 98.3 244.53 98.52"/><polygon class="cls-2" points="241 93.06 241.25 92.94 240.29 93.22 241 93.06"/><path class="cls-2" d="M188.59,93.33l.18.94C189.16,94.1,189.24,93,188.59,93.33Z"/><path class="cls-2" d="M166,94.29c-.25-.47-.88-.78-1.27-.31C165.2,94,165.71,94.41,166,94.29Z"/><polygon class="cls-2" points="98.12 92.75 98.57 92.43 97.72 92.7 98.12 92.75"/></g></g></svg>